<svg id="_3" data-name="3" xmlns="http://www.w3.org/2000/svg" xmlns:xlink="http://www.w3.org/1999/xlink" width="76.461" height="94.128" viewBox="0 0 76.461 94.128">
  <defs>
    <linearGradient id="linear-gradient" x1="1" y1="0.535" x2="0.409" y2="0.21" gradientUnits="objectBoundingBox">
      <stop offset="0" stop-color="#85b1e5"/>
      <stop offset="1" stop-color="#6294d0"/>
    </linearGradient>
    <linearGradient id="linear-gradient-2" x1="0.054" y1="0.462" x2="0.975" y2="0.453" gradientUnits="objectBoundingBox">
      <stop offset="0" stop-color="#6294d0"/>
      <stop offset="1" stop-color="#85b1e5"/>
    </linearGradient>
  </defs>
  <path id="Path_5147" data-name="Path 5147" d="M207.313,0A10.417,10.417,0,1,0,217.73,10.417,10.418,10.418,0,0,0,207.313,0Zm0,14.724a4.307,4.307,0,1,1,4.307-4.307A4.307,4.307,0,0,1,207.313,14.724Z" transform="translate(-169.081 0)" fill="url(#linear-gradient)"/>
  <path id="Path_5148" data-name="Path 5148" d="M199.314,10.417A10.417,10.417,0,0,1,208.522.072a10.417,10.417,0,1,0-1.209,20.763,10.494,10.494,0,0,0,1.209-.072A10.417,10.417,0,0,1,199.314,10.417Z" transform="translate(-169.081 0)" fill="#5989c2"/>
  <path id="Path_5149" data-name="Path 5149" d="M136.923,225.712l-3.322-3.321s-5.876,12.537-22.37,18.309c-4.126,1.438-8.238,4.247-10.071,7.621-1.831-3.374-5.959-6.183-10.088-7.621C74.6,234.928,68.7,222.391,68.7,222.391l-3.322,3.321c-6.852-12.845,2.79-25.263,2.79-25.263,0,14.559,11.99,17.128,11.99,17.128l-5.995,1.49A18.385,18.385,0,0,0,79.8,226.4c6.44,5.326,16.2.6,16.2-7.759V183.221h10.311v35.417c0,8.359,9.762,13.085,16.2,7.759a19.263,19.263,0,0,0,5.121-6.183c.188-.376.36-.755.514-1.131l-5.995-1.507s11.99-2.569,11.99-17.128l0,0C134.325,200.677,143.712,212.987,136.923,225.712Z" transform="translate(-62.923 -154.193)" fill="url(#linear-gradient-2)"/>
  <path id="Path_5150" data-name="Path 5150" d="M167.795,184.586v48.285a1.982,1.982,0,0,1-2.335,1.95c-4.224-.76-13.084-2.952-17.291-8.424,6.44,5.326,16.2.6,16.2-7.759V183.221h1.737Z" transform="translate(-131.289 -154.193)" fill="#5989c2"/>
  <path id="Union_28" data-name="Union 28" d="M0,8.059V1.523a58.538,58.538,0,0,1,26.533,0V8.058h0A58.327,58.327,0,0,1,13.267,9.582,58.327,58.327,0,0,1,0,8.059Z" transform="translate(24.965 20.835)" fill="#334051"/>
  <g id="Group_6762" data-name="Group 6762" transform="translate(0 46.256)">
    <path id="Path_5153" data-name="Path 5153" d="M69.57,291.783l-.87.387-3.322,3.321c-6.852-12.845,2.79-25.263,2.79-25.263s-3.217,10.289,2.264,18.678A1.976,1.976,0,0,1,69.57,291.783Z" transform="translate(-62.919 -270.229)" fill="#5989c2"/>
    <path id="Path_5154" data-name="Path 5154" d="M368.5,289l-.424-.137-5.995-1.507s11.99-2.569,11.99-17.128l0,0c.074.2,4.037,10.729-1.273,17.477A3.934,3.934,0,0,1,368.5,289Z" transform="translate(-302.848 -270.23)" fill="#5989c2"/>
  </g>
</svg>
