<svg xmlns="http://www.w3.org/2000/svg" xmlns:xlink="http://www.w3.org/1999/xlink" width="1130.162" height="667.267" viewBox="0 0 1130.162 667.267">
  <defs>
    <clipPath id="clip-path">
      <path id="Path_5354" data-name="Path 5354" d="M8.8,0H264.589c4.857,0,8.8,5.539,8.8,12.373v357.78c0,6.833-3.938,12.373-8.8,12.373H8.8c-4.857,0-8.8-5.539-8.8-12.373V12.373C0,5.539,3.938,0,8.8,0Z" transform="translate(0)" fill="#fff" stroke="#334051" stroke-width="2"/>
    </clipPath>
    <clipPath id="clip-path-2">
      <rect id="Rectangle_248" data-name="Rectangle 248" width="252.182" height="191.909" rx="20" transform="translate(0 0)" fill="#5e91cd"/>
    </clipPath>
  </defs>
  <g id="Group_6984" data-name="Group 6984" transform="translate(-934.271 -274)">
    <path id="Path_5277" data-name="Path 5277" d="M346.3-88.178c229.518-75.263,309.483-20.155,507.361,48.739,269.237,141.627,224.71,545.06,208.964,581.39-240.136-.827-1000.556-1.271-1064.206,0-.19-68.112,0-92.3,0-146.567C-1.584,188.247,116.78-12.915,346.3-88.178Z" transform="translate(989.07 398.315)" fill="#ebf4ff"/>
    <path id="Path_5367" data-name="Path 5367" d="M-591.543,802.842l9.145,77.237H-768.319l12.09-77.237S-770.543,802.106-591.543,802.842Z" transform="translate(2312.523 59.576)" fill="#5e91cd"/>
    <path id="Path_5423" data-name="Path 5423" d="M7.078,4.04l3.394,14.135H3.87l-.4-3.969Z" transform="translate(1634.487 921.103)" fill="#e0edfc"/>
    <g id="Group_6888" data-name="Group 6888" transform="translate(1139.332 317.056)">
      <g id="Mask_Group_6" data-name="Mask Group 6" transform="translate(0)" clip-path="url(#clip-path)">
        <g id="Group_6887" data-name="Group 6887" transform="translate(326.236 -71.83) rotate(90)">
          <rect id="Rectangle_238" data-name="Rectangle 238" width="520.501" height="334.329" transform="translate(65.457 11.229)" fill="#334051"/>
          <path id="Path_5165" data-name="Path 5165" d="M0,0S10.1,94.431,86.346,102.256s73.643,84.9,75.329,109.565,11.389,44,39.541,50.312c15.511,3.476,47.435,6.28,81.518-19.249,11.092-8.382,23.667-22.148,32.408-14.166,4.489,4.544,6.63,11.773,4.138,20.744-2.629,9.47-10.218,21.015-9.83,31.707.837,23.06,17.449,43.869,17.167,52.952" transform="translate(131.343 11.407)" fill="none" stroke="#fff" stroke-width="2" opacity="0.6"/>
          <path id="Path_5166" data-name="Path 5166" d="M298.482,0c-5.011,4.322-29.533,16.393-64.986,20.032-76.243,7.825-74.121,89.958-75.807,114.625s-11.389,44-39.541,50.312c-15.511,3.475-47.435,6.28-81.518-19.249-11.092-8.382-23.667-22.148-32.408-14.166C-.266,156.1-1.112,162.808,1.38,171.779c9.771,23.6,5.289,39.081,4.473,42.75" transform="translate(277.462 49.588) rotate(82)" fill="none" stroke="#fff" stroke-width="2" opacity="0.6"/>
          <path id="Path_5167" data-name="Path 5167" d="M0,0S2.524,68.409,62.044,76.954s74.468,40.552,78.586,46.636c2.759,4.077,10.309,26.028,27.3,43.629a77.136,77.136,0,0,0,31.943,19.515c36.167,10.669,60.486-23.6,56.087-52.655-1.853-14.6-27.83-61.9-64.322-15.52-5.271,6.757-7.964,15.737-19.306,13.977-18.2-1.116-15.4-42.249-23.1-74.456S127.356,20.946,127.079,0" transform="translate(154.905 11.733)" fill="none" stroke="#fff" stroke-width="2" opacity="0.6"/>
          <g id="Path_5168" data-name="Path 5168" transform="matrix(0.719, -0.695, 0.695, 0.719, 338.329, 159.834)" fill="none" opacity="0.6">
            <path d="M37.388,0C51.075,0,56.081,10.862,51.967,24.11s-17.214,18.165-27.378,19.3S0,39.868,0,26.18,23.7,0,37.388,0Z" stroke="none"/>
            <path d="M 37.38780975341797 1.999996185302734 C 34.24330902099609 1.999996185302734 30.44563865661621 2.713344573974609 26.40534782409668 4.062915802001953 C 22.31540679931641 5.4290771484375 18.2439079284668 7.360157012939453 14.63102722167969 9.647407531738281 C 10.82122802734375 12.05930709838867 7.659946441650391 14.7927360534668 5.488929748535156 17.55218696594238 C 3.173847198486328 20.49476623535156 2 23.39774703979492 2 26.18049621582031 C 2 28.77243614196777 2.584030151367188 31.11158752441406 3.735858917236328 33.13296508789062 C 4.779739379882812 34.96488571166992 6.295688629150391 36.55558776855469 8.241607666015625 37.86088562011719 C 11.7599983215332 40.22098541259766 16.62453842163086 41.57457733154297 21.58791732788086 41.57457733154297 C 22.53469848632812 41.57457733154297 23.46978759765625 41.52373504638672 24.36721801757812 41.42345809936523 C 28.3325080871582 40.98037719726562 34.18019866943359 39.7816276550293 39.52012634277344 36.58696746826172 C 44.80002593994141 33.42822647094727 48.34519958496094 29.03099632263184 50.05716705322266 23.51742553710938 C 51.11942672729492 20.0962963104248 51.53775787353516 16.88387680053711 51.30055999755859 13.96940612792969 C 51.072509765625 11.16753768920898 50.24717712402344 8.78338623046875 48.84749984741211 6.883174896240234 C 47.71953964233398 5.35186767578125 46.22453689575195 4.160224914550781 44.40400695800781 3.341346740722656 C 42.42524719238281 2.451297760009766 40.06465911865234 1.999996185302734 37.38780975341797 1.999996185302734 M 37.38780975341797 -3.814697265625e-06 C 51.07492828369141 -3.814697265625e-06 56.08101654052734 10.86152648925781 51.96720886230469 24.11049652099609 C 47.85340881347656 37.35944747924805 34.75286865234375 42.27541732788086 24.58931732177734 43.41108703613281 C 14.42575073242188 44.54675674438477 0 39.86763763427734 0 26.18049621582031 C 0 12.49336624145508 23.70066833496094 -3.814697265625e-06 37.38780975341797 -3.814697265625e-06 Z" stroke="none" fill="#fff"/>
          </g>
          <g id="Path_5169" data-name="Path 5169" transform="matrix(0.891, -0.454, 0.454, 0.891, 41.497, 261.013)" fill="none" opacity="0.6">
            <path d="M37.388,0C51.075,0,56.081,10.862,51.967,24.11S38.4,45.03,28.24,46.166,0,39.868,0,26.18,23.7,0,37.388,0Z" stroke="none"/>
            <path d="M 37.38780975341797 2 C 34.24330902099609 2 30.44563865661621 2.713348388671875 26.40534782409668 4.062919616699219 C 22.31540679931641 5.4290771484375 18.2439079284668 7.360157012939453 14.63102722167969 9.647407531738281 C 10.82122802734375 12.05930709838867 7.659946441650391 14.79273986816406 5.488929748535156 17.55218887329102 C 3.173847198486328 20.4947681427002 2 23.39774894714355 2 26.18049812316895 C 2 28.80421829223633 2.770767211914062 31.30326843261719 4.290908813476562 33.60823059082031 C 5.697799682617188 35.74147796630859 7.706687927246094 37.67227935791016 10.26178741455078 39.34700775146484 C 12.60503005981445 40.88287734985352 15.36081695556641 42.15325927734375 18.23121643066406 43.02080917358398 C 20.95600891113281 43.8443603515625 23.67804718017578 44.27965927124023 26.10308837890625 44.27965927124023 C 26.77288818359375 44.27965927124023 27.41719818115234 44.24560928344727 28.01811790466309 44.178466796875 C 32.75484848022461 43.64918899536133 37.2569580078125 41.57883834838867 41.0377197265625 38.19123840332031 C 43.00857925415039 36.42533874511719 44.76462936401367 34.31781768798828 46.257080078125 31.92723846435547 C 47.82648849487305 29.41338920593262 49.10501861572266 26.58391761779785 50.05716705322266 23.51742935180664 C 51.11942672729492 20.09629821777344 51.53775787353516 16.88387870788574 51.30055999755859 13.96940994262695 C 51.072509765625 11.16753768920898 50.24717712402344 8.783390045166016 48.84749984741211 6.8831787109375 C 47.71953964233398 5.35186767578125 46.22453689575195 4.160228729248047 44.40400695800781 3.341346740722656 C 42.42524719238281 2.451297760009766 40.06465911865234 2 37.38780975341797 2 M 37.38780975341797 0 C 51.07492828369141 0 56.08101654052734 10.86153030395508 51.96720886230469 24.11049842834473 C 47.85340881347656 37.35944747924805 38.40375900268555 45.03043746948242 28.24020767211914 46.16609954833984 C 18.07663726806641 47.30177688598633 0 39.86763763427734 0 26.18049812316895 C 0 12.49337005615234 23.70066833496094 0 37.38780975341797 0 Z" stroke="none" fill="#fff"/>
          </g>
          <g id="Path_5170" data-name="Path 5170" transform="matrix(0.5, 0.866, -0.866, 0.5, 244.829, 123.992)" fill="none" opacity="0.6">
            <path d="M29.882.691C41.32-1.5,53.479,1.37,50.315,11.559c-1.547,4.983-.671,15.027-21.526,21.082C6.6,39.533,0,27.747,0,22.368,0,11.841,18.445,2.884,29.882.691Z" stroke="none"/>
            <path d="M 36.9346923828125 1.999992370605469 C 34.77207183837891 1.999992370605469 32.52608489990234 2.220390319824219 30.25911331176758 2.655071258544922 C 27.45037460327148 3.193634033203125 24.29011344909668 4.137313842773438 21.1199836730957 5.384071350097656 C 17.72857284545898 6.717851638793945 14.47908401489258 8.346363067626953 11.72281265258789 10.09354209899902 C 8.673683166503906 12.0263614654541 6.2821044921875 14.04974174499512 4.614505767822266 16.10750198364258 C 2.879642486572266 18.24826240539551 1.999992370605469 20.35447311401367 1.999992370605469 22.36764144897461 C 1.999992370605469 23.91814231872559 2.785663604736328 26.51294326782227 4.999923706054688 28.7230110168457 C 6.200675964355469 29.92149353027344 7.683284759521484 30.86965179443359 9.406574249267578 31.54116249084473 C 11.45734405517578 32.34028244018555 13.84914398193359 32.74546051025391 16.51554489135742 32.74546051025391 C 19.96320343017578 32.74546051025391 23.89281463623047 32.06775283813477 28.19519424438477 30.73114204406738 L 28.23090362548828 30.72042274475098 C 32.29947662353516 29.53915214538574 35.75726318359375 28.12461090087891 38.50821304321289 26.51607131958008 C 40.8097038269043 25.17034149169922 42.68463516235352 23.64631271362305 44.08092498779297 21.9863224029541 C 46.60453414916992 18.98610305786133 47.24384307861328 16.02002143859863 47.80789566040039 13.40311241149902 C 47.9942741394043 12.53839302062988 48.17031478881836 11.72162246704102 48.40493392944336 10.96602249145508 C 49.09911346435547 8.730312347412109 48.9407958984375 6.970451354980469 47.92093276977539 5.585891723632812 C 47.09999465942383 4.471382141113281 45.72499465942383 3.589210510253906 43.83415222167969 2.963882446289062 C 41.92740631103516 2.333301544189453 39.5416145324707 1.999992370605469 36.9346923828125 1.999992370605469 M 36.9346923828125 -3.814697265625e-06 C 45.69773101806641 -3.814697265625e-06 52.82413101196289 3.478034973144531 50.31497573852539 11.55909156799316 C 48.76789474487305 16.54165267944336 49.64438247680664 26.58585357666016 28.78855323791504 32.6411018371582 C 6.604377746582031 39.53292846679688 -3.814697265625e-06 27.74657440185547 -7.62939453125e-06 22.36764144897461 C -7.62939453125e-06 11.84136199951172 18.44461441040039 2.884021759033203 29.88248443603516 0.6908531188964844 C 32.24908447265625 0.2370681762695312 34.64850616455078 -3.814697265625e-06 36.9346923828125 -3.814697265625e-06 Z" stroke="none" fill="#fff"/>
          </g>
          <g id="Path_5171" data-name="Path 5171" transform="matrix(-0.292, -0.956, 0.956, -0.292, 59.521, 322.127)" fill="none" opacity="0.6">
            <path d="M187.808,58.394c8.141,0,17.833.576,15.386,8.457s3.218,26.39-6.2,29.168c-13.1,2.069-16.007-11.065-33.387-18.715s-36.957-12-51.862-11.572c-24.864,1-55.762,20.357-86.883,5.421C16.82,67.291,6.444,59.089,2.428,49.533-4.748,32.464,6.286,9.9,6.1,6.676,4.288-23.5,181.27,58.394,187.808,58.394Z" stroke="none"/>
            <path d="M 194.3264465332031 94.23709106445312 L 194.326416015625 94.23709106445312 C 195.0316162109375 94.23706817626953 195.7764739990234 94.17891693115234 196.5425720214844 94.06415557861328 C 197.5126190185547 93.75325775146484 198.2736206054688 93.19509124755859 198.8660278320312 92.36075592041016 C 199.4760284423828 91.50161743164062 199.9377288818359 90.30414581298828 200.2383575439453 88.80158996582031 C 200.8611145019531 85.68901062011719 200.7331390380859 81.71917724609375 200.6093902587891 77.88003540039062 C 200.4674682617188 73.47725677490234 200.3334197998047 69.31867218017578 201.2838134765625 66.25778961181641 C 201.9391937255859 64.14706420898438 201.3247222900391 63.31281280517578 201.122802734375 63.03870391845703 C 200.6277770996094 62.36667633056641 199.3834228515625 61.45184326171875 196.2662506103516 60.90989685058594 C 193.6506652832031 60.45514678955078 190.5228271484375 60.39384078979492 187.8081359863281 60.39384078979492 C 186.0807495117188 60.39384078979492 180.5014801025391 58.17075729370117 159.2564239501953 49.41006469726562 C 138.4657287597656 40.83675765991211 109.9919204711914 29.09517478942871 82.84860992431641 19.33095359802246 C 68.02139282226562 13.99714756011963 55.18877792358398 9.843953132629395 44.70725250244141 6.986675262451172 C 32.56886291503906 3.677758455276489 23.22008514404297 2.000008344650269 16.92055702209473 2.000008344650269 C 11.82480716705322 2.000008344650269 9.733529090881348 3.084786176681519 8.876473426818848 3.994813919067383 C 8.499001502990723 4.395591735839844 8.007307052612305 5.097230434417725 8.095084190368652 6.560730457305908 C 8.158029556274414 7.646119594573975 7.69561243057251 9.16211986541748 6.643695831298828 12.48767471313477 C 5.360640048980713 16.54398155212402 3.42166805267334 22.67387008666992 2.51452898979187 29.24100875854492 C 2.022973537445068 32.79939651489258 1.883390188217163 36.14703750610352 2.099668025970459 39.19095230102539 C 2.34930682182312 42.70464706420898 3.080140113830566 45.92350769042969 4.272001266479492 48.75848007202148 C 5.993278980255127 52.85450744628906 9.177362442016602 57.0869255065918 13.48005676269531 60.99817657470703 C 17.1951961517334 64.37534332275391 21.54361152648926 67.34153747558594 25.72350120544434 69.34995269775391 C 33.35200119018555 73.01136779785156 41.45513916015625 74.79122924804688 50.4959716796875 74.79122924804688 C 62.3210563659668 74.79122924804688 73.86064147949219 71.77181243896484 85.02027893066406 68.85184478759766 C 94.41408538818359 66.39389801025391 103.2869186401367 64.07225799560547 111.660026550293 63.73403549194336 L 111.6835327148438 63.73320388793945 C 112.3688659667969 63.71359252929688 113.0745849609375 63.70364761352539 113.7811431884766 63.70364761352539 C 128.7375640869141 63.70364761352539 147.6638031005859 68.10370635986328 164.4088592529297 75.4737548828125 C 172.203369140625 78.90437316894531 177.2690887451172 83.46159362792969 181.3394775390625 87.12336730957031 C 185.9301452636719 91.25322723388672 189.2469787597656 94.23712158203125 194.3264465332031 94.23709106445312 M 194.3264617919922 96.23708343505859 C 183.4014434814453 96.23719024658203 179.7401275634766 84.40666961669922 163.6031951904297 77.30431365966797 C 146.2230072021484 69.65470886230469 126.6461410522461 65.30536651611328 111.7407531738281 65.73239898681641 C 86.87630462646484 66.73677825927734 55.9786491394043 86.08984375 24.85808372497559 71.15303802490234 C 16.82033538818359 67.29087066650391 6.443612575531006 59.08861923217773 2.428195714950562 49.5333137512207 C -4.747942924499512 32.46426010131836 6.285529136657715 9.903230667114258 6.098445892333984 6.676480770111084 C 5.816915988922119 1.983737707138062 9.867219924926758 -1.875135694717756e-06 16.92054557800293 -1.875135694717756e-06 C 55.22109603881836 -1.875135694717756e-06 182.2869415283203 58.39384078979492 187.8081359863281 58.39384078979492 C 195.9494171142578 58.39384078979492 205.6408081054688 58.97023010253906 203.1938629150391 66.85086822509766 C 200.7469177246094 74.73150634765625 206.412109375 93.24064636230469 196.9901123046875 96.01881408691406 C 196.0531463623047 96.16684722900391 195.1681671142578 96.23707580566406 194.3264617919922 96.23708343505859 Z" stroke="none" fill="#fff"/>
          </g>
          <path id="Path_5172" data-name="Path 5172" d="M3.8.092s6.158,14.134,0,25.484S-3.1,50.63,17.606,57.555s38.48,3.864,56.529,17.408,19.233,1.914,18.085-9.077-6.249-24.235-32.64-16.645S9.591,27.583,26.089,0" transform="translate(190.61)" fill="none" stroke="#fff" stroke-width="2" opacity="0.6"/>
          <path id="Path_5173" data-name="Path 5173" d="M4.852,66.979a22.512,22.512,0,0,0-2.546-8.292c-6.158-11.35-.2-28.559,20.5-35.485S53.247,18.794,71.3,5.249s20.58,2.137,19.432,13.128S84.48,42.612,58.089,35.022C37.451,29.087,18.521,45.679,19.145,66.614" transform="translate(332.594 278.176)" fill="none" stroke="#fff" stroke-width="2" opacity="0.6"/>
          <path id="Path_5174" data-name="Path 5174" d="M0,0S39.132,29.152,12.86,71.279c-.385.617-.915,1.434-1.472,2.256-5.884,7.149.688,26.9,23.059,13.892S58.594,68.12,61.139,56.991s4.112-33.672,38.635-19.5S145.35,23.524,144.449,0" transform="translate(318.774 11.363)" fill="none" stroke="#fff" stroke-width="2" opacity="0.6"/>
          <path id="Path_5175" data-name="Path 5175" d="M0,106.81s31.865-44.2,5.594-86.331c-.385-.617-.915-1.434-1.472-2.256-5.884-7.149.688-26.9,23.059-13.892S54.945,39.5,57.495,48.408c1.3,5.7,6.871,17.876,16.914,22.416,9.115,4.122,26.074,2.283,38.7-2.82,25.877-10.456,32.24,15.281,31.339,38.8" transform="translate(138.644 238.5)" fill="none" stroke="#fff" stroke-width="2" opacity="0.6"/>
          <path id="Path_5176" data-name="Path 5176" d="M173.283,0s.647,32.915-13.982,47.483S130.028,67.991,108.939,58.9c-.352-.131-17.1-8.5-20.48,5.07s7.361,23.864,19.192,39.065,20.046,44.216,3.251,73.417c-16.375,28.47-45.779,48.643-94.419,20.13-1.093-.641-8.873-6.85-14.178,0s-2.564,39.159,20.058,46.766,46.625,5.646,70.432-16.337,35.351-23.61,46.716-17.215,30.085,26.542,13.8,56.218,18.52,60.533,45.855,68.066" transform="translate(310.891 11.229)" fill="none" stroke="#fff" stroke-width="2" opacity="0.6"/>
          <path id="Path_5177" data-name="Path 5177" d="M18.908,2.688C10.981,7.844-5.141,31,1.615,66.152s24.8,38.584,45.634,36.33,59.022-1.4,79.048,8.04,33.3-14.119,2.788-22.954c-14.379-4.612-27.6-5.17-34.689-9.994-7.562-5.142-10.688-16.947-11.7-25.053-1.9-15.207-4.809-22.744-15.615-27.458-10.644-4.643-27.14,6.27-7.133,32.154.242.365,11,14.885-8.94,23.763s-35.4-5.177-30.327-31.2S37.506,25.29,36.424,12.3,26.835-2.468,18.908,2.688Z" transform="translate(123.826 103.361)" fill="none" stroke="#fff" stroke-width="2" opacity="0.6"/>
          <path id="Path_5178" data-name="Path 5178" d="M0,58.528s32.121,1.622,46.624-21.9S42.217,2.168,40.049,0" transform="translate(65.764 11.263)" fill="none" stroke="#fff" stroke-width="2" opacity="0.495"/>
          <path id="Path_5179" data-name="Path 5179" d="M1.447,10.876c4.91,10.027,21.122-.588,17.565,21.448-1.5,9.321.612,20.7,8.331,24,9.974,4.271,27.532-1.66,35.165-3.537,13.23-3.253,8.7-17.316,8.564-17.873C52.615-6.324,5.7.408,5.7.408S-3.464.849,1.447,10.876Z" transform="translate(194.231 236.786)" fill="none" stroke="#fff" stroke-width="2" opacity="0.6"/>
          <g id="Path_5180" data-name="Path 5180" transform="translate(309.5 284.618)" fill="none" opacity="0.6">
            <path d="M7.68,0C13.332,0,23.323.665,24.2,8.1S13.332,20.667,7.68,20.667,0,16.323,0,11.209,2.027,0,7.68,0Z" stroke="none"/>
            <path d="M 7.679843902587891 2 C 5.849464416503906 2 4.470624923706055 2.871780395507812 3.464534759521484 4.6651611328125 C 2.533803939819336 6.324230194091797 1.999994277954102 8.709300994873047 1.999994277954102 11.20882034301758 C 1.999994277954102 13.5430908203125 2.468965530395508 15.44377040863037 3.35621452331543 16.70536041259766 C 4.284694671630859 18.02560043334961 5.698974609375 18.66738128662109 7.679843902587891 18.66738128662109 C 9.420644760131836 18.66738128662109 11.85464477539062 18.07876968383789 14.1907844543457 17.09284973144531 C 16.82463455200195 15.98130035400391 19.05899429321289 14.48714065551758 20.48228454589844 12.88564109802246 C 21.81257438659668 11.38877105712891 22.39559555053711 9.856060981750488 22.21514511108398 8.330101013183594 C 22.06326484680176 7.045701026916504 21.55324554443359 6.000821113586426 20.65594482421875 5.135780334472656 C 19.81673431396484 4.326730728149414 18.62143516540527 3.662139892578125 17.10324478149414 3.160470962524414 C 14.74013423919678 2.37959098815918 11.65771484375 2 7.679843902587891 2 M 7.679843902587891 0 C 13.33224487304688 0 23.32272529602051 0.6654815673828125 24.2013053894043 8.095231056213379 C 25.07988548278809 15.52499008178711 13.33224487304688 20.66738128662109 7.679843902587891 20.66738128662109 C 2.027444839477539 20.66738128662109 -5.7220458984375e-06 16.32290077209473 -5.7220458984375e-06 11.20882034301758 C -5.7220458984375e-06 6.094740867614746 2.027444839477539 0 7.679843902587891 0 Z" stroke="none" fill="#fff"/>
          </g>
          <g id="Path_5181" data-name="Path 5181" transform="translate(169.982 324.488)" fill="none" opacity="0.6">
            <path d="M20.289,0C35.221,0,61.614,1.758,63.935,21.386S35.221,54.6,20.289,54.6,0,43.122,0,29.612,5.356,0,20.289,0Z" stroke="none"/>
            <path d="M 20.28871154785156 1.999996185302734 C 14.24438095092773 1.999996185302734 9.534172058105469 4.933135986328125 6.288902282714844 10.71792602539062 C 4.860832214355469 13.26351547241211 3.762779235839844 16.28781509399414 3.025249481201172 19.70682525634766 C 2.354518890380859 22.81611442565918 2 26.24113464355469 2 29.61162376403809 C 2 32.94937515258789 2.340419769287109 36.01920318603516 3.011798858642578 38.73583221435547 C 3.714641571044922 41.57975387573242 4.780780792236328 44.03097534179688 6.180580139160156 46.02139282226562 C 7.646030426025391 48.10515594482422 9.504940032958984 49.71366500854492 11.70566940307617 50.80226516723633 C 14.11639022827148 51.99473571777344 17.004150390625 52.599365234375 20.28871154785156 52.599365234375 C 25.30369186401367 52.599365234375 32.21115112304688 50.94778442382812 38.76615905761719 48.1813850402832 C 46.16558074951172 45.05862426757812 52.48659133911133 40.81162261962891 56.56481170654297 36.22273254394531 C 60.72925186157227 31.53682518005371 62.54082107543945 26.62408447265625 61.94919204711914 21.62096405029297 C 61.69662094116211 19.48508453369141 61.11508178710938 17.50421524047852 60.22074127197266 15.73339462280273 C 59.38591003417969 14.08038330078125 58.2512092590332 12.55641555786133 56.84817123413086 11.20379638671875 C 54.27381134033203 8.721973419189453 50.6959114074707 6.712615966796875 46.21385192871094 5.231544494628906 C 42.44284057617188 3.985435485839844 37.95612335205078 3.090305328369141 32.87831878662109 2.571002960205078 C 29.12121963500977 2.186775207519531 25.00312042236328 1.999996185302734 20.28871154785156 1.999996185302734 M 20.28871154785156 -3.814697265625e-06 C 35.22130966186523 -3.814697265625e-06 61.61429977416992 1.758075714111328 63.93534851074219 21.38609313964844 C 66.25640106201172 41.01412582397461 35.22130966186523 54.599365234375 20.28871154785156 54.599365234375 C 5.356128692626953 54.599365234375 0 43.12205505371094 0 29.61162376403809 C 0 16.1011848449707 5.356121063232422 -3.814697265625e-06 20.28871154785156 -3.814697265625e-06 Z" stroke="none" fill="#fff"/>
          </g>
        </g>
      </g>
      <g id="Group_6886" data-name="Group 6886" transform="translate(27.369 42.235)">
        <g id="eeeee" transform="translate(0 -10)" fill="#edf5ff">
          <path d="M 209.6924591064453 157.5747222900391 L 8.954840660095215 157.5747222900391 C 4.568535327911377 157.5747222900391 1.000007629394531 154.5609741210938 1.000007629394531 150.8565521240234 L 1.000007629394531 17.71816635131836 C 1.000007629394531 14.01375007629395 4.568535327911377 11 8.954840660095215 11 L 209.6924591064453 11 C 214.0787506103516 11 217.6472778320312 14.01375007629395 217.6472778320312 17.71816635131836 L 217.6472778320312 150.8565521240234 C 217.6472778320312 154.5609741210938 214.0787506103516 157.5747222900391 209.6924591064453 157.5747222900391 Z" stroke="none"/>
          <path d="M 8.954818725585938 12.00001525878906 C 5.119918823242188 12.00001525878906 2 14.56515502929688 2 17.71815490722656 L 2 150.8565368652344 C 2 154.0095367431641 5.119918823242188 156.57470703125 8.954818725585938 156.57470703125 L 209.6924743652344 156.57470703125 C 213.5273742675781 156.57470703125 216.6472930908203 154.0095367431641 216.6472930908203 150.8565368652344 L 216.6472930908203 17.71815490722656 C 216.6472930908203 14.56515502929688 213.5273742675781 12.00001525878906 209.6924743652344 12.00001525878906 L 8.954818725585938 12.00001525878906 M 8.954818725585938 10.00001525878906 L 209.6924743652344 10.00001525878906 C 214.6381225585938 10.00001525878906 218.6472930908203 13.45553588867188 218.6472930908203 17.71815490722656 L 218.6472930908203 150.8565368652344 C 218.6472930908203 155.1191558837891 214.6381530761719 158.57470703125 209.6924743652344 158.57470703125 L 8.954818725585938 158.57470703125 C 4.009201049804688 158.57470703125 0 155.1191558837891 0 150.8565368652344 L 0 17.71815490722656 C 0 13.45553588867188 4.009201049804688 10.00001525878906 8.954818725585938 10.00001525878906 Z" stroke="none" fill="#334051"/>
        </g>
        <g id="eeeee-2" data-name="eeeee" transform="translate(2.809 185.519)" fill="#fff">
          <path d="M 34.5472526550293 39.22412109375 L 1.980474472045898 39.22412109375 C 1.706244468688965 39.22412109375 1.483144521713257 38.96837997436523 1.483144521713257 38.6540412902832 L 1.483144521713257 11.57009029388428 C 1.483144521713257 11.25574016571045 1.706244468688965 11.00000095367432 1.980474472045898 11.00000095367432 L 34.5472526550293 11.00000095367432 C 34.82148361206055 11.00000095367432 35.04458618164062 11.25574016571045 35.04458618164062 11.57009029388428 L 35.04458618164062 38.6540412902832 C 35.04458618164062 38.96837997436523 34.82148361206055 39.22412109375 34.5472526550293 39.22412109375 Z" stroke="none"/>
          <path d="M 2.483142852783203 12 L 2.483142852783203 38.22412109375 L 34.04458618164062 38.22412109375 L 34.04458618164062 12 L 2.483142852783203 12 M 1.980476379394531 10 L 34.54725646972656 10 C 35.37420272827148 10 36.04458618164062 10.70294952392578 36.04458618164062 11.5700798034668 L 36.04458618164062 38.6540412902832 C 36.04458618164062 39.52116012573242 35.37420272827148 40.22412109375 34.54725646972656 40.22412109375 L 1.980476379394531 40.22412109375 C 1.153526306152344 40.22412109375 0.4831428527832031 39.52116012573242 0.4831428527832031 38.6540412902832 L 0.4831428527832031 11.5700798034668 C 0.4831428527832031 10.70294952392578 1.153526306152344 10 1.980476379394531 10 Z" stroke="none" fill="#334051"/>
        </g>
        <g id="eeeee-3" data-name="eeeee" transform="translate(47.23 185.519)" fill="#fff">
          <path d="M 34.5472526550293 39.22412109375 L 1.980474472045898 39.22412109375 C 1.706244468688965 39.22412109375 1.483144521713257 38.96837997436523 1.483144521713257 38.6540412902832 L 1.483144521713257 11.57009029388428 C 1.483144521713257 11.25574016571045 1.706244468688965 11.00000095367432 1.980474472045898 11.00000095367432 L 34.5472526550293 11.00000095367432 C 34.82148361206055 11.00000095367432 35.04458618164062 11.25574016571045 35.04458618164062 11.57009029388428 L 35.04458618164062 38.6540412902832 C 35.04458618164062 38.96837997436523 34.82148361206055 39.22412109375 34.5472526550293 39.22412109375 Z" stroke="none"/>
          <path d="M 2.483142852783203 12 L 2.483142852783203 38.22412109375 L 34.04458618164062 38.22412109375 L 34.04458618164062 12 L 2.483142852783203 12 M 1.980476379394531 10 L 34.54725646972656 10 C 35.37420272827148 10 36.04458618164062 10.70294952392578 36.04458618164062 11.5700798034668 L 36.04458618164062 38.6540412902832 C 36.04458618164062 39.52116012573242 35.37420272827148 40.22412109375 34.54725646972656 40.22412109375 L 1.980476379394531 40.22412109375 C 1.153526306152344 40.22412109375 0.4831428527832031 39.52116012573242 0.4831428527832031 38.6540412902832 L 0.4831428527832031 11.5700798034668 C 0.4831428527832031 10.70294952392578 1.153526306152344 10 1.980476379394531 10 Z" stroke="none" fill="#334051"/>
        </g>
        <g id="eeeee-4" data-name="eeeee" transform="translate(91.649 185.519)" fill="#fff">
          <path d="M 34.5472526550293 39.22412109375 L 1.980474472045898 39.22412109375 C 1.706244468688965 39.22412109375 1.483144521713257 38.96837997436523 1.483144521713257 38.6540412902832 L 1.483144521713257 11.57009029388428 C 1.483144521713257 11.25574016571045 1.706244468688965 11.00000095367432 1.980474472045898 11.00000095367432 L 34.5472526550293 11.00000095367432 C 34.82148361206055 11.00000095367432 35.04458618164062 11.25574016571045 35.04458618164062 11.57009029388428 L 35.04458618164062 38.6540412902832 C 35.04458618164062 38.96837997436523 34.82148361206055 39.22412109375 34.5472526550293 39.22412109375 Z" stroke="none"/>
          <path d="M 2.483142852783203 12 L 2.483142852783203 38.22412109375 L 34.04458618164062 38.22412109375 L 34.04458618164062 12 L 2.483142852783203 12 M 1.980476379394531 10 L 34.54725646972656 10 C 35.37420272827148 10 36.04458618164062 10.70294952392578 36.04458618164062 11.5700798034668 L 36.04458618164062 38.6540412902832 C 36.04458618164062 39.52116012573242 35.37420272827148 40.22412109375 34.54725646972656 40.22412109375 L 1.980476379394531 40.22412109375 C 1.153526306152344 40.22412109375 0.4831428527832031 39.52116012573242 0.4831428527832031 38.6540412902832 L 0.4831428527832031 11.5700798034668 C 0.4831428527832031 10.70294952392578 1.153526306152344 10 1.980476379394531 10 Z" stroke="none" fill="#334051"/>
        </g>
        <path id="eeeee-5" data-name="eeeee" d="M3.48,10H68.663c1.655,0,3,.351,3,.785V24.327c0,.434-1.342.785-3,.785H3.48c-1.655,0-3-.351-3-.785V10.785C.483,10.351,1.825,10,3.48,10Z" transform="translate(142.516 185.519)" fill="#fff"/>
        <g id="eeeee-6" data-name="eeeee" transform="translate(2.809 221.676)" fill="#fff">
          <path d="M 34.5472526550293 39.22412109375 L 1.980474472045898 39.22412109375 C 1.706244468688965 39.22412109375 1.483144521713257 38.96837997436523 1.483144521713257 38.6540412902832 L 1.483144521713257 11.57009029388428 C 1.483144521713257 11.25574016571045 1.706244468688965 11.00000095367432 1.980474472045898 11.00000095367432 L 34.5472526550293 11.00000095367432 C 34.82148361206055 11.00000095367432 35.04458618164062 11.25574016571045 35.04458618164062 11.57009029388428 L 35.04458618164062 38.6540412902832 C 35.04458618164062 38.96837997436523 34.82148361206055 39.22412109375 34.5472526550293 39.22412109375 Z" stroke="none"/>
          <path d="M 2.483142852783203 12 L 2.483142852783203 38.22412109375 L 34.04458618164062 38.22412109375 L 34.04458618164062 12 L 2.483142852783203 12 M 1.980476379394531 10 L 34.54725646972656 10 C 35.37420272827148 10 36.04458618164062 10.70294952392578 36.04458618164062 11.5700798034668 L 36.04458618164062 38.6540412902832 C 36.04458618164062 39.52116012573242 35.37420272827148 40.22412109375 34.54725646972656 40.22412109375 L 1.980476379394531 40.22412109375 C 1.153526306152344 40.22412109375 0.4831428527832031 39.52116012573242 0.4831428527832031 38.6540412902832 L 0.4831428527832031 11.5700798034668 C 0.4831428527832031 10.70294952392578 1.153526306152344 10 1.980476379394531 10 Z" stroke="none" fill="#334051"/>
        </g>
        <g id="eeeee-7" data-name="eeeee" transform="translate(47.23 221.676)" fill="#fff">
          <path d="M 34.5472526550293 39.22412109375 L 1.980474472045898 39.22412109375 C 1.706244468688965 39.22412109375 1.483144521713257 38.96837997436523 1.483144521713257 38.6540412902832 L 1.483144521713257 11.57009029388428 C 1.483144521713257 11.25574016571045 1.706244468688965 11.00000095367432 1.980474472045898 11.00000095367432 L 34.5472526550293 11.00000095367432 C 34.82148361206055 11.00000095367432 35.04458618164062 11.25574016571045 35.04458618164062 11.57009029388428 L 35.04458618164062 38.6540412902832 C 35.04458618164062 38.96837997436523 34.82148361206055 39.22412109375 34.5472526550293 39.22412109375 Z" stroke="none"/>
          <path d="M 2.483142852783203 12 L 2.483142852783203 38.22412109375 L 34.04458618164062 38.22412109375 L 34.04458618164062 12 L 2.483142852783203 12 M 1.980476379394531 10 L 34.54725646972656 10 C 35.37420272827148 10 36.04458618164062 10.70294952392578 36.04458618164062 11.5700798034668 L 36.04458618164062 38.6540412902832 C 36.04458618164062 39.52116012573242 35.37420272827148 40.22412109375 34.54725646972656 40.22412109375 L 1.980476379394531 40.22412109375 C 1.153526306152344 40.22412109375 0.4831428527832031 39.52116012573242 0.4831428527832031 38.6540412902832 L 0.4831428527832031 11.5700798034668 C 0.4831428527832031 10.70294952392578 1.153526306152344 10 1.980476379394531 10 Z" stroke="none" fill="#334051"/>
        </g>
        <g id="eeeee-8" data-name="eeeee" transform="translate(91.649 221.676)" fill="#fff">
          <path d="M 34.5472526550293 39.22412109375 L 1.980474472045898 39.22412109375 C 1.706244468688965 39.22412109375 1.483144521713257 38.96837997436523 1.483144521713257 38.6540412902832 L 1.483144521713257 11.57009029388428 C 1.483144521713257 11.25574016571045 1.706244468688965 11.00000095367432 1.980474472045898 11.00000095367432 L 34.5472526550293 11.00000095367432 C 34.82148361206055 11.00000095367432 35.04458618164062 11.25574016571045 35.04458618164062 11.57009029388428 L 35.04458618164062 38.6540412902832 C 35.04458618164062 38.96837997436523 34.82148361206055 39.22412109375 34.5472526550293 39.22412109375 Z" stroke="none"/>
          <path d="M 2.483142852783203 12 L 2.483142852783203 38.22412109375 L 34.04458618164062 38.22412109375 L 34.04458618164062 12 L 2.483142852783203 12 M 1.980476379394531 10 L 34.54725646972656 10 C 35.37420272827148 10 36.04458618164062 10.70294952392578 36.04458618164062 11.5700798034668 L 36.04458618164062 38.6540412902832 C 36.04458618164062 39.52116012573242 35.37420272827148 40.22412109375 34.54725646972656 40.22412109375 L 1.980476379394531 40.22412109375 C 1.153526306152344 40.22412109375 0.4831428527832031 39.52116012573242 0.4831428527832031 38.6540412902832 L 0.4831428527832031 11.5700798034668 C 0.4831428527832031 10.70294952392578 1.153526306152344 10 1.980476379394531 10 Z" stroke="none" fill="#334051"/>
        </g>
        <g id="eeeee-9" data-name="eeeee" transform="translate(2.809 257.832)" fill="#fff">
          <path d="M 34.5472526550293 39.22412109375 L 1.980474472045898 39.22412109375 C 1.706244468688965 39.22412109375 1.483144521713257 38.96837997436523 1.483144521713257 38.6540412902832 L 1.483144521713257 11.57009029388428 C 1.483144521713257 11.25574016571045 1.706244468688965 11.00000095367432 1.980474472045898 11.00000095367432 L 34.5472526550293 11.00000095367432 C 34.82148361206055 11.00000095367432 35.04458618164062 11.25574016571045 35.04458618164062 11.57009029388428 L 35.04458618164062 38.6540412902832 C 35.04458618164062 38.96837997436523 34.82148361206055 39.22412109375 34.5472526550293 39.22412109375 Z" stroke="none"/>
          <path d="M 2.483142852783203 12 L 2.483142852783203 38.22412109375 L 34.04458618164062 38.22412109375 L 34.04458618164062 12 L 2.483142852783203 12 M 1.980476379394531 10 L 34.54725646972656 10 C 35.37420272827148 10 36.04458618164062 10.70294952392578 36.04458618164062 11.5700798034668 L 36.04458618164062 38.6540412902832 C 36.04458618164062 39.52116012573242 35.37420272827148 40.22412109375 34.54725646972656 40.22412109375 L 1.980476379394531 40.22412109375 C 1.153526306152344 40.22412109375 0.4831428527832031 39.52116012573242 0.4831428527832031 38.6540412902832 L 0.4831428527832031 11.5700798034668 C 0.4831428527832031 10.70294952392578 1.153526306152344 10 1.980476379394531 10 Z" stroke="none" fill="#334051"/>
        </g>
        <g id="eeeee-10" data-name="eeeee" transform="translate(47.23 257.832)" fill="#fff">
          <path d="M 34.5472526550293 39.22412109375 L 1.980474472045898 39.22412109375 C 1.706244468688965 39.22412109375 1.483144521713257 38.96837997436523 1.483144521713257 38.6540412902832 L 1.483144521713257 11.57009029388428 C 1.483144521713257 11.25574016571045 1.706244468688965 11.00000095367432 1.980474472045898 11.00000095367432 L 34.5472526550293 11.00000095367432 C 34.82148361206055 11.00000095367432 35.04458618164062 11.25574016571045 35.04458618164062 11.57009029388428 L 35.04458618164062 38.6540412902832 C 35.04458618164062 38.96837997436523 34.82148361206055 39.22412109375 34.5472526550293 39.22412109375 Z" stroke="none"/>
          <path d="M 2.483142852783203 12 L 2.483142852783203 38.22412109375 L 34.04458618164062 38.22412109375 L 34.04458618164062 12 L 2.483142852783203 12 M 1.980476379394531 10 L 34.54725646972656 10 C 35.37420272827148 10 36.04458618164062 10.70294952392578 36.04458618164062 11.5700798034668 L 36.04458618164062 38.6540412902832 C 36.04458618164062 39.52116012573242 35.37420272827148 40.22412109375 34.54725646972656 40.22412109375 L 1.980476379394531 40.22412109375 C 1.153526306152344 40.22412109375 0.4831428527832031 39.52116012573242 0.4831428527832031 38.6540412902832 L 0.4831428527832031 11.5700798034668 C 0.4831428527832031 10.70294952392578 1.153526306152344 10 1.980476379394531 10 Z" stroke="none" fill="#334051"/>
        </g>
        <g id="eeeee-11" data-name="eeeee" transform="translate(91.649 257.832)" fill="#fff">
          <path d="M 34.5472526550293 39.22412109375 L 1.980474472045898 39.22412109375 C 1.706244468688965 39.22412109375 1.483144521713257 38.96837997436523 1.483144521713257 38.6540412902832 L 1.483144521713257 11.57009029388428 C 1.483144521713257 11.25574016571045 1.706244468688965 11.00000095367432 1.980474472045898 11.00000095367432 L 34.5472526550293 11.00000095367432 C 34.82148361206055 11.00000095367432 35.04458618164062 11.25574016571045 35.04458618164062 11.57009029388428 L 35.04458618164062 38.6540412902832 C 35.04458618164062 38.96837997436523 34.82148361206055 39.22412109375 34.5472526550293 39.22412109375 Z" stroke="none"/>
          <path d="M 2.483142852783203 12 L 2.483142852783203 38.22412109375 L 34.04458618164062 38.22412109375 L 34.04458618164062 12 L 2.483142852783203 12 M 1.980476379394531 10 L 34.54725646972656 10 C 35.37420272827148 10 36.04458618164062 10.70294952392578 36.04458618164062 11.5700798034668 L 36.04458618164062 38.6540412902832 C 36.04458618164062 39.52116012573242 35.37420272827148 40.22412109375 34.54725646972656 40.22412109375 L 1.980476379394531 40.22412109375 C 1.153526306152344 40.22412109375 0.4831428527832031 39.52116012573242 0.4831428527832031 38.6540412902832 L 0.4831428527832031 11.5700798034668 C 0.4831428527832031 10.70294952392578 1.153526306152344 10 1.980476379394531 10 Z" stroke="none" fill="#334051"/>
        </g>
        <text id="WELCOME" transform="translate(106.021 79.444)" fill="#334051" font-size="20" font-family="Avenir-Black, Avenir" font-weight="800"><tspan x="-52" y="0">WELCOME</tspan></text>
      </g>
    </g>
    <path id="Union_52" data-name="Union 52" d="M131.509,288.562a31.237,31.237,0,0,1-19.576-8.668C90.661,259.87,48.049,187.317,40.325,174.028c-9.008-10.67-21.641-25.689-23.837-28.588C13.013,140.851,8.094,135.755,4.3,127.1c-1.784-4-6.2-14.65-3.377-17.236,2.3-2.391,4.319,3.779,4.319,3.779s1.892,3.237,5.305,9.693a87.7,87.7,0,0,0,6.564,9.958c2.877,3.878.655-.418.655-.418L10.655,121.71S2.71,100.537,6.476,95.926s5.949,7.816,8.561,14.924c1.428,3.887,5.852,10.98,9.405,16.365,3.236,4.9,3.393,4.361.651-.872-3.609-6.888-7.726-15.387-9.039-20.724-2.408-9.775-1.124-16.881-.043-20.088s6.962-8.916,6.789,1.32c.016.439.041.888.056,1.055.814,10.9,6.955,25.216,11.016,33.616,2.372,4.906,2.732,3.691,1.232-1.193-2.179-7.095-4.728-15.523-5.333-18.09-1.05-4.44-2.847-21.626,1.887-26.762s8.457-1.853,7.31,3.04c-2.4,26.9,8.66,40.134,8.66,40.134l2.926,5.4c1.041-2.111,1.759-3.555,1.759-3.555s-.906-16.486,4.636-20.735,4.862,11.123,4.862,11.123L61.145,143.6l4.381,8.086c.067-.041.105-.059.112-.052,8.293,12.408,49.188,50.348,75.507,82.18.831-.637,1.323-.971,1.323-.971s60.56-67.6,73.395-74.053,31.8-5.111,31.8-5.111l13.316,64.194c-13.85,9.635-56.8,34.6-83.05,53.338C159.879,284.1,144.444,288.9,135.307,288.9A19.532,19.532,0,0,1,131.509,288.562ZM331.581,11.537S320.79.569,327.752.017s17.32,12.306,17.32,12.306,20.2,7.995,20.407,8.44L355.653,37.2Z" transform="translate(1329.074 506.164)" fill="#fff" stroke="#334051" stroke-width="2"/>
    <g id="Group_6890" data-name="Group 6890" transform="translate(1496.204 317.212) rotate(-13)">
      <rect id="Rectangle_242" data-name="Rectangle 242" width="252" height="192.094" rx="20" transform="matrix(0, -1, 1, 0, 0, 252.001)" fill="#d6e4f5"/>
      <g id="Mask_Group_5" data-name="Mask Group 5" transform="matrix(0, -1, 1, 0, 0.186, 252.182)" clip-path="url(#clip-path-2)">
        <path id="Path_5263" data-name="Path 5263" d="M251.789,180.446c-28.233-.1-109.4-11.588-129.222-99.039S30.508.093,30.508.093H0V195.6H251.789Z" transform="translate(0 -3.692)" fill="rgba(192,210,232,0.63)"/>
      </g>
      <text id="INVOICE" transform="translate(88.514 51.868)" fill="#334051" font-size="20" font-family="Avenir-Black, Avenir" font-weight="800" opacity="0.374"><tspan x="-42" y="0">INVOICE</tspan></text>
      <g id="eeeee-12" data-name="eeeee" transform="translate(26.706 77.396)" fill="none">
        <path d="M5.613,0h125.83c3.1,0,5.613,3.6,5.613,8.033V146.6c0,4.436-2.513,8.033-5.613,8.033H5.613c-3.1,0-5.613-3.6-5.613-8.033V8.033C0,3.6,2.513,0,5.613,0Z" stroke="none"/>
        <path d="M 5.613250732421875 2 C 4.497146606445312 2 3.67449951171875 2.938751220703125 3.283462524414062 3.498321533203125 C 2.467819213867188 4.665557861328125 2 6.318283081054688 2 8.032699584960938 L 2 146.5971221923828 C 2 148.3115386962891 2.467819213867188 149.9642486572266 3.283462524414062 151.1315002441406 C 3.67449951171875 151.6910705566406 4.497146606445312 152.6298217773438 5.613250732421875 152.6298217773438 L 131.4435119628906 152.6298217773438 C 132.5596160888672 152.6298217773438 133.3822631835938 151.6910705566406 133.7733001708984 151.1315002441406 C 134.5889434814453 149.9642486572266 135.0567626953125 148.3115386962891 135.0567626953125 146.5971221923828 L 135.0567626953125 8.032699584960938 C 135.0567626953125 6.318283081054688 134.5889434814453 4.665557861328125 133.7733001708984 3.498321533203125 C 133.3822631835938 2.938751220703125 132.5596160888672 2 131.4435119628906 2 L 5.613250732421875 2 M 5.613250732421875 0 L 131.4435119628906 0 C 134.5436248779297 0 137.0567626953125 3.59637451171875 137.0567626953125 8.032699584960938 L 137.0567626953125 146.5971221923828 C 137.0567626953125 151.0334320068359 134.5436248779297 154.6298217773438 131.4435119628906 154.6298217773438 L 5.613250732421875 154.6298217773438 C 2.513137817382812 154.6298217773438 0 151.0334320068359 0 146.5971221923828 L 0 8.032699584960938 C 0 3.59637451171875 2.513137817382812 0 5.613250732421875 0 Z" stroke="none" fill="#9ca9ae"/>
      </g>
    </g>
    <path id="Union_35" data-name="Union 35" d="M20.688,235.4c-3.274-18.4,6.132-80.532,7.616-99.159,1.093-13.721,1.422-31.337,1.519-39.666L26.161,74.813,5.494,49.444s-10-11.693-3.017-11.758S18.9,51.17,18.9,51.17s1.455.7,3.574,1.72l-1.019-6.059S22.02,29.59,3.567,9.875c-3.917-3.15-3-8.032,3.889-6.9S23.512,18.76,25.418,22.9c1.1,2.394,4.285,10.606,6.936,17.538,1.825,4.772,2.856,5.508,1.7.181C32.088,31.5,28.115,16.445,22.043,7.352c-.092-.14-.348-.51-.606-.866C15-1.474,23.15-.6,25.975,1.266s8.212,6.671,12.333,15.856c2.251,5.014,4.24,14.247,5.636,21.9,1.061,5.811,1.52,6.143,1.05.287-.516-6.432-1.4-14.745-2.664-18.687-2.318-7.208-8.248-18.347-2.441-17.03S52.469,26.477,52.469,26.477L53.744,39.65s.894,4.753.774-.074a87.64,87.64,0,0,0-.958-11.889c-1.286-7.188-1.788-10.9-1.788-10.9s-2.205-6.107,1.077-5.636c3.814.3,6.894,11.413,7.949,15.661,2.337,9.16,1.6,16.205,1.685,21.96.073,4.889-1.233,38.652-1.628,48.724C64.3,124.659,68,177.353,76.077,227.917c.145.241,7.509,29.193-27.789,37.312a28.827,28.827,0,0,1-3.469.218C29.917,265.448,23.734,252.526,20.688,235.4Z" transform="matrix(0.998, -0.07, 0.07, 0.998, 1652.087, 472.962)" fill="#fff" stroke="#334051" stroke-width="2"/>
    <path id="Union_43" data-name="Union 43" d="M14.407,310.494V271.4L0,192.816l43.438-33.84L34.6,97.413h33.93a30.928,30.928,0,0,0,.308,14.654,17.792,17.792,0,0,1,.685-2.34V85.065C60.36,78.9,57.214,68.558,56.991,60.166c-.345-12.987,0-43.784,0-43.784S54.881.153,87.081,0s31.551,16.381,31.551,16.381V60.166a43.221,43.221,0,0,1-1.9,8.885c1.209,6.8,4.192,23.846,5.651,34.659a30.854,30.854,0,0,0,.544-6.3h36.392s54.457,2.334,44.976,47.382c-.123.585-.247,1.165-.426,1.994-6.246,21.11-10.264,47.765-10.264,47.765L177.85,271.4v39.093Z" transform="translate(1541.825 562.59)" fill="#fff" stroke="#334051" stroke-width="2"/>
    <path id="Union_60" data-name="Union 60" d="M39.782.295H74.43S76.891,16.369,101.062,16.6,126.927.295,126.927.295h36.936s54.03,1.371,44.549,46.419c-.123.586.18,2.128,0,2.958-4.639,21.056-10.264,47.765-10.264,47.765l-15.754,76.847,4.152,53.483H15.3l3.649-53.483L4.545,95.7S-3.433,27.215,1.751,12.13,39.782.295,39.782.295Z" transform="translate(1537.28 659.708)" fill="#334051"/>
    <path id="Path_5348" data-name="Path 5348" d="M83.777,16.815c17.571,4.773,5.967,36.427,3.492,47.541-1.4,5.328-6.911,27.89-8.8,28.346-4.363,1.052-12.556,6.981-30.576-.738a9.952,9.952,0,0,1-1.492-.616c-.468-10.884-9.718-16.4-13.532-23.39-2.914-5.341.991-16.356-2.168-18.676a14.222,14.222,0,0,0-1.489-.943c-6.912-3.8-11.04-1.984-20.676-9.3S-6.852,8.42,15.343,0C21.427,11.611,40,8.943,45.373,9c14.268-.786,29.834-5.2,36.271,7.935C81.9,17.037,83.248,16.605,83.777,16.815Z" transform="matrix(0.998, -0.07, 0.07, 0.998, 1578.404, 549.678)" fill="#334051"/>
    <path id="Path_1" data-name="Path 1" d="M329.845,691.663H1280.1" transform="translate(605.427 248.603)" fill="none" stroke="#334051" stroke-linecap="round" stroke-width="2"/>
    <path id="Union_61" data-name="Union 61" d="M94.29,64.31c-10.83,7.534-32.612,20.528-57.351,36.647-1.615-.718-25.2-30.71-36.938-48.12L1.059,51.7C18.981,32.507,41.852,8.907,49.177,5.226,62.012-1.223,80.974.115,80.974.115Z" transform="translate(1495.226 659.729)" fill="#334051"/>
    <g id="Group_6880" data-name="Group 6880" transform="translate(1177.378 773.49)">
      <g id="Group_6879" data-name="Group 6879" style="mix-blend-mode: normal;isolation: isolate">
        <path id="Path_5143" data-name="Path 5143" d="M0,33.96,155.49,0l41.482,54.981L28.859,95.562Z" fill="#5e91cd"/>
        <path id="Union_27" data-name="Union 27" d="M19.884,70.851,1.391,32.671,144.735.743,179.6,47.413,26.509,84.528ZM9.1,37.874,27.813,76.463,81.328,63.631l-.094-.214q-.046-.107-.091-.215t-.089-.215q-.044-.107-.086-.215-.144-.365-.273-.731t-.24-.73q-.111-.365-.2-.728t-.166-.724q-.073-.36-.126-.718t-.083-.711q-.031-.353-.038-.7t.009-.69q.017-.342.059-.678t.111-.664q.069-.328.165-.648t.222-.631q.106-.262.23-.513t.266-.49q.142-.24.3-.468t.332-.447q.174-.218.362-.426t.391-.406q.2-.2.418-.386t.443-.368q.227-.179.466-.349t.488-.332q.249-.162.508-.315t.526-.3q.267-.145.542-.283t.557-.267q.282-.13.57-.253t.581-.239l-.079-.118-.079-.118-.079-.118-.08-.118-.08-.117-.08-.117-.081-.117-.081-.117-.081-.117-.082-.117-.082-.117-.082-.117-.083-.116-.083-.116-.083-.116-.083-.116-.008-.011-.008-.011-.008-.011-.008-.011-.008-.011-.008-.011-.008-.011-.008-.011-.008-.011-.008-.011L86,46.587l-.008-.011-.008-.011-.008-.011-.008-.011-.008-.011-.057.016-.057.016-.056.016-.056.016-.057.016-.057.016-.057.016-.057.016-.057.015-.057.015-.057.015-.057.015-.058.015-.058.014-.058.014-.058.014-.061.015-.061.015-.061.014-.061.014-.061.014-.061.014-.061.014-.061.014L84.5,46.9l-.061.013-.062.013-.062.013-.062.013-.062.013-.062.012-.062.012L84,47l-.062.012-.063.012-.063.012-.062.011-.063.011-.063.011-.063.011-.063.011-.063.01-.063.01-.063.01-.063.01-.063.01-.064.01-.064.009L83,47.172l-.064.009-.064.009L82.8,47.2l-.064.009-.064.008-.064.008-.064.008-.065.008-.065.008-.064.008-.064.007-.065.007-.065.007-.065.007-.065.007-.02,0-.02,0-.021,0-.021,0-.021,0-.021,0-.021,0-.021,0-.021,0-.021,0-.021,0-.021,0h-.49l-.022,0-.021,0-.021,0-.021,0-.021,0-.021,0-.021,0-.021,0-.021,0-.021,0-.021,0-.021,0-.021,0-.021,0-.021,0-.021,0-.021-.005-.021-.005-.021-.006-.021-.006-.021-.006-.021-.007-.021-.007-.021-.007-.02-.007-.02-.008-.02-.008-.02-.008-.02-.009-.02-.009-.02-.009-.02-.009-.02-.01-.019-.01-.019-.01-.019-.01-.019-.011-.019-.011-.018-.011-.018-.011-.018-.012-.018-.012-.018-.012-.017-.012L80.385,47l-.017-.012-.017-.013-.017-.013-.016-.013L80.3,46.94l-.016-.013-.016-.013-.016-.014-.016-.014-.015-.014-.015-.014-.015-.014-.015-.014-.015-.014-.015-.014-.015-.015-.014-.015-.014-.015-.014-.015-.014-.015-.014-.015-.014-.015-.013-.015-.013-.015-.013-.015L80,46.636l-.013-.016-.013-.016-.013-.016-.013-.016-.013-.016-.012-.016-.012-.016L79.9,46.51l-.012-.016-.012-.016-.012-.016-.012-.016-.012-.016-.012-.016-.011-.016-.011-.016-.011-.016-.011-.016-.012-.016-.011-.016-.011-.016-.011-.016-.055-.081-.055-.081-.055-.081-.054-.081-.054-.081-.053-.081-.053-.081-.052-.081-.052-.081-.052-.082-.051-.082-.051-.082-.051-.082L79,45.149l-.05-.082-.049-.082L78.85,44.9l-.049-.082-.048-.082-.048-.082-.048-.082-.048-.082-.048-.082-.047-.082-.047-.082-.047-.082-.047-.082L78.326,44l-.046-.082-.046-.082-.046-.082-.046-.082-.046-.082-.046-.082L78,43.423l-.046-.082-.046-.082-.046-.082-.046-.082-.046-.082-.046-.082-.046-.082-.046-.082-.046-.082-.046-.082-.046-.082-.046-.082-.046-.082-.046-.082-.046-.082-.046-.082-.047-.082-.047-.082-.047-.082-.047-.081-.047-.081-.048-.081-.048-.081-.048-.081-.048-.081-.049-.081-.049-.081-.049-.081-.049-.081-.092-.148-.093-.147-.094-.147-.1-.147-.1-.147-.1-.147-.1-.146-.1-.146-.1-.146-.1-.146-.1-.146-.1-.146-.1-.145-.1-.145-.1-.145-.1-.145-.1-.145-.1-.145-.1-.145-.1-.145-.1-.145-.1-.145-.1-.145-.1-.145-.1-.144-.1-.144-.1-.144-.1-.144-.1-.144-.1-.144-.1-.144-.1-.145-.1-.145-.094-.145-.093-.145-.092-.145-.091-.145-.09-.145-.089-.145-.087-.145L72.66,35.1l-.085-.145-.083-.145-.082-.145-.08-.146-.078-.146-.077-.146-.075-.146-.072-.146-.071-.146-.069-.146-.067-.147-.064-.147L71.7,33.2l-.06-.147q-.029-.074-.058-.147t-.055-.148q-.027-.074-.053-.148t-.05-.148q-.025-.074-.048-.149t-.045-.149q-.022-.074-.042-.149t-.04-.149q-.019-.075-.037-.149-.023-.1-.043-.195t-.038-.194q-.017-.1-.032-.194t-.026-.193q-.012-.1-.021-.193t-.015-.192q-.006-.1-.01-.191t0-.19q0-.095,0-.19t.006-.189q0-.094.011-.188t.017-.187q.009-.093.022-.185t.027-.184q.015-.092.032-.183t.037-.182q.02-.091.042-.181t.047-.179q.025-.089.052-.178t.056-.176q.029-.088.061-.175t.066-.173q.034-.086.071-.172t.075-.17q.039-.084.08-.168t.085-.166q.043-.083.089-.164t.093-.162q.048-.081.1-.16t.1-.158q.052-.079.106-.156t.111-.154q.056-.076.115-.152t.119-.149q.061-.074.123-.147t.127-.145q.065-.072.131-.142t.135-.14q.069-.069.139-.137t.143-.134q.072-.066.147-.132t.151-.129l.154-.126.158-.123.162-.12.165-.117.169-.114.172-.111.176-.108.18-.1.183-.1.186-.1.19-.095.193-.092.2-.088.2-.085.2-.081.206-.077.209-.074.212-.07.215-.066.218-.062.221-.058.224-.054.107-.025.107-.024.108-.023.108-.022.109-.021.109-.02.11-.02.11-.019.11-.018.111-.017.111-.017.111-.016.111-.015.112-.015.112-.014.112-.013.113-.013.113-.012.113-.011.114-.011.114-.01.114-.01.114-.009.114-.008.115-.008.115-.007.115-.007.116-.006.116-.006.116-.005.116,0,.116,0,.117,0,.117,0,.117,0,.117,0,.117,0,.118,0h1.062l.118,0,.119,0,.119,0,.119,0,.119,0,.119,0,.119,0,.119,0,.119,0,.119,0,.119,0,.119,0,.119,0,.119,0,.119,0,.119,0,.119,0,.068,0,.068,0,.068,0,.068,0,.068,0,.068,0,.068,0,.068,0,.068,0,.068,0,.068,0,.068,0,.069,0,.069,0,.069,0,.068,0,.069,0,.069,0,.069,0,.069,0,.069,0,.069,0,.069.005.069.005.069.006.069.006.069.006.069.007.069.007.069.007.069.007.069.008.023,0,.023,0,.023,0,.023,0,.023,0,.023,0,.023,0,.023,0,.023,0,.023,0,.023,0,.023,0,.023,0,.023,0,.023,0,.023,0,.045.007.046.007.046.007.046.007.045.007.045.007.045.007.045.008.046.008.045.008.045.008.045.008.045.009.045.009.045.009.045.009.068.014.068.015.068.015.068.016.068.016.068.016.068.017.068.018.067.018.067.018.067.019.067.02.067.02.067.021.067.021.067.022.158.054.156.057.153.059.151.062.149.064.147.066.145.069.142.071.141.073.139.076.137.078.135.08.133.082.131.084.129.086.127.088.125.09.123.091.122.093.12.095.118.1.116.1.115.1.113.1.111.1.109.1.108.106.106.107.1.108.1.11.1.111.1.112.1.113.1.114.1.115.095.116.094.117.092.118.091.119.09.119.089.12.087.121.086.121.085.122.084.122.083.123.082.123.08.124.062.1.061.1.06.1.06.1.059.1.059.1.058.1.058.1.057.1.057.1.056.1.056.1.055.1.055.1.054.1.054.1.02.02.019.02.019.02.019.02.019.019.019.02.019.02.019.02.019.02.019.02.019.02.019.02.019.02.019.02.019.02.019.02.091.094.09.094.09.094.089.095.088.095.088.095.087.1.087.1.086.1.085.1.085.1.084.1.084.1.084.1.083.1.082.1.082.1.082.1.081.1.081.1.08.1.079.1.079.1.079.1.078.1.077.1.077.1.076.1.076.1.075.1.075.1.074.1.073.1.073.1.072.1.072.1.071.1.071.1.07.1.07.1.069.1.069.1.068.1.068.1.067.1.066.1.066.1.065.1.064.1.064.1.063.1.063.1.063.1.062.1.061.1.061.1.06.1.06.1.059.105.059.105.058.105.058.105.057.106.056.106.021.039.021.039.02.04.02.04.02.04.02.04.02.04.02.04.02.04.02.04.02.04.02.04.019.041.019.041.019.041.019.041.018.04.018.04.018.04.018.04.018.04.017.04.017.041.017.041.016.041.016.041.016.041.016.041.015.041.015.041.014.041.014.041.014.04.013.04.013.04.013.04.012.04.012.04.011.041.011.041.01.041.01.041.009.041.009.041.008.041.008.041.007.041q0,.02.006.041l.007.041.006.041.006.041.005.041,0,.041q0,.02,0,.041t0,.041q0,.02,0,.041t0,.041q0,.02,0,.041t0,.041q0,.02,0,.041t0,.041q0,.02,0,.04t0,.04q0,.02,0,.04,0,.049-.008.1t-.012.1q-.007.048-.015.095t-.019.093q-.011.047-.023.092t-.026.091q-.014.045-.03.09t-.034.089q-.017.044-.037.088t-.04.087q-.021.043-.043.086t-.047.085q-.024.042-.05.083l-.053.082-.056.081-.059.08-.061.078-.064.078-.067.076-.069.075-.072.074-.075.073-.077.072-.08.071-.082.07-.084.069-.087.068-.089.066-.091.065-.094.064-.1.063-.1.062-.1.061-.1.059-.1.058-.106.057-.107.056-.109.055-.11.054-.112.053-.113.051-.115.05-.116.049-.117.048-.119.047-.12.046-.121.045-.122.044-.123.041-.124.04-.125.039-.126.038-.127.037-.128.036-.128.035L97.25,42l-.129.033-.13.031-.13.03-.131.029-.131.027-.131.026-.131.025-.131.024q.012.056.026.112t.029.112q.015.056.031.112t.034.112q.017.056.036.111t.038.111q.02.055.041.111t.043.11l.045.11.047.11.049.11.051.109.053.109.055.109.056.108.058.108.061.108.062.108.063.108.065.108.066.108.067.108.068.108.069.108.07.108.071.108.072.108.073.108.073.108.074.107.074.107L98,45.71l.017.024.017.024.017.024.017.024.017.024.017.024.017.024.017.024.017.024.017.024.017.024.017.024.017.024.017.024.017.024.017.024.228-.023.229-.022.229-.021.23-.02.23-.019.231-.018.231-.017.231-.016.232-.015.232-.014.233-.013.233-.012.234-.011.234-.01.234-.009.234-.008.39-.011.392-.008.394,0h.4l.4.006q.2,0,.4.012t.4.018q.2.011.4.025t.4.033q.2.018.4.041t.405.05q.2.027.406.059t.408.069q.2.037.408.079t.409.09q.2.048.41.1.3.079.6.17t.594.194q.3.1.589.216t.584.238q.291.124.578.259t.571.278q.284.144.564.3t.557.314q.277.161.549.33t.54.345q.268.176.531.359t.522.372q.258.189.512.384t.5.394q.248.2.49.4t.478.412q.236.208.466.419t.456.426q.226.215.447.433t.438.439q.15.153.3.307t.3.31l.292.312.289.315,13.608-3.263-.074.122,37.163-8.912L145.206,7.056,105.015,16.5l.064.031.064.031.064.031.064.031.064.031.064.032.064.032.064.032.064.032.064.032.064.032.063.032.063.032.063.033.063.033.063.033.148.077.148.078.147.078.147.079.146.08.146.08.145.081.145.081.144.082.144.082.143.083.143.084.142.084.141.085.141.085.141.086.194.12.193.121.192.122.191.123.19.124.189.125.188.126.187.127.186.128.186.129.185.13.184.13.182.131.181.132.181.133.18.134.179.135.178.135.177.136.176.137.175.138.174.138.173.139.173.14.171.141.171.141.17.142.169.143.168.144.167.144.166.145.165.146.165.146.164.147.163.148.162.148.161.149.16.149.16.15.159.15.158.151.157.151.156.152.155.153.155.153.154.154.153.154.152.155.152.155.151.156.15.156.149.156.149.157.148.157.147.158.146.158.146.158.145.159.144.159.144.16.143.16.142.16.141.16.141.161.061.07.061.07.061.07.06.07.06.07.06.071.06.071.06.071.059.071.059.071.059.071.059.072.058.072.058.072.058.072.057.072.057.072.056.072.056.072.055.073.055.073.054.073.054.073.053.073.053.073.052.073.051.074.051.074.05.074.049.074.049.074.048.074.047.074.046.074.045.074.044.075.044.075.043.075.042.075.041.075.04.075.039.075.038.075.037.075.036.075.035.075.034.075.033.076.032.076.03.076.029.076.028.076.027.076.026.076.025.076.023.076.022.076.021.076.019.076q.009.038.018.076t.017.076q.008.038.015.076t.014.076q.006.038.012.076-.086-.123-.175-.244t-.178-.243q-.09-.121-.182-.241t-.186-.239q-.094-.119-.189-.237t-.193-.236l-.2-.234-.2-.232-.2-.231-.206-.229-.21-.228-.213-.226-.216-.224-.219-.223-.222-.221-.225-.219-.227-.218-.23-.217-.233-.215-.235-.214-.238-.212-.24-.211-.243-.209-.245-.208-.248-.207-.25-.205-.252-.2-.254-.2-.256-.2-.258-.2-.26-.2-.262-.2-.264-.2-.266-.2-.267-.194-.269-.193-.27-.191-.272-.19-.273-.189-.275-.188-.276-.187-.277-.186-.278-.185-.279-.184-.281-.182-.282-.181-.282-.18-.284-.179-.284-.178-.285-.177-.286-.176-.286-.175-.287-.175-.287-.174-.288-.173-.288-.172-.288-.171-.289-.17-.289-.169-.289-.168-.289-.167-.289-.166-.289-.166-.289-.165-.133-.076-.133-.076-.133-.075-.133-.075-.133-.075-.134-.075-.134-.075-.134-.075-.134-.075-.135-.074-.135-.074-.135-.074-.135-.074-.136-.073-.136-.073-.136-.073-.12-.064-.12-.063-.12-.063-.12-.063-.121-.063-.121-.062-.121-.062L102.5,17.8l-.121-.061-.122-.061-.122-.06-.122-.06-.122-.059-.122-.059-.123-.059-.123-.058-1.17.275-7.876-1.98-33.037,7.4-3.558,4.33-.517.116-.019.069-.018.069-.017.069-.017.069-.016.07-.016.07-.016.07-.015.07-.014.07-.014.07-.014.071-.013.071-.013.071-.013.071-.012.071-.012.071q-.009.056-.017.112t-.016.112q-.008.056-.016.113t-.015.113q-.007.057-.014.113t-.013.113q-.006.057-.012.114t-.011.114Q55,29.542,55,29.6t-.01.114q0,.057-.009.115t-.008.115q0,.057-.007.115t-.007.115q0,.058-.006.115t-.006.115q0,.058-.005.115t0,.116q0,.058,0,.116t0,.116q0,.058,0,.116t0,.116q0,.058,0,.116t0,.116q0,.058,0,.116t0,.116q0,.058,0,.116t0,.116q0,.058,0,.116t0,.116q0,.058,0,.116t0,.116q0,.126,0,.253t0,.254q0,.127,0,.254t0,.255q0,.128.006.256t.007.256q0,.128.008.257t.01.257q0,.129.01.258t.012.258q.006.129.014.259t.015.259q.008.13.016.26t.018.26q.01.13.02.26t.022.26q.011.131.023.261t.025.261q.013.131.027.261t.029.262q.015.131.031.262t.033.262q.017.131.035.262t.038.263q.019.131.04.263T55.41,39q.022.131.045.263t.047.263q.024.132.049.263t.052.263q.027.132.055.263t.058.263q.03.131.06.263t.063.263q.032.131.066.263t.069.263q.035.131.072.263t.075.262q.038.131.078.262t.082.262q.041.131.085.262t.088.262q.045.131.092.261t.1.261q.048.13.1.261t.1.26q.052.13.106.26t.11.26q.056.13.113.259t.117.259q.06.129.121.258t.126.258q.064.129.129.257t.133.257q.068.128.138.256t.142.256q.072.128.146.255t.15.254q.076.127.155.254t.159.253q.081.126.164.252t.169.252q.085.126.173.251t.178.25l-.085-.056-.084-.057-.083-.058-.082-.059-.081-.059-.08-.06-.079-.06-.078-.061-.077-.062-.076-.062-.075-.063-.074-.064-.073-.064-.072-.065-.071-.065-.07-.066-.07-.066L58,47.725l-.068-.068-.067-.068-.067-.068-.066-.069-.065-.069-.064-.07-.063-.07-.063-.071-.062-.071-.061-.071-.06-.072-.06-.072-.059-.073-.058-.073-.058-.073L57,46.593l-.056-.074-.056-.074-.055-.075-.054-.075-.054-.075-.054-.075-.053-.076-.052-.076-.052-.076-.051-.076-.051-.076-.05-.076-.05-.077-.049-.077-.049-.077-.048-.077-.048-.077-.048-.077-.047-.077-.047-.077L55.93,45l-.046-.077-.046-.077-.045-.077-.045-.077-.044-.077-.044-.077-.044-.077-.044-.077-.043-.077-.1-.178-.1-.178-.1-.178-.1-.178-.1-.178-.1-.178-.094-.178-.093-.179-.092-.179-.091-.179-.09-.179-.089-.179-.088-.179-.087-.179-.086-.179-.085-.179-.084-.179-.083-.179-.081-.18-.08-.18-.079-.18-.078-.18-.077-.18-.075-.18-.074-.18-.073-.18-.072-.18-.07-.18-.069-.18-.068-.18-.066-.18-.065-.18-.064-.18-.062-.18-.061-.18-.059-.18-.058-.18-.056-.18-.055-.18-.054-.18-.052-.179-.05-.179q-.025-.09-.049-.179t-.047-.179q-.023-.09-.046-.179t-.044-.179q-.022-.09-.042-.179t-.041-.179q-.02-.089-.039-.179t-.038-.179q-.018-.089-.036-.179t-.034-.179q-.017-.089-.033-.179t-.031-.178q-.015-.089-.029-.178t-.027-.178q-.013-.089-.025-.178t-.024-.178q-.011-.089-.022-.178t-.02-.178q-.01-.089-.018-.178t-.016-.177q-.008-.089-.014-.177t-.013-.177q0-.064-.008-.127t-.007-.127q0-.064-.006-.127t0-.127q0-.063,0-.127t0-.127q0-.063,0-.126t0-.126q0-.063,0-.126t0-.126q0-.063,0-.126t0-.126q0-.063,0-.126t.006-.125q0-.063.007-.125t.008-.125q0-.062.01-.125t.01-.125q.005-.062.011-.124t.013-.124q.007-.062.014-.124t.015-.124q.008-.062.016-.123t.017-.123q.009-.061.018-.123t.019-.122q.01-.061.02-.122t.021-.122q.011-.061.023-.121t.024-.121l.025-.121.026-.121.009-.041.009-.041.009-.041.009-.041.01-.041.01-.041.01-.041.01-.041.01-.041.01-.041.01-.041.01-.041.011-.041.011-.041.011-.041.011-.041ZM37.517,64.459q-.1.008-.209.013t-.211.005q-.106,0-.213,0t-.215-.009q-.108-.006-.216-.016t-.218-.023q-.11-.013-.22-.03t-.221-.037q-.111-.02-.223-.044t-.224-.051q-.112-.027-.225-.058t-.226-.064q-.113-.034-.227-.07t-.228-.077q-.114-.04-.229-.083t-.229-.09l-.229-.1-.23-.1q-.115-.052-.23-.108t-.23-.114l-.23-.12-.23-.126-.23-.131-.23-.137-.229-.143-.229-.148-.228-.153q-.114-.078-.227-.159L31,62.121l-.225-.169-.224-.174-.223-.179q-.111-.091-.222-.184t-.22-.189q-.11-.1-.219-.194t-.217-.2q-.108-.1-.216-.2t-.214-.207q-.106-.1-.212-.211T28.6,60q-.1-.109-.207-.22t-.205-.224q-.1-.113-.2-.228t-.2-.232q-.1-.117-.2-.236t-.195-.24q-.1-.121-.192-.244t-.189-.248q-.094-.125-.186-.251t-.183-.254q-.091-.128-.18-.258T26.29,57.1q-.087-.132-.173-.265t-.17-.268q-.084-.135-.166-.271t-.162-.274q-.08-.138-.159-.277t-.155-.279q-.076-.14-.15-.282t-.146-.285q-.072-.143-.141-.286t-.135-.285q-.066-.142-.129-.284t-.123-.283q-.06-.141-.118-.282t-.112-.28q-.054-.14-.106-.279t-.1-.278q-.049-.138-.095-.276t-.089-.274q-.043-.137-.083-.272t-.077-.271q-.037-.135-.072-.269t-.066-.267q-.032-.133-.061-.264t-.055-.262q-.026-.131-.049-.26t-.044-.258q-.021-.128-.038-.255t-.033-.252q-.015-.126-.027-.25t-.022-.247q-.01-.123-.017-.244t-.011-.241q0-.12-.006-.238t0-.235q0-.117,0-.231t.01-.228q.006-.113.016-.225t.021-.221q.012-.11.026-.218t.032-.214q.017-.106.036-.21t.042-.206q.022-.1.047-.2t.052-.2q.027-.1.057-.194t.062-.19q.032-.094.067-.185t.072-.181q.038-.089.078-.176t.083-.172q.043-.085.088-.167t.093-.162q.047-.08.1-.157t.1-.152q.052-.075.107-.147t.112-.142q.057-.07.117-.137t.122-.131q.062-.064.127-.126T25,43.315q.067-.059.137-.115t.142-.109q.072-.053.147-.1t.152-.1q.077-.047.156-.092t.161-.086q.082-.041.166-.079t.17-.073q.086-.035.175-.067t.18-.06q.091-.028.185-.054t.19-.047q.085-.02.171-.036t.173-.03l.175-.025.177-.019.179-.014.18-.008.182,0,.183,0,.185.008.186.013.187.018.189.024.189.029.191.034.192.039.193.044.024.006.024.006.024.006.024.006.024.006.024.006.024.006.024.006.024.006.024.006.024.007.024.007.024.007.024.007.024.007.024.007.22.066.22.072.221.078.221.084.222.09.222.1.223.1.223.107.223.113.223.118.223.124.223.129.223.134.223.14.222.145.222.15.221.155.22.16.219.165.219.17.218.175.216.18.215.185.214.189.213.194q.106.1.211.2t.209.2q.1.1.208.207t.206.211q.1.107.2.216t.2.22q.1.111.2.224t.2.228q.1.115.2.232t.193.236q.1.119.19.24t.187.244q.093.123.185.248t.182.251q.09.127.179.255t.176.258q.087.13.173.262t.17.265q.084.134.166.269t.163.272q.081.137.159.275t.156.279q.077.14.152.282t.147.283q.072.141.141.283t.136.282q.067.141.13.281t.125.281q.061.14.119.28t.113.279q.055.139.107.278t.1.277q.05.138.1.276t.091.274q.044.137.085.273t.08.272q.038.135.074.27t.068.268q.033.134.063.266t.057.265q.027.132.052.262t.046.26q.022.13.041.258t.035.256q.016.127.029.253t.024.251q.011.125.018.248t.013.245q.005.122.007.242t0,.239q0,.119,0,.236t-.009.233q-.006.116-.015.229t-.02.226q-.012.112-.026.222t-.031.219q-.017.108-.036.215t-.042.211q-.022.1-.047.207t-.053.2q-.028.1-.058.2t-.064.194q-.033.1-.069.19t-.075.185q-.039.092-.08.181t-.085.176q-.044.087-.091.171t-.1.166q-.049.082-.1.161t-.107.156q-.055.077-.112.15t-.117.145q-.06.071-.123.14t-.128.134q-.065.065-.133.128t-.138.122q-.07.06-.144.116t-.149.11q-.076.054-.154.1t-.159.1q-.081.047-.164.091t-.17.085q-.086.041-.175.078t-.18.071q-.091.034-.185.064t-.19.057q-.1.027-.195.05H38.32q-.1.023-.2.042t-.2.035q-.1.015-.2.027T37.517,64.459ZM146.232,37.226q-.457-.125-.928-.3t-.951-.389q-.48-.216-.966-.476t-.973-.557q-.487-.3-.972-.634t-.965-.707q-.479-.37-.949-.774t-.926-.836q-.456-.433-.9-.894t-.859-.947q-.419-.485-.815-.994t-.763-1.038q-.367-.528-.688-1.051t-.6-1.033q-.274-.511-.5-1.01t-.411-.981q-.183-.482-.32-.946t-.229-.906q-.092-.442-.138-.861a7.6,7.6,0,0,1-.048-.81,6.129,6.129,0,0,1,.042-.754,4.964,4.964,0,0,1,.132-.692,4.1,4.1,0,0,1,.221-.625,3.518,3.518,0,0,1,.31-.553,3.194,3.194,0,0,1,.888-.867,3.491,3.491,0,0,1,.578-.3,4.109,4.109,0,0,1,.667-.209,5.008,5.008,0,0,1,.739-.107,6.151,6.151,0,0,1,.788,0,7.638,7.638,0,0,1,.831.094q.425.071.867.189t.9.279q.455.162.92.366t.936.449q.471.245.946.528t.949.6q.474.32.945.674t.935.742q.464.387.918.806t.894.866q.44.448.863.922t.825.975q.4.5.78,1.024t.71,1.044q.333.52.622,1.033t.532,1.016q.244.5.442.994t.351.965q.153.474.26.929t.168.888a8.038,8.038,0,0,1,.075.839,6.511,6.511,0,0,1-.019.785,5.232,5.232,0,0,1-.113.724,4.257,4.257,0,0,1-.207.657,3.6,3.6,0,0,1-.3.583,3.246,3.246,0,0,1-.4.5,3.19,3.19,0,0,1-.492.416,3.452,3.452,0,0,1-.588.322,4.067,4.067,0,0,1-.684.223,4.975,4.975,0,0,1-.761.115,6.153,6.153,0,0,1-.814,0,7.689,7.689,0,0,1-.86-.1Q146.69,37.352,146.232,37.226Z" transform="translate(7.914 4.783)" fill="none" stroke="#334051" stroke-width="2"/>
      </g>
    </g>
  </g>
</svg>
