<svg id="Group_6779" data-name="Group 6779" xmlns="http://www.w3.org/2000/svg" width="109.289" height="50.327" viewBox="0 0 109.289 50.327">
  <path id="Path_5146" data-name="Path 5146" d="M9.593,64.474c1.173-2.083,2.9-8.358,2.9-8.358l2.641,4.629.417,22.984S4.218,93.572,2.526,98.438a8.546,8.546,0,0,0,1.065,8.111S18.346,91.566,29.6,83.227c1.91-1.416,2.334-4.687,3.756-8.74,2.18-.977,5.235-2.81,5.235-7.163,3.543-3.047,2.844-6.525,2.674-12.713-.119-4.327-.37-20.855-.175-27.175C41.289,20.864,42.51,12.106,43,.143L21.016,0c.656,9.46-.673,24.808-.763,25.981-.187,2.4-7.423,9.345-10.637,15.232S2.17,67.284,0,69.02c.86,1.842,1.595,4.474,6.124,1.3C8.243,68.834,7.672,67.885,9.593,64.474Z" transform="matrix(-0.07, -0.998, 0.998, -0.07, 2.999, 50.327)" fill="#c4dfff"/>
  <path id="Path_14" data-name="Path 14" d="M8.006,0S2.872,4.985.883,8.3s0,7.755,0,7.755L13.523,4.11Z" transform="matrix(-0.07, -0.998, 0.998, -0.07, 83.962, 39.632)" fill="#a4c8f2"/>
  <path id="Path_15" data-name="Path 15" d="M13.153,60.745l.417,22.984S2.242,93.572.549,98.438a8.546,8.546,0,0,0,1.065,8.111S16.369,91.566,27.62,83.227c1.91-1.416,2.334-4.687,3.756-8.74,2.18-.977,5.236-2.81,5.235-7.163,3.543-3.047,2.844-6.525,2.674-12.713-.119-4.327-.37-20.855-.175-27.175.2-6.574,1.423-15.331,1.911-27.295L19.04,0c.656,9.46-.671,23.318-.76,24.491C18.092,26.891,8.3,50.857,13.153,60.745Z" transform="matrix(-0.07, -0.998, 0.998, -0.07, 2.862, 48.374)" fill="#c4dffe"/>
  <path id="Path_16" data-name="Path 16" d="M18.743,11.087c2.444-.387,4.878-.781,7.287-1.3L22.4,3.037S11.6.7,7.422.084C2.105-.7,0,4.235,0,4.235S7.481,7.117,8.984,7.5C9.9,7.731,15.858,9.943,18.743,11.087Z" transform="matrix(-0.07, -0.998, 0.998, -0.07, 64.388, 42.478)" fill="#c4dffe"/>
  <path id="Path_17" data-name="Path 17" d="M11.579,8.847c3.624,1.828,10.6,5.236,13.593,3.14C26.54,11.03,31.961,3.345,34.145.206c-3.53.729-7.11,1.225-10.695,1.836L21.328,3.914A80.615,80.615,0,0,0,7.984.138C1.5-.88,0,4.07,0,4.07S7.957,7.019,11.579,8.847Z" transform="matrix(-0.07, -0.998, 0.998, -0.07, 76.531, 49.241)" fill="#c4dffe"/>
  <path id="Path_18" data-name="Path 18" d="M.842,32.612,11.81,34.934a9.815,9.815,0,0,0,.89-10.212C12.016,23.26,7.208,12.877,6.863,9.241,6.45,4.9,10.042,0,10.042,0S4.367,4.64,4.627,9.327,8.3,26.794,8.3,26.794L0,28.862Z" transform="matrix(-0.07, -0.998, 0.998, -0.07, 31.829, 34.143)" fill="#a4c8f2"/>
  <path id="Path_19" data-name="Path 19" d="M0,0,8.1,2.737.117,6.421Z" transform="matrix(-0.07, -0.998, 0.998, -0.07, 71.938, 30.188)" fill="#a4c8f2"/>
  <path id="Path_20" data-name="Path 20" d="M0,2.039C.585.378,1.622-.21,3.664.065A23.712,23.712,0,0,1,7.834,1.116,10.021,10.021,0,0,1,6.761,4.593C4.6,3.654.729,2.39,0,2.039Z" transform="matrix(-0.07, -0.998, 0.998, -0.07, 66.607, 42.321)" fill="#85b1e5"/>
  <path id="Path_21" data-name="Path 21" d="M0,2.039C.585.377,1.622-.21,3.664.065a23.686,23.686,0,0,1,4.17,1.051A10.013,10.013,0,0,1,6.761,4.593C4.6,3.655.729,2.39,0,2.039Z" transform="matrix(-0.07, -0.998, 0.998, -0.07, 78.611, 49.094)" fill="#85b1e5"/>
  <path id="Path_22" data-name="Path 22" d="M0,2.523a14.584,14.584,0,0,0,5.253.746C7.836,3.063,12.346,0,12.346,0S10.288,3.722,7.227,4.389A8.546,8.546,0,0,1,0,2.523Z" transform="matrix(-0.07, -0.998, 0.998, -0.07, 84.225, 31.323)" fill="#a4c8f2"/>
  <path id="Path_23" data-name="Path 23" d="M9.7,1.321A54.078,54.078,0,0,0,2.823,1.4,4.852,4.852,0,0,1,0,1.049,9.608,9.608,0,0,1,3.094.084,10.065,10.065,0,0,1,9.7,1.321Z" transform="matrix(-0.07, -0.998, 0.998, -0.07, 24.932, 22.103)" fill="#a4c8f2"/>
  <path id="Path_24" data-name="Path 24" d="M.886,7.729C-.29,6.42-.31,5.228.912,3.569A33.184,33.184,0,0,1,4.158,0,7.931,7.931,0,0,1,6.371,2.331,52.18,52.18,0,0,1,.886,7.729Z" transform="matrix(-0.07, -0.998, 0.998, -0.07, 101.39, 40.752)" fill="#85b1e5"/>
</svg>
