<svg xmlns="http://www.w3.org/2000/svg" width="109.289" height="50.326" viewBox="0 0 109.289 50.326">
  <g id="Group_6779" data-name="Group 6779" transform="translate(0)">
    <path id="Path_5146" data-name="Path 5146" d="M9.593,42.075c1.173,2.083,2.9,8.358,2.9,8.358L15.13,45.8l.417-22.984S4.218,12.977,2.526,8.111A8.546,8.546,0,0,1,3.59,0S18.345,14.983,29.6,23.322c1.91,1.416,2.334,4.687,3.756,8.74,2.18.977,5.235,2.81,5.235,7.163,3.543,3.047,2.844,6.525,2.674,12.713-.119,4.327-.37,20.855-.175,27.175.2,6.574,1.423,15.331,1.911,27.295l-21.982.143c.656-9.46-.673-24.808-.763-25.981-.187-2.4-7.423-9.345-10.637-15.232S2.17,39.266,0,37.529c.86-1.842,1.595-4.474,6.124-1.3C8.242,37.716,7.671,38.665,9.593,42.075Z" transform="matrix(-0.07, 0.998, -0.998, -0.07, 109.289, 7.432)" fill="#c4dfff"/>
    <path id="Path_14" data-name="Path 14" d="M8.006,16.052S2.872,11.067.883,7.755.883,0,.883,0l12.64,11.942Z" transform="matrix(-0.07, 0.998, -0.998, -0.07, 99.975, 11.814)" fill="#a4c8f2"/>
    <path id="Path_15" data-name="Path 15" d="M13.153,45.8,13.57,22.82S2.242,12.977.549,8.111A8.546,8.546,0,0,1,1.614,0S16.369,14.983,27.62,23.322c1.91,1.416,2.334,4.687,3.756,8.74,2.18.977,5.235,2.81,5.235,7.163,3.543,3.047,2.844,6.525,2.674,12.713-.119,4.327-.37,20.855-.175,27.175.2,6.574,1.423,15.331,1.911,27.295l-21.982.143c.656-9.46-.671-23.318-.76-24.491C18.092,79.658,8.3,55.692,13.153,45.8Z" transform="matrix(-0.07, 0.998, -0.998, -0.07, 109.151, 9.385)" fill="#c4dffe"/>
    <path id="Path_16" data-name="Path 16" d="M18.743,0c2.444.387,4.878.781,7.286,1.3L22.4,8.05S11.6,10.39,7.422,11C2.105,11.782,0,6.852,0,6.852S7.481,3.97,8.984,3.587C9.9,3.355,15.858,1.144,18.743,0Z" transform="matrix(-0.07, 0.998, -0.998, -0.07, 75.447, 8.622)" fill="#c4dffe"/>
    <path id="Path_17" data-name="Path 17" d="M11.579,3.8C15.2,1.972,22.177-1.437,25.172.66c1.368.957,6.789,8.642,8.973,11.781-3.53-.729-7.11-1.225-10.695-1.836L21.328,8.733A80.614,80.614,0,0,1,7.984,12.509C1.5,13.527,0,8.577,0,8.577S7.957,5.628,11.579,3.8Z" transform="matrix(-0.07, 0.998, -0.998, -0.07, 89.147, 1.968)" fill="#c4dffe"/>
    <path id="Path_18" data-name="Path 18" d="M.842,2.323,11.81,0a9.815,9.815,0,0,1,.89,10.212c-.684,1.463-5.492,11.846-5.838,15.482-.412,4.341,3.179,9.241,3.179,9.241s-5.675-4.64-5.415-9.327S8.3,8.141,8.3,8.141L0,6.072Z" transform="matrix(-0.07, 0.998, -0.998, -0.07, 66.679, 18.62)" fill="#a4c8f2"/>
    <path id="Path_19" data-name="Path 19" d="M0,6.421,8.1,3.683.117,0Z" transform="matrix(-0.07, 0.998, -0.998, -0.07, 78.343, 20.586)" fill="#a4c8f2"/>
    <path id="Path_20" data-name="Path 20" d="M0,2.554C.585,4.215,1.622,4.8,3.664,4.528A23.711,23.711,0,0,0,7.834,3.477,10.021,10.021,0,0,0,6.761,0C4.6.939.729,2.2,0,2.554Z" transform="matrix(-0.07, 0.998, -0.998, -0.07, 71.189, 8.326)" fill="#85b1e5"/>
    <path id="Path_21" data-name="Path 21" d="M0,2.554C.585,4.216,1.622,4.8,3.664,4.528a23.685,23.685,0,0,0,4.17-1.051A10.013,10.013,0,0,0,6.761,0C4.6.939.729,2.2,0,2.554Z" transform="matrix(-0.07, 0.998, -0.998, -0.07, 83.193, 1.553)" fill="#85b1e5"/>
    <path id="Path_22" data-name="Path 22" d="M0,2.053a14.584,14.584,0,0,1,5.253-.746c2.582.206,7.093,3.269,7.093,3.269S10.287.854,7.227.188A8.546,8.546,0,0,0,0,2.053Z" transform="matrix(-0.07, 0.998, -0.998, -0.07, 88.79, 19.323)" fill="#a4c8f2"/>
    <path id="Path_23" data-name="Path 23" d="M9.7.161A54.077,54.077,0,0,1,2.823.08,4.852,4.852,0,0,0,0,.433,9.608,9.608,0,0,0,3.094,1.4,10.065,10.065,0,0,0,9.7.161Z" transform="matrix(-0.07, 0.998, -0.998, -0.07, 26.41, 28.327)" fill="#a4c8f2"/>
    <path id="Path_24" data-name="Path 24" d="M.886,0C-.29,1.309-.31,2.5.912,4.16A33.184,33.184,0,0,0,4.158,7.729,7.931,7.931,0,0,0,6.371,5.4,52.18,52.18,0,0,0,.886,0Z" transform="matrix(-0.07, 0.998, -0.998, -0.07, 109.1, 10.113)" fill="#85b1e5"/>
  </g>
</svg>
