<svg xmlns="http://www.w3.org/2000/svg" width="72" height="64" viewBox="0 0 72 64">
  <g id="V" transform="translate(-1112 -556)">
    <g id="Group_4732" data-name="Group 4732" transform="translate(1112 556)">
      <g id="Group_4731" data-name="Group 4731" transform="translate(0 0)">
        <path id="Rectangle_4" data-name="Rectangle 4" d="M20,0H72a0,0,0,0,1,0,0V44A20,20,0,0,1,52,64H0a0,0,0,0,1,0,0V20A20,20,0,0,1,20,0Z" fill="#58c4ba"/>
      </g>
    </g>
    <path id="Icon_awesome-arrow-right" data-name="Icon awesome-arrow-right" d="M10.2,4.255l1.189-1.22a1.258,1.258,0,0,1,1.816,0L23.622,13.713a1.338,1.338,0,0,1,0,1.863L13.209,26.26a1.258,1.258,0,0,1-1.816,0L10.2,25.04a1.345,1.345,0,0,1,.021-1.885l6.455-6.309H1.286A1.3,1.3,0,0,1,0,15.527V13.768a1.3,1.3,0,0,1,1.286-1.319H16.68L10.226,6.14A1.335,1.335,0,0,1,10.2,4.255Z" transform="translate(1136 573.352)" fill="#fff"/>
  </g>
</svg>
