<svg xmlns="http://www.w3.org/2000/svg" xmlns:xlink="http://www.w3.org/1999/xlink" width="248.943" height="142.263" viewBox="0 0 248.943 142.263">
  <defs>
    <linearGradient id="linear-gradient" x1="0.1" y1="-0.059" x2="1.07" y2="1.111" gradientUnits="objectBoundingBox">
      <stop offset="0" stop-color="#b2f5ef"/>
      <stop offset="1" stop-color="#82dbd3"/>
    </linearGradient>
    <linearGradient id="linear-gradient-2" x1="0.5" x2="0.5" y2="1" gradientUnits="objectBoundingBox">
      <stop offset="0" stop-color="#b7f8f2"/>
      <stop offset="1" stop-color="#5ac5bb"/>
    </linearGradient>
    <linearGradient id="linear-gradient-3" x1="0.5" x2="0.5" y2="1" gradientUnits="objectBoundingBox">
      <stop offset="0" stop-color="#d3f2ef"/>
      <stop offset="1" stop-color="#b7e6e3"/>
    </linearGradient>
    <linearGradient id="linear-gradient-4" x1="0.5" x2="0.5" y2="1" gradientUnits="objectBoundingBox">
      <stop offset="0" stop-color="#f7f7f7"/>
      <stop offset="1" stop-color="#c6c6c6"/>
    </linearGradient>
    <linearGradient id="linear-gradient-7" x1="0.5" x2="0.5" y2="1" gradientUnits="objectBoundingBox">
      <stop offset="0" stop-color="#8be0d8"/>
      <stop offset="1" stop-color="#62c1b9"/>
    </linearGradient>
  </defs>
  <g id="Group_6959" data-name="Group 6959" transform="translate(-1197.944 -1912.702)">
    <g id="Group_43" data-name="Group 43" transform="translate(1197.944 1912.702)">
      <path id="Union_19" data-name="Union 19" d="M5.275,16.485H2.809A2.809,2.809,0,0,1,0,13.677V0H183.657V16.485Z" transform="translate(4.616 101.557)" fill="#3fa89e" stroke="rgba(0,0,0,0)" stroke-width="1"/>
      <path id="Path_49" data-name="Path 49" d="M1384.239,1919.92c0-3.929-4.151-7.218-8.653-7.218H1206.013c-4.5,0-8.069,3.29-8.069,7.218v89.368c0,3.928,3.567,7.278,8.069,7.278h169.574c4.5,0,8.653-3.35,8.653-7.278Z" transform="translate(-1197.944 -1912.702)" fill="url(#linear-gradient)"/>
      <path id="Path_5072" data-name="Path 5072" d="M1333.016,1962.146c-35.823-11.785-53.748,16.7-92.068,0s-34.935-49.444-34.935-49.444c-4.5,0-8.069,3.29-8.069,7.218v89.368c0,3.928,3.567,7.278,8.069,7.278h169.574c4.5,0,8.653-3.35,8.653-7.278C1384.239,2009.288,1368.839,1973.932,1333.016,1962.146Z" transform="translate(-1197.944 -1912.702)" fill="url(#linear-gradient-2)"/>
      <path id="Path_51" data-name="Path 51" d="M2743.9,2238.182l-11.139-34.358a2.031,2.031,0,0,0-1.991-1.376,185.158,185.158,0,0,0-21.959-1.467,210.247,210.247,0,0,0-22.82,1.467v81.442h60.548Z" transform="translate(-2498.711 -2165.848)" fill="url(#linear-gradient-3)"/>
      <path id="Path_52" data-name="Path 52" d="M2829.169,2747.322a3.743,3.743,0,0,0-2.164-.591l-46.664.9-.207,13.259,46.623,1.145c1.709,0,3.188-.824,3.188-1.98v-11.232A1.667,1.667,0,0,0,2829.169,2747.322Z" transform="translate(-2581.002 -2641.76)" fill="#3fa89e"/>
      <g id="Group_35" data-name="Group 35" transform="translate(199.312 41.337)">
        <path id="Path_53" data-name="Path 53" d="M2818.741,2271.2l-6.733-26.708a2.2,2.2,0,0,0-2.029-1.692h-26.333a2.294,2.294,0,0,0-2.092,2.324l.632,21.384a2.107,2.107,0,0,0,1.757,2.018l32.435,5.247a2.087,2.087,0,0,0,2.362-2.572Z" transform="translate(-2781.555 -2242.589)" fill="#334051"/>
        <path id="Path_54" data-name="Path 54" d="M3051.786,2241.145l-.343.057a2.092,2.092,0,0,0-1.679,2.607l7.339,27.293a2.092,2.092,0,0,0,2.406,1.513l2.318-.435Z" transform="translate(-3015.945 -2241.145)" fill="#334051"/>
      </g>
      <rect id="Rectangle_8" data-name="Rectangle 8" width="8.124" height="3.199" rx="1.599" transform="matrix(0.985, 0.174, -0.174, 0.985, 200.795, 70.176)" fill="#334051"/>
      <g id="Group_37" data-name="Group 37" transform="translate(187.285 93.819)">
        <g id="Group_36" data-name="Group 36" transform="translate(0 0)">
          <circle id="Ellipse_7" data-name="Ellipse 7" cx="17.128" cy="17.128" r="17.128" transform="translate(0 24.222) rotate(-45)" fill="#334051"/>
        </g>
        <ellipse id="Ellipse_9" data-name="Ellipse 9" cx="7.57" cy="7.57" rx="7.57" ry="7.57" transform="translate(14.996 29.651) rotate(-75.473)" fill="url(#linear-gradient-4)"/>
      </g>
      <g id="Group_39" data-name="Group 39" transform="translate(46.762 93.819)">
        <g id="Group_38" data-name="Group 38" transform="translate(0 0)">
          <circle id="Ellipse_10" data-name="Ellipse 10" cx="17.128" cy="17.128" r="17.128" transform="translate(0 24.222) rotate(-45)" fill="#334051"/>
        </g>
        <ellipse id="Ellipse_12" data-name="Ellipse 12" cx="7.57" cy="7.57" rx="7.57" ry="7.57" transform="translate(14.703 29.121) rotate(-72.231)" fill="url(#linear-gradient-4)"/>
      </g>
      <g id="Group_41" data-name="Group 41" transform="translate(7.581 93.819)">
        <g id="Group_40" data-name="Group 40" transform="translate(0 0)">
          <circle id="Ellipse_13" data-name="Ellipse 13" cx="17.128" cy="17.128" r="17.128" transform="translate(0 24.222) rotate(-45)" fill="#334051"/>
        </g>
        <ellipse id="Ellipse_15" data-name="Ellipse 15" cx="7.57" cy="7.57" rx="7.57" ry="7.57" transform="translate(14.995 29.651) rotate(-75.473)" fill="url(#linear-gradient-4)"/>
      </g>
      <g id="Group_42" data-name="Group 42" transform="translate(238.392 89.818)">
        <path id="Union_18" data-name="Union 18" d="M4.287,11.515v.024H2.565C1.41,11.54,0,11.393,0,10.12V1.458C0,.248,1.41,0,2.565,0H4.287V.025A4.839,4.839,0,0,1,4.781,0,4.781,4.781,0,0,1,9.563,4.781V6.759a4.782,4.782,0,0,1-4.782,4.782A4.837,4.837,0,0,1,4.287,11.515Z" transform="translate(0)" stroke="rgba(0,0,0,0)" stroke-width="1" fill="url(#linear-gradient-7)"/>
      </g>
    </g>
  </g>
</svg>
