<svg xmlns="http://www.w3.org/2000/svg" xmlns:xlink="http://www.w3.org/1999/xlink" width="1920" height="519" viewBox="0 0 1920 519">
  <defs>
    <clipPath id="clip-path">
      <rect id="Rectangle_2" data-name="Rectangle 2" width="1920" height="518" transform="translate(-7774 -6243)" fill="#334051"/>
    </clipPath>
    <linearGradient id="linear-gradient" x1="1" y1="0.5" x2="0" y2="0.5" gradientUnits="objectBoundingBox">
      <stop offset="0" stop-color="#334051" stop-opacity="0"/>
      <stop offset="1" stop-color="#334051"/>
    </linearGradient>
  </defs>
  <g id="Group_7108" data-name="Group 7108" transform="translate(0 -10627)">
    <g id="Group_6981" data-name="Group 6981" transform="translate(0 165)">
      <rect id="Rectangle_2-2" data-name="Rectangle 2" width="1920" height="517" transform="translate(0 10463)" fill="#334051"/>
      <g id="Mask_Group_10" data-name="Mask Group 10" transform="translate(7774 16706)" opacity="0.563" clip-path="url(#clip-path)">
        <path id="Path_5401" data-name="Path 5401" d="M0,0S44.568,221.584,231.466,255.935s196.921,212.9,206.247,270.582,37,104.674,106.734,125.3c38.423,11.366,116.579,24.651,193.971-27.447,25.172-17.126,52.8-46.45,75.734-26.049,11.869,11.51,18.6,28.764,14.452,49.083-4.38,21.451-20.368,46.67-17.159,71.6,6.922,53.765,51.7,105.643,52.935,126.692" transform="translate(-7704.262 -6348.48) rotate(-5)" fill="none" stroke="#55606e" stroke-width="3"/>
        <path id="Path_5402" data-name="Path 5402" d="M747.484,0c-12.893,11.334-74,45.286-159.323,61.649-183.5,35.189-196.375,229.305-205.782,288.11S345.612,456.5,277.113,477.588c-37.743,11.621-114.473,25.236-190.161-27.8-24.617-17.434-51.592-47.3-74.178-26.484C1.079,435.049-2.4,451.132,1.579,471.842c18.144,53.768,4.077,91.43,1.33,100.3" transform="translate(-7276.65 -6310.423) rotate(77)" fill="none" stroke="#55606e" stroke-width="3"/>
        <path id="Path_5403" data-name="Path 5403" d="M0,0S20.638,159.506,167.056,191.984,356.578,302.01,367.874,317.021c7.568,10.059,30.565,62.67,75.584,107.177,21.392,21.148,52,41.408,81.746,52.121,90.132,32.461,141.953-42.009,125.1-110.469-7.6-34.317-80.74-149.753-159.565-49.7-11.374,14.584-16.012,34.88-43.941,28.387-44.462-6.452-46.376-101.446-71.913-177.922S313.861,75.677,308.746,26.944" transform="translate(-7646.665 -6347.744) rotate(-5)" fill="none" stroke="#55606e" stroke-width="3"/>
        <g id="Path_5404" data-name="Path 5404" transform="matrix(0.656, -0.755, 0.755, 0.656, -7135.336, -6007.441)" fill="none">
          <path d="M79.439.016C109.095.841,120.6,29.238,112.48,63.262s-36.2,45.951-58.156,48.277S.834,100.892.01,65.487,49.784-.808,79.439.016Z" stroke="none"/>
          <path d="M 78.26599884033203 3.000007629394531 C 69.62581634521484 3.000007629394531 58.97150421142578 5.753456115722656 48.26572418212891 10.75316619873047 C 42.866455078125 13.27468109130859 37.64470672607422 16.27376556396484 32.74554443359375 19.6671142578125 C 27.66165161132812 23.18838500976562 23.06513977050781 27.04015350341797 19.08368682861328 31.11540222167969 C 13.91448974609375 36.40634918212891 9.911178588867188 41.93616485595703 7.184921264648438 47.55120849609375 C 4.277473449707031 53.53949737548828 2.872528076171875 59.55042266845703 3.009124755859375 65.41700744628906 C 3.179763793945312 72.74527740478516 4.754486083984375 79.39753723144531 7.689544677734375 85.18898773193359 C 10.3209228515625 90.38124084472656 14.03775787353516 94.88317108154297 18.73677825927734 98.56971740722656 C 23.02523040771484 101.9341506958008 28.00814056396484 104.5400390625 33.54710388183594 106.3150253295898 C 38.62294006347656 107.9415893554688 44.05657958984375 108.8013305664062 49.26061248779297 108.8013305664062 C 50.87383270263672 108.8013305664062 52.47116088867188 108.7187652587891 54.00821685791016 108.5559310913086 C 59.72768783569336 107.9500427246094 65.29995727539062 106.7393646240234 70.57026672363281 104.9575500488281 C 76.56344604492188 102.9313354492188 82.04881286621094 100.1960983276367 86.87396240234375 96.82780456542969 C 98.43032836914062 88.76069641113281 106.0636520385742 77.23345947265625 109.5619430541992 62.56631469726562 C 114.2384490966797 42.95938873291016 112.1607971191406 25.51031494140625 103.861686706543 14.6932373046875 C 101.1094131469727 11.10593414306641 97.70245361328125 8.296989440917969 93.73543548583984 6.344444274902344 C 89.54927062988281 4.284042358398438 84.71134185791016 3.163841247558594 79.35603332519531 3.014968872070312 C 78.99370574951172 3.004898071289062 78.63716125488281 3.000007629394531 78.26599884033203 3.000007629394531 M 78.2659912109375 0 C 78.66218566894531 0 79.05024719238281 0.00531005859375 79.43939208984375 0.0161285400390625 C 109.0946350097656 0.8405303955078125 120.5952911376953 29.23820495605469 112.4800872802734 63.26233291625977 C 104.3649444580078 97.28638458251953 76.27670288085938 109.2137145996094 54.32424926757812 111.5392379760742 C 52.68558502197266 111.7128372192383 50.98934173583984 111.8013305664062 49.2606201171875 111.8013305664062 C 27.83043670654297 111.8013305664062 0.7728042602539062 98.24932098388672 0.00994110107421875 65.48683929443359 C -0.8036422729492188 30.54611968994141 48.46971893310547 0 78.2659912109375 0 Z" stroke="none" fill="#55606e"/>
        </g>
        <g id="Path_5405" data-name="Path 5405" transform="translate(-7813.204 -5772.298) rotate(-32)" fill="none">
          <path d="M79.3.134C109.908,2.425,122.921,30.6,115.94,63.264S89.11,113.653,66.572,114.81,2.366,94.229.075,59.776,48.693-2.158,79.3.134Z" stroke="none"/>
          <path d="M 75.62510681152344 3 C 66.17790985107422 3 54.97394561767578 5.638984680175781 44.07712554931641 10.43080139160156 C 38.56305694580078 12.85559844970703 33.33088684082031 15.73940277099609 28.52596282958984 19.00209045410156 C 23.52663421630859 22.39682006835938 19.12434387207031 26.11380004882812 15.44139862060547 30.0498046875 C 11.20243835449219 34.58001708984375 7.991073608398438 39.3228759765625 5.896530151367188 44.14659881591797 C 3.678543090820312 49.25460052490234 2.726943969726562 54.44602203369141 3.068130493164062 59.57663726806641 C 3.560966491699219 66.98751068115234 6.037834167480469 74.16523742675781 10.42994689941406 80.91043853759766 C 12.44790649414062 84.00956726074219 14.87874603271484 87.02129364013672 17.65489196777344 89.86202239990234 C 20.29298400878906 92.56145477294922 23.26206970214844 95.12715148925781 26.47969055175781 97.48783874511719 C 32.51263427734375 101.9140777587891 39.39833068847656 105.6015090942383 46.39234161376953 108.1514892578125 C 53.03605651855469 110.5737457275391 59.40738296508789 111.8540954589844 64.81755065917969 111.8540954589844 C 65.3616943359375 111.8540954589844 65.90029144287109 111.8405990600586 66.41838073730469 111.8140029907227 C 77.09085083007812 111.2659683227539 86.96292877197266 106.7418212890625 94.96738433837891 98.73065948486328 C 99.14918518066406 94.54533386230469 102.7859649658203 89.44556427001953 105.7766876220703 83.572998046875 C 108.925910949707 77.38927459716797 111.3581466674805 70.34539794921875 113.0058746337891 62.63709259033203 C 113.9676208496094 58.13794708251953 114.5449447631836 53.67360305786133 114.7218017578125 49.36805725097656 C 114.8962326049805 45.12189483642578 114.6825637817383 40.99947357177734 114.0867462158203 37.11532592773438 C 113.4946899414062 33.25578308105469 112.5211639404297 29.60492706298828 111.1931838989258 26.26416778564453 C 109.8627471923828 22.917236328125 108.1652374267578 19.85414886474609 106.1477966308594 17.15998077392578 C 103.1148223876953 13.109619140625 99.34736633300781 9.865913391113281 94.95011138916016 7.518928527832031 C 90.31483459472656 5.044929504394531 84.97421264648438 3.566658020019531 79.07661437988281 3.125198364257812 C 77.966796875 3.042129516601562 76.8055419921875 3 75.62510681152344 3 M 75.62510681152344 0 C 76.88033294677734 0 78.10305786132812 0.0439300537109375 79.30054473876953 0.1335678100585938 C 109.9082946777344 2.424728393554688 122.921272277832 30.60300445556641 115.9395980834961 63.26420211791992 C 108.9579620361328 95.92542266845703 89.11032867431641 113.6527328491211 66.57223510742188 114.81005859375 C 44.03424835205078 115.967399597168 2.36590576171875 94.228515625 0.07474517822265625 59.77571105957031 C -2.126762390136719 26.67084503173828 44.79651641845703 0 75.62510681152344 0 Z" stroke="none" fill="#55606e"/>
        </g>
        <g id="Path_5406" data-name="Path 5406" transform="matrix(0.574, 0.819, -0.819, 0.574, -7378.148, -6096.102)" fill="none">
          <path d="M79.041,2.768c29.315-6.6,59.687-2.075,50.124,21.021-4.676,11.294-3.98,33.454-57.746,50.059C14.16,92.512-.785,67.355.031,55.416,1.629,32.053,49.726,9.372,79.041,2.768Z" stroke="none"/>
          <path d="M 102.3645095825195 3.000007629394531 C 95.36343383789062 3.000007629394531 87.52621459960938 3.931884765625 79.7000732421875 5.694923400878906 C 72.34371185302734 7.352127075195312 64.02912902832031 9.976821899414062 55.65521240234375 13.28524780273438 C 46.70309448242188 16.82210540771484 38.06387329101562 21.00730895996094 30.67149353027344 25.38836669921875 C 22.41078948974609 30.28402709960938 15.83019256591797 35.30732727050781 11.11248779296875 40.31868362426758 C 6.073928833007812 45.6708869934082 3.352676391601562 50.81930541992188 3.024276733398438 55.62096405029297 C 2.807037353515625 58.79754638671875 4.043685913085938 63.76456451416016 8.166107177734375 68.17854309082031 C 12.14771270751953 72.44174194335938 20.10176849365234 77.523681640625 35.38393402099609 77.523681640625 C 45.38995361328125 77.523681640625 57.20107269287109 75.32748413085938 70.48921203613281 70.99608612060547 L 70.53365325927734 70.98198699951172 C 81.23336791992188 67.6773681640625 90.41448974609375 63.92582702636719 97.82200622558594 59.83154296875 C 104.1191864013672 56.35096740722656 109.3327484130859 52.50884628295898 113.3178863525391 48.41192626953125 C 116.52294921875 45.11696624755859 119.0178909301758 41.60204696655273 120.9452896118164 37.66628646850586 C 122.6332702636719 34.21942520141602 123.6550903320312 30.92204666137695 124.5566482543945 28.0128059387207 C 125.1500549316406 26.09794616699219 125.7105484008789 24.28926849365234 126.3929748535156 22.64116668701172 C 127.4887313842773 19.99492645263672 128.0146484375 17.58772277832031 127.9561309814453 15.48642730712891 C 127.9046478271484 13.63850402832031 127.4160079956055 12.04642486572266 126.4622344970703 10.61918640136719 C 124.8546905517578 8.213623046875 121.9401931762695 6.325721740722656 117.7997131347656 5.007942199707031 C 113.6133728027344 3.675582885742188 108.4202117919922 3.000007629394531 102.3645095825195 3.000007629394531 M 102.3645172119141 0 C 121.9229202270508 0 136.1283416748047 6.971855163574219 129.1647491455078 23.78890228271484 C 124.4882888793945 35.08262634277344 125.1845550537109 57.24284362792969 71.41895294189453 73.848388671875 C 56.79676818847656 78.6146240234375 44.92946624755859 80.523681640625 35.38393402099609 80.523681640625 C 7.550399780273438 80.523681640625 -0.5767364501953125 64.30610656738281 0.0312652587890625 55.41626739501953 C 1.629104614257812 32.05302429199219 49.72550964355469 9.372245788574219 79.040771484375 2.768264770507812 C 87.01014709472656 0.9729690551757812 95.0625 0 102.3645172119141 0 Z" stroke="none" fill="#55606e"/>
        </g>
        <g id="Path_5407" data-name="Path 5407" transform="translate(-7751.528 -5626.155) rotate(-112)" fill="none">
          <path d="M456.238,99.739c19.958-1.672,43.6-2.335,35.981,16.309s2.471,60.088-21.2,68.418c-32.535,7.453-36.967-22.184-78-36.225s-88.134-20.032-124.762-15.989c-61.16,7.418-140.878,58.312-214.1,30.319-18.911-7.24-42.665-23.991-50.546-45.162C-10.478,79.59,21.2,25.389,21.407,18,23.165-51.09,440.211,101.082,456.238,99.739Z" stroke="none"/>
          <path d="M 461.3084716796875 182.6486663818359 C 464.0908203125 182.6486053466797 466.9952392578125 182.2987213134766 470.1818542480469 181.5794372558594 C 473.2629089355469 180.46533203125 475.7504272460938 178.6791687011719 477.7825927734375 176.1228637695312 C 479.6894836425781 173.7242584228516 481.1727294921875 170.6847991943359 482.3172607421875 166.8308715820312 C 484.5401306152344 159.345458984375 485.0466003417969 150.1430053710938 485.5363464355469 141.2435302734375 C 486.0849304199219 131.2757263183594 486.6030578613281 121.8607330322266 489.4414672851562 114.9131317138672 C 490.2707214355469 112.8833312988281 490.68798828125 111.1017990112305 490.6816101074219 109.6179962158203 C 490.6765441894531 108.4303970336914 490.4025268554688 107.4488677978516 489.8439331054688 106.6173324584961 C 488.8096008300781 105.0773315429688 486.6902770996094 103.8971328735352 483.5448608398438 103.1093292236328 C 480.4578552246094 102.3361968994141 476.5100708007812 101.960334777832 471.4759216308594 101.960334777832 C 466.3228759765625 101.960334777832 460.759521484375 102.3709945678711 456.4893493652344 102.7286682128906 C 456.3340148925781 102.7417297363281 456.1750793457031 102.7480621337891 456.0036010742188 102.7480621337891 C 454.203857421875 102.7480621337891 450.3094177246094 102.0818634033203 434.1386108398438 97.24906158447266 C 422.7526550292969 93.84626770019531 407.2660827636719 88.97866821289062 389.3340759277344 83.342529296875 C 342.8812561035156 68.74199676513672 279.2619323730469 48.74592971801758 217.5585327148438 32.26666259765625 C 183.8607330322266 23.26686477661133 154.1714019775391 16.2608642578125 129.3152618408203 11.44326496124268 C 115.3202056884766 8.730731010437012 102.5223388671875 6.645664691925049 91.27706909179688 5.24606466293335 C 79.30287170410156 3.755664587020874 68.75167083740234 2.999997854232788 59.91660308837891 2.999997854232788 C 48.14193725585938 2.999997854232788 39.13020324707031 4.329797744750977 33.13187026977539 6.952464580535889 C 30.23686981201172 8.218264579772949 28.04200172424316 9.793664932250977 26.60806846618652 11.63493156433105 C 25.19013595581055 13.45566463470459 24.46980285644531 15.56266403198242 24.40580177307129 18.07626533508301 L 24.40566825866699 18.08273124694824 C 24.34466934204102 20.29166412353516 22.94073677062988 23.76673126220703 19.77093505859375 31.41646385192871 C 15.76706886291504 41.07926559448242 9.716336250305176 55.68173217773438 6.108469009399414 71.1373291015625 C 4.147068977355957 79.53973388671875 3.10373592376709 87.38159942626953 3.007469177246094 94.44506072998047 C 2.896269083023071 102.6090621948242 4.044535636901855 109.9828643798828 6.420669078826904 116.361930847168 C 8.195402145385742 121.1294631958008 10.92693614959717 125.8979949951172 14.53926944732666 130.5351257324219 C 17.8813362121582 134.8253326416016 21.96160316467285 138.9886016845703 26.66660308837891 142.9091949462891 C 31.01613616943359 146.5335235595703 35.80433654785156 149.8764038085938 40.89820098876953 152.8449249267578 C 45.67093658447266 155.6263275146484 50.49213409423828 157.9558715820312 55.22666931152344 159.7684631347656 C 62.54833602905273 162.5675964355469 70.27040100097656 164.6675262451172 78.17853546142578 166.0099945068359 C 85.58167266845703 167.2667999267578 93.41373443603516 167.9039916992188 101.4570007324219 167.9039916992188 C 109.5641326904297 167.9039916992188 117.8678665161133 167.2892608642578 126.8428039550781 166.024658203125 C 134.8252716064453 164.8998718261719 143.1291351318359 163.2872619628906 152.2288055419922 161.0947265625 C 169.1366729736328 157.0207366943359 185.8615417480469 151.6287384033203 202.0357360839844 146.4142608642578 C 225.4400024414062 138.8688049316406 247.5462646484375 131.7418670654297 267.8950805664062 129.2738647460938 L 267.9270629882812 129.2702026367188 C 275.4809875488281 128.4362640380859 283.5932006835938 128.0133972167969 292.0383911132812 128.0133972167969 C 324.5308837890625 128.0133972167969 361.6904602050781 134.3513946533203 393.9890747070312 145.4022674560547 C 412.2143249511719 151.6379241943359 423.630126953125 161.0335235595703 432.8029479980469 168.5829925537109 C 437.7438049316406 172.6494598388672 442.0108642578125 176.1613922119141 446.579345703125 178.7001342773438 C 451.4273376464844 181.3941345214844 456.1076049804688 182.6488037109375 461.3084716796875 182.6486663818359 M 461.3085632324219 185.6486358642578 C 437.0862426757812 185.649169921875 429.5854187011719 160.7521362304688 393.0179443359375 148.2407379150391 C 360.4227294921875 137.08837890625 323.9979858398438 131.0133819580078 292.0383911132812 131.0133819580078 C 283.7623901367188 131.0133819580078 275.7902221679688 131.4203491210938 268.2562561035156 132.2520599365234 C 220.0905303955078 138.0937957763672 160.4057312011719 170.9039764404297 101.45703125 170.9039764404297 C 85.55371856689453 170.9039764404297 69.71257019042969 168.5183258056641 54.15533447265625 162.5706634521484 C 35.24427032470703 155.3305969238281 11.49060249328613 138.5800628662109 3.609135866165161 117.4085998535156 C -10.47779750823975 79.58972930908203 21.20280265808105 25.38933181762695 21.40680313110352 17.99993133544922 C 21.73230361938477 5.209979057312012 36.3065185546875 3.039550847461214e-06 59.91662979125977 3.039550847461214e-06 C 163.2779998779297 3.039550847461214e-06 440.1315307617188 99.74803161621094 456.0035705566406 99.74803161621094 C 456.0908508300781 99.74803161621094 456.1667175292969 99.74517822265625 456.2381286621094 99.73919677734375 C 461.2689819335938 99.31779479980469 466.5368347167969 98.9603271484375 471.4759521484375 98.9603271484375 C 486.1307067871094 98.9603271484375 497.9154052734375 102.1038208007812 492.2186584472656 116.0477294921875 C 484.6019287109375 134.6911315917969 494.689208984375 176.1353302001953 471.0211486816406 184.4651947021484 C 467.478515625 185.2767639160156 464.268310546875 185.6485748291016 461.3085632324219 185.6486358642578 Z" stroke="none" fill="#55606e"/>
        </g>
        <path id="Path_5408" data-name="Path 5408" d="M1.238,0S19.2,34.15,6.641,59.221-4.8,115.98,46.969,136.463,141.278,153.6,188,188.9s47.133,8.525,42.015-17.26-20.32-57.643-82.83-45.6S21.142,65.113,55.378,4.512" transform="translate(-7556.375 -6374.391) rotate(-5)" fill="none" stroke="#55606e" stroke-width="3"/>
        <path id="Path_5410" data-name="Path 5410" d="M15.7,139.174a59.683,59.683,0,0,0-7.945-19.809C-9.61,91.683,1.219,52.955,50.049,41.252s73.015-3.792,114-31.441,50.453,9.33,50,34.627S204,99.432,138.269,76.2C86.87,58.03,44.4,92.574,50.352,141.358" transform="translate(-7091.301 -5719.406) rotate(-5)" fill="none" stroke="#55606e" stroke-width="3"/>
        <path id="Path_5411" data-name="Path 5411" d="M0,0S101.254,76.041,46.358,168.368c-.8,1.353-1.92,3.139-3.1,4.93-12.779,15.365,7.373,62.648,58.969,37.171s54.57-39.745,58.394-65.067,2.851-77.376,89.731-37.134S358.126,85.484,350.948,30.627" transform="translate(-7247.174 -6348.681) rotate(-5)" fill="none" stroke="#55606e" stroke-width="3"/>
        <path id="Path_5412" data-name="Path 5412" d="M15.194,245.412s68.047-95.967-4.714-199.434c-1.065-1.515-2.528-3.527-4.054-5.553C-9.384,22.564,2.395-21.931,59.506,13.031s74.91,87.621,82.994,108.857c4.374,13.517,20.484,43,45.846,55.677,23.019,11.511,63.832,10.833,93.431,1.654,60.652-18.811,81.569,42.345,84.367,96.821" transform="translate(-7584.829 -5824.825) rotate(-5)" fill="none" stroke="#55606e" stroke-width="3"/>
        <path id="Path_5413" data-name="Path 5413" d="M377.458,0s8.552,76.627-23.9,107.377c-18.856,17.866-22.931,51.979-52.915,55.942s-44.744-29.364-67.02-40.089c-.883-.378-43.341-23.382-48.683,7.44s22.944,57.016,54.911,94.85,58.077,107,23.464,171.3c-33.748,62.688-100.91,103.331-225.13,26.76-2.791-1.72-23.01-17.8-34.445-3.006S5.81,511.029,62.386,533.5s114.476,23.005,167.655-23.03,80.883-47.37,109.849-30.1,78.721,68.057,45.444,133.567,57.829,144.6,125.84,167.9" transform="translate(-7219.875 -6316.178) rotate(-5)" fill="none" stroke="#55606e" stroke-width="3"/>
        <path id="Path_5414" data-name="Path 5414" d="M36.725,4.669C18.56,14.97-15.7,65.355,8.167,148.482s68.438,94.923,118.574,94.1,143.1,9.269,193.758,35.445,77.907-25.75,1.908-52.752c-35.912-13.766-68.147-17.865-86.4-30.579-19.462-13.553-29.56-41.649-33.744-60.7-7.85-35.744-16.505-53.874-43.76-67.118-26.846-13.046-64.61,8.815-10.513,73.209.666.9,29.878,36.922-16.681,53.327s-87.1-19.535-80.3-78.945S86.7,61.135,81.32,30.713,54.89-5.633,36.725,4.669Z" transform="translate(-7674.314 -6132.588) rotate(-5)" fill="none" stroke="#55606e" stroke-width="3"/>
        <path id="Path_5416" data-name="Path 5416" d="M0,127.52s78.385,10.58,108.633-41S90.62,5.5,84.892,0" transform="translate(-7851.154 -6341.398) rotate(-5)" fill="none" stroke="#55606e" stroke-width="3"/>
        <path id="Path_5417" data-name="Path 5417" d="M4.667,23.484C18.723,47.827,55.86,26.6,51.889,77.051c-1.68,21.342,5.874,48.225,25.33,57.538,25.139,12.04,66.538,1.981,84.686-.762,31.453-4.754,17.462-38.394,17.017-39.719C125.338-5.637,12.785.06,12.785.06S-9.389-.858,4.667,23.484Z" transform="translate(-7456.308 -5828.938) rotate(-5)" fill="none" stroke="#55606e" stroke-width="3"/>
        <g id="Path_5418" data-name="Path 5418" transform="translate(-7154.407 -5719.781) rotate(-5)" fill="none">
          <path d="M16.462.073c13.733,1.2,38.147,4.863,41.856,22.315S34.577,49.3,20.844,48.1,1.264,36.377.179,24.492,2.729-1.125,16.462.073Z" stroke="none"/>
          <path d="M 14.81992340087891 2.999996185302734 C 11.63855361938477 2.999996185302734 9.160621643066406 4.020286560058594 7.244533538818359 6.119152069091797 C 5.561820983886719 7.962383270263672 4.353111267089844 10.58304977416992 3.6519775390625 13.90835189819336 C 3.000953674316406 16.99596214294434 2.833267211914062 20.56161880493164 3.167045593261719 24.21985054016113 C 3.697578430175781 30.03449630737305 5.416389465332031 34.95993804931641 8.137653350830078 38.46370697021484 C 9.594867706298828 40.33992004394531 11.36318969726562 41.84427261352539 13.39350128173828 42.93497467041016 C 15.61219787597656 44.12686157226562 18.2065315246582 44.85942840576172 21.10444259643555 45.11232757568359 C 21.79030990600586 45.17218399047852 22.52912139892578 45.20252990722656 23.30037689208984 45.20252990722656 C 28.15802001953125 45.20252990722656 33.9896240234375 44.05276107788086 39.29987716674805 42.04803085327148 C 42.15115356445312 40.97161865234375 44.733642578125 39.69527435302734 46.97560882568359 38.25445175170898 C 49.3390007019043 36.735595703125 51.26124572753906 35.07150650024414 52.68895721435547 33.30839538574219 C 53.93844604492188 31.76537322998047 54.80401229858398 30.14489555358887 55.26161193847656 28.49197387695312 C 55.74464416503906 26.74719619750977 55.78569793701172 24.90349578857422 55.38362121582031 23.01210784912109 C 55.00375366210938 21.22513008117676 54.3485107421875 19.53756332397461 53.43608856201172 17.99626350402832 C 52.5725212097168 16.53749656677246 51.45003509521484 15.16041946411133 50.09980010986328 13.90329742431641 C 47.59332275390625 11.56966400146484 44.21326446533203 9.559551239013672 40.05349731445312 7.928806304931641 C 36.53407669067383 6.549095153808594 32.38858795166016 5.416397094726562 27.73221206665039 4.562183380126953 C 24.27653121948242 3.928241729736328 20.50456619262695 3.437496185302734 16.20079040527344 3.061908721923828 C 15.73004531860352 3.020828247070312 15.26545333862305 2.999996185302734 14.81992340087891 2.999996185302734 M 14.81991958618164 -3.814697265625e-06 C 15.35105133056641 -3.814697265625e-06 15.89664840698242 0.02396011352539062 16.46158981323242 0.07326126098632812 C 30.19448852539062 1.271728515625 54.6081657409668 4.93646240234375 58.31805419921875 22.38830757141113 C 62.02793502807617 39.84016418457031 34.57655715942383 49.2994384765625 20.84364318847656 48.10097503662109 C 7.110744476318359 46.90250778198242 1.263778686523438 36.37673950195312 0.1794548034667969 24.49244117736816 C -0.8602714538574219 13.0970344543457 2.439971923828125 -3.814697265625e-06 14.81991958618164 -3.814697265625e-06 Z" stroke="none" fill="#55606e"/>
        </g>
        <g id="Path_5419" data-name="Path 5419" transform="translate(-7474.349 -5625.917) rotate(-5)" fill="none">
          <path d="M43.488.194C79.768,3.36,144.265,13.041,154.065,59.146s-62.721,71.094-99,67.928S3.339,96.1.474,64.7,7.209-2.973,43.488.194Z" stroke="none"/>
          <path d="M 39.15146636962891 3 C 34.10677337646484 3 29.49899291992188 3.894332885742188 25.45608520507812 5.65814208984375 C 21.71318054199219 7.291091918945312 18.36384582519531 9.70904541015625 15.50111389160156 12.84485626220703 C 12.937255859375 15.65328216552734 10.71829223632812 19.08309173583984 8.905868530273438 23.03897094726562 C 7.182159423828125 26.80118560791016 5.810272216796875 31.07009124755859 4.828338623046875 35.72711181640625 C 3.0084228515625 44.35856628417969 2.53582763671875 54.28452301025391 3.461685180664062 64.43187713623047 C 4.18194580078125 72.32623291015625 5.6917724609375 79.67668151855469 7.94921875 86.27909088134766 C 10.3485107421875 93.29632568359375 13.59825134277344 99.47221374511719 17.60818481445312 104.6351623535156 C 26.54106140136719 116.1366424560547 39.23110961914062 122.6805419921875 55.32584381103516 124.0851364135742 C 57.27936553955078 124.255615234375 59.37522888183594 124.3420715332031 61.55527496337891 124.3420715332031 C 67.97689056396484 124.3420715332031 75.29072570800781 123.5853042602539 82.70613098144531 122.153564453125 C 90.49927520751953 120.64892578125 98.18930053710938 118.4746170043945 105.5626068115234 115.6910400390625 C 113.417724609375 112.7255935668945 120.5508193969727 109.1974487304688 126.7637481689453 105.2046356201172 C 133.4495849609375 100.9079513549805 138.9197235107422 96.16049194335938 143.0222473144531 91.09419250488281 C 150.7838134765625 81.50923156738281 153.5120086669922 70.9700927734375 151.1310119628906 59.76954650878906 C 150.0160369873047 54.52452087402344 148.090087890625 49.56666564941406 145.4066314697266 45.03368377685547 C 142.8850402832031 40.77409362792969 139.6228179931641 36.76744842529297 135.7106323242188 33.12502288818359 C 132.0415802001953 29.70896911621094 127.7039413452148 26.52247619628906 122.8182220458984 23.65402221679688 C 118.2883224487305 20.99444580078125 113.1720581054688 18.54064178466797 107.6115875244141 16.36077880859375 C 98.0206298828125 12.60085296630859 86.76322174072266 9.521377563476562 74.15206146240234 7.207855224609375 C 64.86888885498047 5.504852294921875 54.75341796875 4.188041687011719 43.22763061523438 3.18218994140625 C 41.84226989746094 3.061309814453125 40.47084808349609 3 39.15146636962891 3 M 39.15146636962891 -1.52587890625e-05 C 40.55461120605469 -1.52587890625e-05 41.9959716796875 0.06330108642578125 43.48844146728516 0.19354248046875 C 79.76822662353516 3.359687805175781 144.2645874023438 13.04121398925781 154.0654449462891 59.14573669433594 C 163.8662719726562 105.2502593994141 91.34487915039062 130.2399139404297 55.06503295898438 127.0737838745117 C 18.78524780273438 123.9076385498047 3.338653564453125 96.10057067871094 0.4740753173828125 64.7044677734375 C -2.272674560546875 34.59991455078125 6.445953369140625 -1.52587890625e-05 39.15146636962891 -1.52587890625e-05 Z" stroke="none" fill="#55606e"/>
        </g>
        <path id="Path_5523" data-name="Path 5523" d="M0,0S44.568,221.584,231.466,255.935s196.921,212.9,206.247,270.582,37,104.674,106.734,125.3c38.423,11.366,95.77,27.353,173.162-24.746,25.172-17.126,52.8-46.45,75.734-26.049" transform="translate(-5874.481 -5650.143) rotate(163)" fill="none" stroke="#55606e" stroke-width="3"/>
        <path id="Path_5524" data-name="Path 5524" d="M747.484,0c-12.893,11.334-74,45.286-159.323,61.649-183.5,35.189-196.375,229.305-205.782,288.11S345.612,456.5,277.113,477.588c-37.743,11.621-114.473,25.236-190.161-27.8-24.617-17.434-51.592-47.3-74.178-26.484C1.079,435.049-2.4,451.132,1.579,471.842c18.144,53.768,4.077,91.43,1.33,100.3" transform="translate(-6300.662 -5598.464) rotate(-115)" fill="none" stroke="#55606e" stroke-width="3"/>
        <path id="Path_5525" data-name="Path 5525" d="M0,0S20.638,159.506,167.056,191.984,356.578,302.01,367.874,317.022c7.568,10.059,30.565,62.67,75.584,107.177,21.392,21.148,52,41.408,81.746,52.121,90.132,32.461,141.953-42.009,125.1-110.469-7.6-34.317-80.74-149.753-159.565-49.7-11.374,14.585-16.012,34.88-43.941,28.387-44.462-6.452-46.376-101.446-71.913-177.922S313.861,75.677,308.746,26.944" transform="translate(-5930.973 -5638.888) rotate(163)" fill="none" stroke="#55606e" stroke-width="3"/>
        <g id="Path_5526" data-name="Path 5526" transform="matrix(-0.485, 0.875, -0.875, -0.485, -6501.881, -5865.443)" fill="none">
          <path d="M79.439.016C109.095.841,120.6,29.238,112.48,63.262s-36.2,45.951-58.156,48.277S.834,100.892.01,65.487,49.784-.808,79.439.016Z" stroke="none"/>
          <path d="M 78.26599884033203 3.000007629394531 C 69.62581634521484 3.000007629394531 58.97150802612305 5.753463745117188 48.2657470703125 10.753173828125 C 42.86647033691406 13.27468109130859 37.64472198486328 16.27377319335938 32.74554443359375 19.66712188720703 C 27.66166687011719 23.18840789794922 23.06516265869141 27.04015350341797 19.08368682861328 31.11540985107422 C 13.91450500488281 36.4063720703125 9.911178588867188 41.93617248535156 7.184944152832031 47.55120849609375 C 4.277473449707031 53.53950119018555 2.872528076171875 59.5504264831543 3.009124755859375 65.41702270507812 C 3.179763793945312 72.74530029296875 4.754486083984375 79.39755249023438 7.689544677734375 85.18902587890625 C 10.3209228515625 90.38128662109375 14.03775787353516 94.88319396972656 18.73677825927734 98.56973266601562 C 23.02523803710938 101.9341888427734 28.00814056396484 104.5400848388672 33.54712677001953 106.3150634765625 C 38.62296295166016 107.9416275024414 44.05659484863281 108.8013763427734 49.26063537597656 108.8013763427734 C 50.87385559082031 108.8013763427734 52.47117614746094 108.7188110351562 54.00823211669922 108.5559692382812 C 59.72770690917969 107.950080871582 65.29998016357422 106.7394104003906 70.57028961181641 104.9575881958008 C 76.56346893310547 102.9313735961914 82.04883575439453 100.1961364746094 86.87397766113281 96.82785034179688 C 98.43034362792969 88.76071929931641 106.0636672973633 77.23348236083984 109.5619583129883 62.56633758544922 C 114.2384872436523 42.95941162109375 112.1608352661133 25.51033782958984 103.8617248535156 14.69326019287109 C 101.1094512939453 11.10593414306641 97.70248413085938 8.296989440917969 93.73545074462891 6.344444274902344 C 89.54928588867188 4.284042358398438 84.71134185791016 3.163848876953125 79.35603332519531 3.014976501464844 C 78.99370574951172 3.004898071289062 78.63716125488281 3.000007629394531 78.26599884033203 3.000007629394531 M 78.2659912109375 7.62939453125e-06 C 78.66219329833984 7.62939453125e-06 79.05024719238281 0.00531768798828125 79.43939971923828 0.01613616943359375 C 109.0946731567383 0.8405380249023438 120.5953216552734 29.23822784423828 112.480110168457 63.26235580444336 C 104.3649597167969 97.28643035888672 76.27672576904297 109.213752746582 54.32427215576172 111.5392837524414 C 52.68560028076172 111.7128753662109 50.98935699462891 111.8013687133789 49.26063537597656 111.8013687133789 C 27.8304443359375 111.8013687133789 0.7728042602539062 98.24935913085938 0.00994110107421875 65.48686218261719 C -0.8036346435546875 30.546142578125 48.46971893310547 7.62939453125e-06 78.2659912109375 7.62939453125e-06 Z" stroke="none" fill="#55606e"/>
        </g>
        <g id="Path_5527" data-name="Path 5527" transform="matrix(-0.719, 0.695, -0.695, -0.719, -5887.716, -6236.385)" fill="none">
          <path d="M79.3.134C109.908,2.425,122.921,30.6,115.94,63.264S89.11,113.653,66.572,114.81,2.366,94.229.075,59.776,48.693-2.158,79.3.134Z" stroke="none"/>
          <path d="M 75.62507629394531 3.000022888183594 C 66.17787933349609 3.000022888183594 54.97391510009766 5.639007568359375 44.07709503173828 10.43082427978516 C 38.56302642822266 12.85562133789062 33.33086395263672 15.73942565917969 28.52595520019531 19.00211334228516 C 23.52662658691406 22.39682769775391 19.12435150146484 26.11380767822266 15.44140625 30.0498046875 C 11.20242309570312 34.58003997802734 7.991081237792969 39.32289886474609 5.896537780761719 44.14662170410156 C 3.678550720214844 49.25462341308594 2.726951599121094 54.446044921875 3.068138122558594 59.57666015625 C 3.56097412109375 66.98753356933594 6.037841796875 74.16526031494141 10.42995452880859 80.91047668457031 C 12.44791412353516 84.00959014892578 14.87875366210938 87.02133178710938 17.65489959716797 89.862060546875 C 20.29299163818359 92.56149291992188 23.26207733154297 95.12718963623047 26.47969818115234 97.48787689208984 C 32.51264190673828 101.9141159057617 39.39833831787109 105.6015548706055 46.39234924316406 108.1515350341797 C 53.03606414794922 110.5737915039062 59.40739059448242 111.854133605957 64.81755065917969 111.854133605957 C 65.3616943359375 111.854133605957 65.90029907226562 111.8406448364258 66.41838836669922 111.8140411376953 C 77.09088134765625 111.2660064697266 86.96295166015625 106.7418594360352 94.9674072265625 98.73069763183594 C 99.14920806884766 94.54537200927734 102.7859878540039 89.44560241699219 105.7767181396484 83.57304382324219 C 108.9259338378906 77.38929748535156 111.3581695556641 70.34544372558594 113.0058975219727 62.63711547851562 C 113.967643737793 58.13796997070312 114.5449523925781 53.67362594604492 114.7218246459961 49.36808013916016 C 114.8962631225586 45.12189483642578 114.6825866699219 40.99948120117188 114.0867691040039 37.11533355712891 C 113.4947204589844 33.25580596923828 112.5211715698242 29.60494995117188 111.1932067871094 26.26416778564453 C 109.8627700805664 22.91724395751953 108.1652603149414 19.85414886474609 106.1478271484375 17.15998840332031 C 103.1148452758789 13.10964202880859 99.34738922119141 9.865913391113281 94.95011901855469 7.518951416015625 C 90.31484222412109 5.044952392578125 84.97422790527344 3.566680908203125 79.07662963867188 3.125221252441406 C 77.96681213378906 3.042152404785156 76.80555725097656 3.000022888183594 75.62507629394531 3.000022888183594 M 75.62508392333984 1.52587890625e-05 C 76.88031005859375 1.52587890625e-05 78.10306549072266 0.04395294189453125 79.30055236816406 0.1335906982421875 C 109.9082946777344 2.424736022949219 122.9212951660156 30.60300445556641 115.9396286010742 63.26422500610352 C 108.9579925537109 95.92546081542969 89.1103515625 113.6527709960938 66.57224273681641 114.8100967407227 C 44.03426361083984 115.9674377441406 2.365913391113281 94.22855377197266 0.0747528076171875 59.77573394775391 C -2.12677001953125 26.67086791992188 44.79648590087891 1.52587890625e-05 75.62508392333984 1.52587890625e-05 Z" stroke="none" fill="#55606e"/>
        </g>
        <g id="Path_5528" data-name="Path 5528" transform="translate(-6245.942 -5829.203) rotate(-137)" fill="none">
          <path d="M79.041,2.768c29.315-6.6,59.687-2.075,50.124,21.021-4.676,11.294-3.98,33.454-57.746,50.059C14.16,92.512-.785,67.355.031,55.416,1.629,32.053,49.726,9.372,79.041,2.768Z" stroke="none"/>
          <path d="M 102.3645858764648 3.000015258789062 C 95.36350250244141 3.000015258789062 87.52626037597656 3.931900024414062 79.70011901855469 5.694938659667969 C 72.34376525878906 7.352134704589844 64.02916717529297 9.976814270019531 55.65524291992188 13.28525543212891 C 46.703125 16.82212066650391 38.06390380859375 21.00729370117188 30.67152404785156 25.38835525512695 C 22.41080474853516 30.28403854370117 15.83020782470703 35.30731582641602 11.11250305175781 40.31869506835938 C 6.073944091796875 45.6708984375 3.352691650390625 50.81931686401367 3.024276733398438 55.62097549438477 C 2.807037353515625 58.79755783081055 4.043731689453125 63.76459503173828 8.1661376953125 68.17855834960938 C 12.14774322509766 72.4417724609375 20.10182189941406 77.52369689941406 35.38398742675781 77.52369689941406 C 45.39004516601562 77.52369689941406 57.20116424560547 75.32749938964844 70.48924255371094 70.99611663818359 L 70.53368377685547 70.98201751708984 C 81.23342895507812 67.67739868164062 90.41456604003906 63.92583465576172 97.82206726074219 59.83155822753906 C 104.1192626953125 56.35097885131836 109.3328247070312 52.50885772705078 113.3179626464844 48.41193771362305 C 116.5230255126953 45.11697769165039 119.0179824829102 41.60203552246094 120.9453659057617 37.66627883911133 C 122.6333465576172 34.21941757202148 123.6551666259766 30.92203521728516 124.5567016601562 28.01279830932617 C 125.1501007080078 26.09793853759766 125.7106018066406 24.28927612304688 126.3930435180664 22.64117431640625 C 127.4887847900391 19.99493408203125 128.0147247314453 17.58771514892578 127.956184387207 15.48643493652344 C 127.9047241210938 13.63851928710938 127.4160614013672 12.04644012451172 126.4623031616211 10.61919403076172 C 124.8547668457031 8.213638305664062 121.9402618408203 6.325736999511719 117.7997817993164 5.007957458496094 C 113.6134414672852 3.67559814453125 108.4202880859375 3.000015258789062 102.3645858764648 3.000015258789062 M 102.3645782470703 7.62939453125e-06 C 121.9229965209961 7.62939453125e-06 136.1284027099609 6.971870422363281 129.1648101806641 23.78891754150391 C 124.4883651733398 35.08263778686523 125.1846237182617 57.24285888671875 71.41898345947266 73.84841918945312 C 56.79679870605469 78.61465454101562 44.92951202392578 80.52370452880859 35.38397979736328 80.52370452880859 C 7.550445556640625 80.52370452880859 -0.5767059326171875 64.30613708496094 0.031280517578125 55.41627883911133 C 1.629119873046875 32.05303573608398 49.72554779052734 9.372238159179688 79.04082489013672 2.768280029296875 C 87.01020050048828 0.9729843139648438 95.06256103515625 7.62939453125e-06 102.3645782470703 7.62939453125e-06 Z" stroke="none" fill="#55606e"/>
        </g>
        <g id="Path_5529" data-name="Path 5529" transform="matrix(0.559, 0.829, -0.829, 0.559, -5978.428, -6366.511)" fill="none">
          <path d="M456.238,99.739c19.958-1.672,43.6-2.335,35.981,16.309s2.471,60.088-21.2,68.418c-32.535,7.453-36.968-22.184-78-36.225s-88.134-20.032-124.762-15.989c-61.16,7.418-140.878,58.312-214.1,30.319-18.911-7.24-42.665-23.991-50.546-45.162C-10.478,79.59,21.2,25.389,21.407,18,23.165-51.09,440.211,101.082,456.238,99.739Z" stroke="none"/>
          <path d="M 461.3086853027344 182.6487426757812 C 464.0910339355469 182.648681640625 466.9954528808594 182.2987976074219 470.1820983886719 181.5795135498047 C 473.2631225585938 180.4654083251953 475.7506713867188 178.6792602539062 477.7828369140625 176.1229400634766 C 479.689697265625 173.7243499755859 481.1729736328125 170.6848754882812 482.3174133300781 166.8309478759766 C 484.5403747558594 159.3455505371094 485.0467529296875 150.1430816650391 485.5365600585938 141.2436065673828 C 486.0850830078125 131.2758178710938 486.6032409667969 121.8608093261719 489.4416809082031 114.9131469726562 C 490.2709045410156 112.8833465576172 490.6881713867188 111.1018829345703 490.6817626953125 109.6180801391602 C 490.6766967773438 108.4304809570312 490.4026794433594 107.4490127563477 489.8441467285156 106.6174163818359 C 488.8097534179688 105.0774765014648 486.6904296875 103.897216796875 483.5449523925781 103.1094131469727 C 480.4578857421875 102.3362808227539 476.5101013183594 101.9604110717773 471.4759521484375 101.9604110717773 C 466.3222961425781 101.9604110717773 460.7593688964844 102.3710098266602 456.489501953125 102.7286834716797 C 456.3341674804688 102.7417449951172 456.1752319335938 102.7480773925781 456.0037536621094 102.7480773925781 C 454.2040405273438 102.7480773925781 450.3095703125 102.0818786621094 434.1387634277344 97.24907684326172 C 422.7528381347656 93.84628295898438 407.2662353515625 88.97868347167969 389.334228515625 83.34254455566406 C 342.88134765625 68.74201202392578 279.261962890625 48.74594497680664 217.5585632324219 32.26667785644531 C 183.8607635498047 23.26688003540039 154.1714324951172 16.26087951660156 129.3152313232422 11.44328022003174 C 115.3201599121094 8.730746269226074 102.5222930908203 6.645679950714111 91.27703094482422 5.246079921722412 C 79.30282592773438 3.755679845809937 68.75162506103516 3.000013113021851 59.91656112670898 3.000013113021851 C 48.14182662963867 3.000013113021851 39.13016128540039 4.329813003540039 33.13175964355469 6.952479839324951 C 30.2368278503418 8.218213081359863 28.04189491271973 9.793613433837891 26.6080265045166 11.63488006591797 C 25.19009399414062 13.4556131362915 24.46976089477539 15.56261348724365 24.40575981140137 18.07621383666992 L 24.4056282043457 18.08261299133301 C 24.34462738037109 20.29161262512207 22.94069480895996 23.76681327819824 19.77089309692383 31.41667938232422 C 15.76696109771729 41.0794792175293 9.716294288635254 55.68201446533203 6.108493804931641 71.13748168945312 C 4.147094249725342 79.53987884521484 3.103760719299316 87.38168334960938 3.00749397277832 94.44514465332031 C 2.896294116973877 102.6091461181641 4.04456090927124 109.9828796386719 6.420693874359131 116.361946105957 C 8.195426940917969 121.1294784545898 10.92696094512939 125.8980102539062 14.53929424285889 130.5351409912109 C 17.88136100769043 134.8253479003906 21.96162796020508 138.9886169433594 26.66662788391113 142.9092102050781 C 31.01616096496582 146.5336151123047 35.80435943603516 149.8764801025391 40.89822769165039 152.8450164794922 C 45.67095947265625 155.6263427734375 50.49216079711914 157.9559478759766 55.22669219970703 159.7685394287109 C 62.54835891723633 162.5676727294922 70.27042388916016 164.6676177978516 78.17855834960938 166.0100860595703 C 85.58169555664062 167.2668762207031 93.41375732421875 167.9040832519531 101.4570236206055 167.9040832519531 C 109.5641632080078 167.9040832519531 117.8679580688477 167.2893524169922 126.8428268432617 166.0246734619141 C 134.8253631591797 164.8999481201172 143.1292266845703 163.287353515625 152.2288970947266 161.0947418212891 C 169.1368255615234 157.0208129882812 185.8617553710938 151.6287536621094 202.0359649658203 146.4142761230469 C 225.4401550292969 138.8688812255859 247.5464324951172 131.7418823242188 267.8951721191406 129.2738800048828 L 267.9271545410156 129.2702178955078 C 275.4810791015625 128.436279296875 283.5932922363281 128.0134124755859 292.0384826660156 128.0134124755859 C 324.5309753417969 128.0134124755859 361.6906127929688 134.3514099121094 393.9892272949219 145.40234375 C 412.2145080566406 151.6380157470703 423.63037109375 161.0336151123047 432.8031005859375 168.5830841064453 C 437.7439575195312 172.6495513916016 442.0110168457031 176.1614837646484 446.5795593261719 178.7001495361328 C 451.427490234375 181.3941497802734 456.1078186035156 182.6488800048828 461.3086853027344 182.6487426757812 M 461.3087768554688 185.6487121582031 C 437.08642578125 185.6492462158203 429.5855712890625 160.7521667480469 393.0180969238281 148.2408142089844 C 360.4228210449219 137.0884094238281 323.9980773925781 131.0133972167969 292.0384521484375 131.0133972167969 C 283.762451171875 131.0133972167969 275.7903137207031 131.4203643798828 268.25634765625 132.2520751953125 C 220.0906219482422 138.0938720703125 160.40576171875 170.904052734375 101.4570541381836 170.904052734375 C 85.55374145507812 170.904052734375 69.71259307861328 168.5184020996094 54.15536117553711 162.5707397460938 C 35.24429321289062 155.3306732177734 11.49062728881836 138.580078125 3.609160661697388 117.4086151123047 C -10.47777271270752 79.58974456787109 21.20282745361328 25.38934707641602 21.40676116943359 17.99987983703613 C 21.73226356506348 5.209939956665039 36.3064079284668 -1.217040971823735e-05 59.91653060913086 -1.217040971823735e-05 C 163.2779541015625 -1.217040971823735e-05 440.1316833496094 99.748046875 456.0037231445312 99.748046875 C 456.0910034179688 99.748046875 456.1668701171875 99.74519348144531 456.23828125 99.73921203613281 C 461.2691345214844 99.31782531738281 466.5368041992188 98.96038055419922 471.4759521484375 98.96038055419922 C 486.1307373046875 98.96038055419922 497.9156188964844 102.1038818359375 492.2188415527344 116.0477447509766 C 484.6020812988281 134.6912078857422 494.6894226074219 176.1353454589844 471.0213623046875 184.4652862548828 C 467.478759765625 185.27685546875 464.2685546875 185.6486511230469 461.3087768554688 185.6487121582031 Z" stroke="none" fill="#55606e"/>
        </g>
        <path id="Path_5530" data-name="Path 5530" d="M1.238,0S19.2,34.15,6.641,59.221-4.8,115.98,46.969,136.463,141.278,153.6,188,188.9s47.133,8.525,42.015-17.26-20.32-57.643-82.83-45.6S21.142,65.113,55.378,4.512" transform="translate(-6013.75 -5594.051) rotate(163)" fill="none" stroke="#55606e" stroke-width="3"/>
        <path id="Path_5532" data-name="Path 5532" d="M15.7,139.174a59.683,59.683,0,0,0-7.945-19.809C-9.61,91.683,1.219,52.955,50.049,41.252s75.568-6.618,142.5-45.979,72.124,19.866,71.666,45.164-30.663,74.538-96.391,51.3c-1.388-.491-2.769-.943-4.335-1.415C114.166,75.449,44.557,93.892,50.352,141.358" transform="translate(-6604.84 -6138.029) rotate(163)" fill="none" stroke="#55606e" stroke-width="3"/>
        <path id="Path_5533" data-name="Path 5533" d="M0,0S101.254,76.041,46.358,168.368c-.8,1.353-1.92,3.139-3.1,4.93-12.779,15.365,7.373,62.648,58.969,37.171s54.57-39.745,58.394-65.067,2.851-77.376,89.731-37.134S358.126,85.484,350.948,30.627" transform="translate(-6321.54 -5554.913) rotate(163)" fill="none" stroke="#55606e" stroke-width="3"/>
        <path id="Path_5534" data-name="Path 5534" d="M15.195,245.412s68.047-95.967-4.714-199.434c-1.065-1.515-2.528-3.527-4.054-5.553C-9.384,22.564,2.395-21.931,59.506,13.031s74.91,87.621,82.994,108.857c4.374,13.517,20.484,43,45.846,55.677,23.019,11.511,63.832,10.833,93.431,1.654,60.652-18.811,81.569,42.345,84.367,96.821" transform="translate(-6100.179 -6137.523) rotate(163)" fill="none" stroke="#55606e" stroke-width="3"/>
        <path id="Path_5535" data-name="Path 5535" d="M377.458,0s8.552,76.627-23.9,107.377-66.77,41.451-119.935,15.854c-.883-.378-43.341-23.382-48.683,7.44s22.944,57.016,54.911,94.85,58.077,107,23.464,171.3c-33.748,62.688-100.91,103.331-225.13,26.76-2.791-1.72-23.01-17.8-34.445-3.006S5.81,511.029,62.386,533.5s114.476,23.005,167.655-23.03,80.883-47.37,109.849-30.1,13.566,52.1.045,55.352-26.929-9.36-26.929-9.36" transform="translate(-6355 -5581.029) rotate(163)" fill="none" stroke="#55606e" stroke-width="3"/>
        <path id="Path_5536" data-name="Path 5536" d="M36.725,4.669C18.56,14.97-15.7,65.355,8.167,148.482s68.438,94.923,118.574,94.1,143.1,9.269,193.758,35.445,77.907-25.75,1.908-52.752c-35.913-13.766-68.147-17.865-86.4-30.579-19.462-13.553-29.56-41.649-33.744-60.7-7.85-35.744-16.505-53.874-43.76-67.118-26.846-13.046-64.61,8.815-10.513,73.209.666.9,29.878,36.922-16.681,53.327s-87.1-19.535-80.3-78.946S86.7,61.135,81.32,30.713,54.89-5.633,36.725,4.669Z" transform="translate(-5948.661 -5855.09) rotate(163)" fill="none" stroke="#55606e" stroke-width="3"/>
        <path id="Path_5538" data-name="Path 5538" d="M0,127.52s78.385,10.58,108.633-41S90.62,5.5,84.892,0" transform="translate(-5732.272 -5687.611) rotate(163)" fill="none" stroke="#55606e" stroke-width="3"/>
        <path id="Path_5539" data-name="Path 5539" d="M4.667,23.484C18.723,47.827,55.86,26.6,51.889,77.051c-1.68,21.342,5.874,48.225,25.33,57.538,25.139,12.04,66.538,1.981,84.686-.762,31.453-4.754,17.462-38.394,17.017-39.719C125.338-5.637,12.785.06,12.785.06S-9.389-.858,4.667,23.484Z" transform="translate(-6225.036 -6106.78) rotate(163)" fill="none" stroke="#55606e" stroke-width="3"/>
        <g id="Path_5540" data-name="Path 5540" transform="translate(-6543.035 -6150.782) rotate(163)" fill="none">
          <path d="M16.462.073c13.733,1.2,38.147,4.863,41.856,22.315S34.577,49.3,20.844,48.1,1.264,36.377.179,24.492,2.729-1.125,16.462.073Z" stroke="none"/>
          <path d="M 14.81991958618164 3.000003814697266 C 11.6385612487793 3.000003814697266 9.160640716552734 4.020278930664062 7.244552612304688 6.119155883789062 C 5.561840057373047 7.962390899658203 4.353118896484375 10.58305740356445 3.651973724365234 13.90835571289062 C 3.000949859619141 16.99596786499023 2.833263397216797 20.56163597106934 3.167041778564453 24.21986770629883 C 3.697574615478516 30.03451347351074 5.416385650634766 34.95995712280273 8.137660980224609 38.46372222900391 C 9.594875335693359 40.33994674682617 11.36319732666016 41.84429168701172 13.39351654052734 42.93498992919922 C 15.61220550537109 44.12689208984375 18.20653915405273 44.85945892333984 21.10445022583008 45.11235809326172 C 21.79031753540039 45.17221450805664 22.52912902832031 45.20255661010742 23.30038452148438 45.20255661010742 C 28.15802764892578 45.20255661010742 33.98963165283203 44.05279159545898 39.29988479614258 42.04805755615234 C 42.15116119384766 40.97164535522461 44.73365020751953 39.6953010559082 46.97563171386719 38.25447845458984 C 49.33900833129883 36.73562622070312 51.26126098632812 35.07152557373047 52.68897247314453 33.30841445922852 C 53.93845367431641 31.76539039611816 54.80401992797852 30.14491271972656 55.26163101196289 28.49199104309082 C 55.74466323852539 26.74721336364746 55.78571701049805 24.90351295471191 55.38364028930664 23.01212501525879 C 55.0037727355957 21.22514724731445 54.34852981567383 19.5375804901123 53.43610763549805 17.99628067016602 C 52.57254028320312 16.53750228881836 51.45005035400391 15.16042327880859 50.09981918334961 13.90330123901367 C 47.59334182739258 11.56966781616211 44.21327209472656 9.5595703125 40.05350494384766 7.928813934326172 C 36.53408432006836 6.549102783203125 32.38859558105469 5.416400909423828 27.73221969604492 4.562191009521484 C 24.27653884887695 3.928245544433594 20.50457382202148 3.437503814697266 16.20078659057617 3.061912536621094 C 15.73004150390625 3.020835876464844 15.26545333862305 3.000003814697266 14.81991958618164 3.000003814697266 M 14.81991577148438 0 C 15.35104751586914 0 15.89664459228516 0.02396774291992188 16.46158599853516 0.07326889038085938 C 30.19449615478516 1.271736145019531 54.60818481445312 4.936470031738281 58.31807327270508 22.38832473754883 C 62.02795028686523 39.84017944335938 34.57650756835938 49.29946899414062 20.84365081787109 48.10100173950195 C 7.110752105712891 46.90253448486328 1.263786315917969 36.37675857543945 0.1794509887695312 24.49245834350586 C -0.8602638244628906 13.09704971313477 2.439968109130859 0 14.81991577148438 0 Z" stroke="none" fill="#55606e"/>
        </g>
        <g id="Path_5541" data-name="Path 5541" transform="translate(-6249.6 -6309.115) rotate(163)" fill="none">
          <path d="M43.488.194C79.768,3.36,144.265,13.041,154.065,59.146s-62.721,71.094-99,67.928S3.339,96.1.474,64.7,7.209-2.973,43.488.194Z" stroke="none"/>
          <path d="M 39.15146636962891 3 C 34.10677337646484 3 29.49899291992188 3.894332885742188 25.45608520507812 5.65814208984375 C 21.71318054199219 7.291099548339844 18.36384582519531 9.709053039550781 15.5010986328125 12.84485626220703 C 12.937255859375 15.65328979492188 10.71829223632812 19.08309936523438 8.905868530273438 23.03897857666016 C 7.182159423828125 26.80119323730469 5.810272216796875 31.07012176513672 4.828338623046875 35.72711944580078 C 3.008407592773438 44.35859680175781 2.535812377929688 54.28455352783203 3.461669921875 64.43190765380859 C 4.181961059570312 72.32626342773438 5.691802978515625 79.67674255371094 7.949249267578125 86.27914428710938 C 10.34854125976562 93.29638671875 13.5982666015625 99.47225952148438 17.60820007324219 104.6352157592773 C 26.54107666015625 116.1366958618164 39.23113250732422 122.6805953979492 55.32586669921875 124.0851898193359 C 57.27938842773438 124.2556686401367 59.37527465820312 124.3421249389648 61.55534362792969 124.3421249389648 C 67.97695922851562 124.3421249389648 75.29079437255859 123.5853576660156 82.7061767578125 122.1536178588867 C 90.49932098388672 120.6489791870117 98.18936920166016 118.4746704101562 105.5626754760742 115.6911010742188 C 113.4177703857422 112.7256469726562 120.5508728027344 109.1975021362305 126.7637939453125 105.2047119140625 C 133.4496002197266 100.9080047607422 138.9197692871094 96.16055297851562 143.0222930908203 91.09423828125 C 150.7838745117188 81.50929260253906 153.5120391845703 70.97014617919922 151.1310272216797 59.76959991455078 C 150.0160522460938 54.52455139160156 148.0901031494141 49.56669616699219 145.4066467285156 45.03373718261719 C 142.8850555419922 40.77414703369141 139.6228485107422 36.76747894287109 135.7106475830078 33.12505340576172 C 132.0416107177734 29.70899963378906 127.7039642333984 26.52249908447266 122.8182525634766 23.65402984619141 C 118.2883453369141 20.99445343017578 113.1720809936523 18.54067230224609 107.6116027832031 16.36080932617188 C 98.02065277099609 12.60088348388672 86.76324462890625 9.521385192871094 74.15208435058594 7.207862854003906 C 64.86888885498047 5.504859924316406 54.75341796875 4.188072204589844 43.22765350341797 3.182212829589844 C 41.84210205078125 3.061309814453125 40.47068023681641 3 39.15146636962891 3 M 39.15145874023438 1.52587890625e-05 C 40.55461120605469 1.52587890625e-05 41.99599456787109 0.063323974609375 43.48846435546875 0.193572998046875 C 79.76824951171875 3.359695434570312 144.2646026611328 13.04121398925781 154.0654602050781 59.14579010009766 C 163.8663177490234 105.2503204345703 91.34474945068359 130.2399749755859 55.06505584716797 127.0738372802734 C 18.7852783203125 123.9076919555664 3.33868408203125 96.10062408447266 0.4740753173828125 64.70449829101562 C -2.272674560546875 34.59994506835938 6.445938110351562 1.52587890625e-05 39.15145874023438 1.52587890625e-05 Z" stroke="none" fill="#55606e"/>
        </g>
      </g>
    </g>
    <rect id="Rectangle_8882" data-name="Rectangle 8882" width="1920" height="518" transform="translate(0 10627)" fill="url(#linear-gradient)"/>
  </g>
</svg>
