<svg xmlns="http://www.w3.org/2000/svg" width="220" height="84.47" viewBox="0 0 220 84.47">
  <g id="Group_7099" data-name="Group 7099" transform="translate(-3.995 -2.963)">
    <g id="Group_1" data-name="Group 1" transform="translate(3.995 35.796)" opacity="0.668" style="mix-blend-mode: normal;isolation: isolate">
      <path id="Path_1" data-name="Path 1" d="M17.341,30.827a13.161,13.161,0,0,1-7.8-2.527,13.334,13.334,0,0,1-5.383-8.734h0a13.389,13.389,0,0,1,11.151-15.3,9.465,9.465,0,0,1,1.318-.11c7.883,0,25.818,7.91,26.642,8.267l1.566.687-1.291,1.154c-.687.632-17.139,15.3-24.088,16.425A17.841,17.841,0,0,1,17.341,30.827ZM6.355,19.209a11.04,11.04,0,0,0,4.477,7.278,10.744,10.744,0,0,0,8.295,1.978c4.807-.742,16.232-9.97,21.643-14.694-6.592-2.829-20.325-8.24-25.131-7.306A11.115,11.115,0,0,0,6.355,19.209Z" transform="translate(-3.995 -4.158)" fill="#fff"/>
    </g>
    <g id="Group_2" data-name="Group 2" transform="translate(40.797 27.706)" opacity="0.668" style="mix-blend-mode: normal;isolation: isolate">
      <path id="Path_2" data-name="Path 2" d="M33.57,30.52c-7.883,0-25.845-7.91-26.669-8.267l-1.566-.687,1.291-1.154c.687-.632,17.166-15.3,24.088-16.4a13.457,13.457,0,0,1,9.943,2.39,13.3,13.3,0,0,1,5.356,8.734h0a13.382,13.382,0,0,1-11.124,15.3A9.987,9.987,0,0,1,33.57,30.52ZM9.4,20.907c6.592,2.829,20.325,8.1,25.131,7.333A11.154,11.154,0,0,0,43.815,15.5h0A11.1,11.1,0,0,0,31.071,6.213C26.264,6.955,14.811,16.211,9.4,20.907Z" transform="translate(-5.335 -3.863)" fill="#fff"/>
    </g>
    <g id="Group_3" data-name="Group 3" transform="translate(96.553 40.411)" style="mix-blend-mode: normal;isolation: isolate">
      <path id="Path_3" data-name="Path 3" d="M11.814,20.888a8.047,8.047,0,0,1-3.268-3.159A8.789,8.789,0,0,1,7.365,13.2,8.818,8.818,0,0,1,8.546,8.638,8.226,8.226,0,0,1,11.814,5.48a9.409,9.409,0,0,1,4.724-1.154A9.3,9.3,0,0,1,21.18,5.452a8.548,8.548,0,0,1,3.3,3.186A8.838,8.838,0,0,1,25.685,13.2a8.81,8.81,0,0,1-1.208,4.532,8.358,8.358,0,0,1-3.3,3.186,9.608,9.608,0,0,1-4.642,1.154A9.72,9.72,0,0,1,11.814,20.888Zm8.46-1.428a6.664,6.664,0,0,0,2.609-2.554,7.461,7.461,0,0,0,.961-3.708,7.312,7.312,0,0,0-.961-3.708A6.8,6.8,0,0,0,20.274,6.88a7.993,7.993,0,0,0-7.5,0A6.692,6.692,0,0,0,10.139,9.49,7.067,7.067,0,0,0,9.15,13.2a7.207,7.207,0,0,0,.989,3.708,6.557,6.557,0,0,0,2.637,2.554,7.244,7.244,0,0,0,3.763.961A7.214,7.214,0,0,0,20.274,19.46Z" transform="translate(-7.365 -4.326)" fill="#fff"/>
      <path id="Path_4" data-name="Path 4" d="M22.9,4.331V21.772H21.365L10.159,7.627V21.772H8.291V4.331H9.8L21.063,18.476V4.331Z" transform="translate(17.142 -4.194)" fill="#fff"/>
      <path id="Path_5" data-name="Path 5" d="M21.5,20.206v1.566H9.138V4.331H21.113V5.924H11.006v6.207h9.009V13.7H11.006v6.509Z" transform="translate(39.559 -4.194)" fill="#fff"/>
      <path id="Path_6" data-name="Path 6" d="M7.428,5.182H8.691V22.65H7.428Z" transform="translate(-5.698 18.329)" fill="#fff"/>
      <path id="Path_7" data-name="Path 7" d="M22.031,5.182V22.65H20.96L9.095,7.489V22.65H7.8V5.182H8.9L20.768,20.343V5.182Z" transform="translate(4.254 18.329)" fill="#fff"/>
      <path id="Path_8" data-name="Path 8" d="M9.916,6.336v7.471h9.311V14.96H9.916v7.69H8.653V5.182H20.326V6.336Z" transform="translate(26.723 18.329)" fill="#fff"/>
      <path id="Path_9" data-name="Path 9" d="M9.335,5.182H10.6V22.65H9.335Z" transform="translate(44.773 18.329)" fill="#fff"/>
      <path id="Path_10" data-name="Path 10" d="M23.912,5.182V22.65H22.841L10.975,7.489V22.65H9.712V5.182h1.071L22.621,20.343V5.182Z" transform="translate(54.751 18.329)" fill="#fff"/>
      <path id="Path_11" data-name="Path 11" d="M10.559,5.182h1.263V22.65H10.559Z" transform="translate(77.167 18.329)" fill="#fff"/>
      <path id="Path_12" data-name="Path 12" d="M17.118,6.336h-6.29V5.182H24.7V6.336H18.381V22.65H17.118Z" transform="translate(84.287 18.329)" fill="#fff"/>
      <path id="Path_13" data-name="Path 13" d="M19.742,16.635V22.65H18.478V16.635L11.447,5.182h1.4l6.29,10.272L25.455,5.182h1.318Z" transform="translate(100.669 18.329)" fill="#fff"/>
    </g>
    <g id="Group_4" data-name="Group 4" transform="translate(17.252 18.051)" opacity="0.668" style="mix-blend-mode: normal;isolation: isolate">
      <path id="Path_14" data-name="Path 14" d="M30.578,31.721l-.851-.137c-1.923-.522-18.512-5.026-22.357-9.311a11.237,11.237,0,0,1,.8-15.848h0a11.21,11.21,0,0,1,15.848.769c3.543,3.9,7.993,22.028,6.976,23.84ZM9.621,8.046A9.112,9.112,0,0,0,8.99,20.817c2.664,2.911,14.172,6.619,19.885,8.24C28.3,24.91,25.3,11.918,22.393,8.678A9.063,9.063,0,0,0,9.621,8.046Z" transform="translate(-4.478 -3.512)" fill="#fff"/>
    </g>
    <g id="Group_5" data-name="Group 5" transform="translate(41.374 43.514)" opacity="0.668" style="mix-blend-mode: normal;isolation: isolate">
      <path id="Path_15" data-name="Path 15" d="M21.012,32.976l-.577-.027a11.159,11.159,0,0,1-7.773-3.68C8.817,25.011,5.933,8.065,5.631,6.142l-.275-1.7L7,4.906c1.868.494,18.457,5.026,22.3,9.283a11.165,11.165,0,0,1,2.911,8.1,11.281,11.281,0,0,1-3.68,7.8h0A11.2,11.2,0,0,1,21.012,32.976ZM8.1,7.488c1.071,5.933,3.6,17.413,6.207,20.3a9.079,9.079,0,0,0,6.235,2.966,9.284,9.284,0,0,0,6.509-2.335h0a9.062,9.062,0,0,0,.632-12.744C25.077,12.789,13.9,9.163,8.1,7.488Z" transform="translate(-5.356 -4.439)" fill="#fff"/>
    </g>
    <g id="Group_6" data-name="Group 6" transform="translate(36.421 2.963)" opacity="0.668" style="mix-blend-mode: normal;isolation: isolate">
      <path id="Path_16" data-name="Path 16" d="M11.612,46.371h-.824l-.357-.879c-.275-.989-7.031-24.555-4.807-32a14.737,14.737,0,0,1,18.4-9.888h0a14.759,14.759,0,0,1,9.86,18.375C31.854,28.847,14.386,46.371,11.612,46.371Zm8.13-41.2A12.405,12.405,0,0,0,13.809,6.71a12.352,12.352,0,0,0-6.07,7.443c-1.785,5.905,3.131,24.582,4.5,29.526,3.873-2.856,17.716-16.287,19.528-22.33a12.565,12.565,0,0,0-8.4-15.628h0A12.475,12.475,0,0,0,19.742,5.172Z" transform="translate(-5.176 -2.963)" fill="#fff"/>
    </g>
    <g id="Group_7" data-name="Group 7" transform="translate(19.742 43.24)" opacity="0.668" style="mix-blend-mode: normal;isolation: isolate">
      <path id="Path_17" data-name="Path 17" d="M19.362,48.622a15.415,15.415,0,0,1-4.285-.632h0a14.829,14.829,0,0,1-9.888-18.4C7.442,22.172,26.064,6.214,26.86,5.555l1.318-1.126.467,1.648c.3,1.016,7.059,24.555,4.834,32.025A14.843,14.843,0,0,1,19.362,48.622ZM27,8.384c-4.34,3.79-17.963,16.1-19.693,21.863a12.543,12.543,0,0,0,.989,9.586,12.325,12.325,0,0,0,7.443,6.015h0a12.221,12.221,0,0,0,9.558-.934,12.56,12.56,0,0,0,6.07-7.471C33.067,31.7,28.508,13.932,27,8.384Z" transform="translate(-4.568 -4.429)" fill="#fff"/>
    </g>
  </g>
</svg>
