<svg xmlns="http://www.w3.org/2000/svg" xmlns:xlink="http://www.w3.org/1999/xlink" width="116.597" height="83.009" viewBox="0 0 116.597 83.009">
  <defs>
    <linearGradient id="linear-gradient" x1="0.5" x2="0.5" y2="1" gradientUnits="objectBoundingBox">
      <stop offset="0" stop-color="#84b1e5"/>
      <stop offset="1" stop-color="#5f92ce"/>
    </linearGradient>
  </defs>
  <g id="Group_7105" data-name="Group 7105" transform="translate(-611.391 -8000.454)">
    <g id="noun_Arrow_89829_1_" data-name="noun_Arrow_89829 (1)" transform="translate(671.553 7998.454)">
      <g id="Group_7049" data-name="Group 7049" transform="translate(1.38 2)">
        <path id="Path_5582" data-name="Path 5582" d="M28.681,68.546c-.738,0-1.442-.978-1.442-.978L2.406,39.038S1.082,37.948,1.442,36.9s2.437-.743,2.437-.743H19.336V2H38.855V36.158H54.688s1.356-.164,1.687.808-.8,1.7-.8,1.7l-25.383,28.9S29.419,68.546,28.681,68.546Z" transform="translate(-1.38 -2)" fill="#b8d1ef"/>
      </g>
    </g>
    <path id="Union_71" data-name="Union 71" d="M5077.383,14295.723a4.787,4.787,0,0,1-4.729-5l1.022-15.775a14.884,14.884,0,0,1,11.37-12.827c5.116,3.358,11.628,4.1,17.5,0a14.434,14.434,0,0,1,5.361,2.453,17.342,17.342,0,0,1,10.561-7.418c5,3.193,13.343,4.857,20.088,0a17.09,17.09,0,0,1,13.052,14.721l1.026,18.107a5.489,5.489,0,0,1-5.424,5.736h-37.542a5.294,5.294,0,0,1-1.787-.31q.078.158.162.313Zm3.064-50.275c0-7.365,5.952-4.438,13.289-4.438s13.289-2.927,13.289,4.438a13.289,13.289,0,1,1-26.578,0Zm32.745-7.427c0-8.452,6.828-4.825,15.251-4.825s15.252-3.627,15.252,4.825a15.252,15.252,0,1,1-30.5,0Z" transform="translate(-4461.258 -6212.26)" fill="url(#linear-gradient)"/>
    <g id="noun_Hard_Hat_72131" data-name="noun_Hard Hat_72131" transform="translate(616 7992.712)">
      <path id="Path_5631" data-name="Path 5631" d="M30.622,38.814h-.866A12.959,12.959,0,0,0,27.1,30.87c-2.276-2.934-4.738-3.776-7.885-4.494v7.087a.669.669,0,0,1-1.338,0V25.485A1.34,1.34,0,0,0,16.54,24.3,1.364,1.364,0,0,0,15.2,25.5v7.959a.669.669,0,1,1-1.338,0V26.193A13.866,13.866,0,0,0,5.982,30.87,14.709,14.709,0,0,0,3.15,38.814h-.7a.669.669,0,0,0,0,1.338H30.622a.669.669,0,1,0,0-1.338Z" transform="translate(0 0)" fill="#a4c8f2"/>
    </g>
    <g id="noun_Hard_Hat_72131-2" data-name="noun_Hard Hat_72131" transform="translate(648 7983.059)">
      <path id="Path_5631-2" data-name="Path 5631" d="M35.584,41.312H34.569c-.192-2.816-.445-5.873-3.112-9.312s-5.554-4.425-9.241-5.267V35.04a.784.784,0,0,1-1.568,0V25.689A1.571,1.571,0,0,0,19.08,24.3a1.6,1.6,0,0,0-1.568,1.41v9.329a.784.784,0,1,1-1.568,0v-8.52A16.252,16.252,0,0,0,6.705,32a17.24,17.24,0,0,0-3.32,9.312h-.82a.784.784,0,0,0,0,1.568H35.584a.784.784,0,1,0,0-1.568Z" transform="translate(0)" fill="#a4c8f2"/>
    </g>
  </g>
</svg>
