<svg xmlns="http://www.w3.org/2000/svg" xmlns:xlink="http://www.w3.org/1999/xlink" width="75.53" height="93.708" viewBox="0 0 75.53 93.708">
  <defs>
    <linearGradient id="linear-gradient" x1="0.31" y1="0.023" x2="0.801" y2="0.964" gradientUnits="objectBoundingBox">
      <stop offset="0" stop-color="#85b1e5"/>
      <stop offset="1" stop-color="#5e91cd"/>
    </linearGradient>
  </defs>
  <g id="Group_6976" data-name="Group 6976" transform="translate(-581.477 -5006.141)">
    <g id="Group_6975" data-name="Group 6975" transform="translate(585.865 5016.333)">
      <g id="Group_6681" data-name="Group 6681">
        <path id="Path_5121" data-name="Path 5121" d="M152.05,57.183A1.676,1.676,0,0,1,150.7,56.5a9.088,9.088,0,0,0-8.518-4A16.863,16.863,0,0,1,131.16,50a1.679,1.679,0,1,1,1.808-2.829,13.537,13.537,0,0,0,8.856,1.994A12.487,12.487,0,0,1,153.4,54.509a1.679,1.679,0,0,1-1.351,2.674Z" transform="translate(-130.385 -46.905)" fill="#334051"/>
      </g>
      <g id="Group_6682" data-name="Group 6682" transform="translate(2.412 9.087)">
        <path id="Path_5122" data-name="Path 5122" d="M143.165,98.831a1.679,1.679,0,0,1-1.429-2.557c2.152-3.505,6.095-5.915,11.4-6.967a30.441,30.441,0,0,1,7.254-.548,1.679,1.679,0,0,1-.228,3.35c-.116-.008-11.515-.684-15.569,5.921a1.677,1.677,0,0,1-1.432.8Z" transform="translate(-141.487 -88.726)" fill="#334051"/>
      </g>
    </g>
    <path id="Union_69" data-name="Union 69" d="M31.322,93.708H26.573c-27.841,0-43.21-41.6,2.289-72.886h0c.617-.426,1.238-.845,1.876-1.267,0,0-.765-1.014-1.833-2.581h0c-2.94-4.312-8.145-12.8-5.828-15.786,1.083-1.4,2,.52,4.228.52C29.919,1.709,29.919,0,32.533,0c2.489,0,2.612,1.547,4.864,1.7,0,0,0,0,0,0,.087.009.175.013.269.016h.1C40.377,1.709,40.377,0,42.991,0s2.619,1.709,5.231,1.709c2.225,0,3.145-1.89,4.223-.5,3.161,4.09-7.823,18.344-7.823,18.344,47.95,31.529,32.638,74.153,4.333,74.153Z" transform="translate(581.477 5006.141)" fill="url(#linear-gradient)"/>
    <path id="Path_5522" data-name="Path 5522" d="M245.715,84.445a38.206,38.206,0,0,1-19.069,0,4.072,4.072,0,0,1-2.681-5.33l.027-.076a3.757,3.757,0,0,1,4.434-2.5,31.046,31.046,0,0,0,15.51,0,3.757,3.757,0,0,1,4.434,2.5l.027.076A4.071,4.071,0,0,1,245.715,84.445Z" transform="translate(382.423 4946.321)" fill="#334051"/>
    <path id="Icon_awesome-rupee-sign" data-name="Icon awesome-rupee-sign" d="M19.271,6.489a.774.774,0,0,0,.751-.795V3.045a.774.774,0,0,0-.751-.795H.751A.774.774,0,0,0,0,3.045V6.009A.774.774,0,0,0,.751,6.8H6.087A4.417,4.417,0,0,1,9.9,8.609H.751A.774.774,0,0,0,0,9.4v2.649a.774.774,0,0,0,.751.795h9.933a4.388,4.388,0,0,1-4.677,3.884H.751A.774.774,0,0,0,0,17.526v3.511a.817.817,0,0,0,.242.584L10.569,31.713a.729.729,0,0,0,.509.211h5.166a.8.8,0,0,0,.509-1.379L7.312,21.32c4.786-.155,8.206-3.537,8.654-8.472h3.3a.774.774,0,0,0,.751-.795V9.4a.774.774,0,0,0-.751-.795H15.6a9.345,9.345,0,0,0-.892-2.12Z" transform="translate(609.231 5049.102)" fill="#fff"/>
  </g>
</svg>
