<svg xmlns="http://www.w3.org/2000/svg" xmlns:xlink="http://www.w3.org/1999/xlink" width="101.151" height="100.75" viewBox="0 0 101.151 100.75">
  <defs>
    <linearGradient id="linear-gradient" x1="0.5" y1="1" x2="0.5" gradientUnits="objectBoundingBox">
      <stop offset="0" stop-color="#5f92ce"/>
      <stop offset="1" stop-color="#83b0e4"/>
    </linearGradient>
  </defs>
  <g id="Group_7102" data-name="Group 7102" transform="translate(-188.345 -6207.256)">
    <g id="noun_cycle_2901928" transform="translate(288.45 6268.355) rotate(-179)">
      <path id="Path_5550" data-name="Path 5550" d="M0,25.011V34.9c0,9.14,12.78,16.813,26.4,19.009v4.925a1.077,1.077,0,0,0,1.778.819L40.269,49.323a1.077,1.077,0,0,0,0-1.637L28.182,37.352a1.077,1.077,0,0,0-1.778.819V42.6C16.777,40.912,9.058,36.126,5.775,29.957c2.35-4.413,7.265-8.107,13.185-10.477a1.076,1.076,0,0,0,.683-1V9.2a1.081,1.081,0,0,0-1.453-1.012C8.667,11.624,0,17.874,0,25.011ZM50.2,51.725a1.081,1.081,0,0,1-1.453-1.012V41.432a1.076,1.076,0,0,1,.683-1c5.92-2.371,10.836-6.064,13.185-10.477-3.283-6.169-11-10.955-20.629-12.642v4.428a1.077,1.077,0,0,1-1.778.819L28.122,12.229a1.077,1.077,0,0,1,0-1.637L40.21.258a1.077,1.077,0,0,1,1.778.819V6c13.624,2.2,26.4,9.869,26.4,19.009V34.9C68.392,42.041,59.725,48.283,50.2,51.725Z" transform="translate(0 0)" fill="#b8d1ef"/>
    </g>
    <g id="Group_7053" data-name="Group 7053" transform="translate(188.345 6237.806)">
      <g id="Group_7050" data-name="Group 7050" transform="translate(0 0)">
        <path id="Path_5583" data-name="Path 5583" d="M60.468,4H14.106C7.43,4,2,9.9,2,17.162V61.037C2,68.3,7.43,74.2,14.106,74.2H60.468c6.675,0,12.106-5.9,12.106-13.162V17.162C72.573,9.9,67.143,4,60.468,4Z" transform="translate(-2 -4)" fill="url(#linear-gradient)"/>
        <path id="Icon_awesome-rupee-sign" data-name="Icon awesome-rupee-sign" d="M22.138,7.12A.889.889,0,0,0,23,6.207V3.163a.889.889,0,0,0-.863-.913H.863A.889.889,0,0,0,0,3.163v3.4a.889.889,0,0,0,.863.913h6.13a5.075,5.075,0,0,1,4.382,2.074H.863A.889.889,0,0,0,0,10.468v3.044a.889.889,0,0,0,.863.913H12.274A5.041,5.041,0,0,1,6.9,18.886H.863A.889.889,0,0,0,0,19.8v4.034a.939.939,0,0,0,.278.671L12.141,36.1a.837.837,0,0,0,.585.242H18.66a.921.921,0,0,0,.585-1.584L8.4,24.157c5.5-.178,9.426-4.063,9.942-9.732h3.8A.889.889,0,0,0,23,13.511V10.468a.889.889,0,0,0-.863-.913H17.92A10.735,10.735,0,0,0,16.9,7.12Z" transform="translate(23.786 15.805)" fill="#fff"/>
      </g>
    </g>
  </g>
</svg>
