<svg xmlns="http://www.w3.org/2000/svg" xmlns:xlink="http://www.w3.org/1999/xlink" width="355.688" height="385.827" viewBox="0 0 355.688 385.827">
  <defs>
    <linearGradient id="linear-gradient" x1="0.061" y1="0.117" x2="1.071" y2="1.215" gradientUnits="objectBoundingBox">
      <stop offset="0" stop-color="#e5f1ff"/>
      <stop offset="1" stop-color="#d1e6ff"/>
    </linearGradient>
  </defs>
  <path id="Path_5493" data-name="Path 5493" d="M-3555.644-11988.22c-.062-.289-10.208-46.7-47.417-86.895-17.062-18.434-34.9-27.282-53.78-36.65-24.266-12.039-51.769-25.685-73.508-58.277-39.2-58.775-25.061-132.764-24.44-135.885l68.653,13.666-34.327-6.833,34.359,6.664c-.092.488-8.934,49.179,13.989,83.546,11.364,17.038,26.053,24.325,46.384,34.412,21.493,10.663,48.241,23.935,74.04,51.807,51.082,55.187,64.147,118.03,64.678,120.678Z" transform="matrix(0.951, -0.309, 0.309, 0.951, 7376.597, 10626.086)" fill="url(#linear-gradient)"/>
</svg>
