<svg xmlns="http://www.w3.org/2000/svg" xmlns:xlink="http://www.w3.org/1999/xlink" width="1272.887" height="684.212" viewBox="0 0 1272.887 684.212">
  <defs>
    <clipPath id="clip-path">
      <path id="Path_5421" data-name="Path 5421" d="M19.107,0H343.2a19.107,19.107,0,0,1,19.107,19.107V205.217A19.107,19.107,0,0,1,343.2,224.324H19.107A19.107,19.107,0,0,1,0,205.217V19.107A19.107,19.107,0,0,1,19.107,0Z" transform="translate(0 223.059) rotate(-38)" fill="#505d6f"/>
    </clipPath>
    <clipPath id="clip-path-2">
      <rect id="Rectangle_248" data-name="Rectangle 248" width="362.307" height="224.324" rx="20" transform="translate(0 0)" fill="#d5e8e5"/>
    </clipPath>
    <clipPath id="clip-path-3">
      <path id="Path_5399" data-name="Path 5399" d="M361.743,188.267c-40.562-.1-157.167-12.09-185.652-103.332S43.83.1,43.83.1H0V204.079H361.743Z" transform="translate(0 222.711) rotate(-38)" fill="#b3c6c5" opacity="0.17"/>
    </clipPath>
    <clipPath id="clip-path-4">
      <path id="path5144" d="M.12,0,33.753,4.2l-.122,1.025L0,1.011Z" transform="translate(0 0)" fill="#334051"/>
    </clipPath>
    <clipPath id="clip-path-5">
      <path id="path5166" d="M.12,0,33.767,4.075,33.647,5.1,0,1.008Z" transform="translate(0 0)" fill="#334051"/>
    </clipPath>
    <clipPath id="clip-path-6">
      <path id="path5188" d="M.12,0,33.784,3.952l-.122,1.025L0,1.009Z" transform="translate(0 0)" fill="#334051"/>
    </clipPath>
  </defs>
  <g id="Group_6985" data-name="Group 6985" transform="translate(-878.34 -291.505)">
    <path id="Path_5464" data-name="Path 5464" d="M341.14-88.577c226.116-74.432,304.9-19.932,499.841,48.2,265.247,140.063,221.379,539.041,205.866,574.969-236.577-.818-985.726-1.257-1048.432,0-.187-67.36,0-91.278,0-144.949C-1.585,184.8,115.024-14.145,341.14-88.577Z" transform="translate(1091.828 415.82)" fill="#ebf4ff"/>
    <path id="Path_5473" data-name="Path 5473" d="M-580.8,849.9l3.011,27.1H-770.126l1.914-27S-765.989,849.213-580.8,849.9Z" transform="translate(2386.192 73.409)" fill="#5e91cd"/>
    <path id="Union_65" data-name="Union 65" d="M18.629,67.506c-3.808-3.789-9.3-8.15-13.937-15.657C2.524,48.386-1.609,38.717.661,35.961c1.813-2.509,3.7,2.289,3.7,2.289a49.387,49.387,0,0,0,5.615,9.632c3.992,5.524,13.155,12.992,13.155,12.992L12.755,48.461S2.663,29.926,5.544,25.175s6.514,6.45,9.851,12.68S30.614,56.376,30.614,56.376,19.15,41.61,15.655,32.889,12.424,17.434,13.006,14.33s5.276-9.145,6.446.338c.072.4.154.816.188.968,3.331,15.316,19.325,36.435,19.325,36.435s-9.5-20.049-11.071-24.086c-1.547-3.967-5.44-19.616-1.733-24.978S33.738.2,33.313,4.868c1.273,25.17,13.216,35.966,13.216,35.966l3.406,4.612c.688-2.086,1.163-3.514,1.163-3.514S48.119,26.813,52.69,22.167s5.938,9.648,5.938,9.648l3.633,30.321L78.167,83.673l-21.2,18.215S22.438,71.3,18.629,67.506Z" transform="matrix(0.999, 0.035, -0.035, 0.999, 1390.34, 604.313)" fill="#fff" stroke="#334051" stroke-width="2"/>
    <path id="Union_66" data-name="Union 66" d="M104.025,141.245c-10.353-1.6-26.14-16.386-26.14-16.386L0,25.1S19.471-.185,19.715,0c9.661,11.972,57.049,39.476,90.655,67.7l.745.628c13.929-18.158,48.817-63.423,51.258-64.488.339-.148.6.589.839,2.335-.017,17.2.257,62.231,1.571,96.708-10.2,9.765-22.026,22.9-33.261,30.4a2.624,2.624,0,0,1-.609.661c-4.475,3.261-13.719,7.6-22.877,7.6A26.348,26.348,0,0,1,104.025,141.245Z" transform="translate(1441.36 682.196)" fill="#c8d3e0" stroke="#334051" stroke-width="2"/>
    <g id="Rectangle_640" data-name="Rectangle 640" transform="translate(1365.344 554.957) rotate(-38)" fill="#c6d6eb" stroke="#334051" stroke-width="2">
      <rect width="60.519" height="24.208" rx="12.104" stroke="none"/>
      <rect x="1" y="1" width="58.519" height="22.208" rx="11.104" fill="none"/>
    </g>
    <g id="Group_6904" data-name="Group 6904" transform="translate(1006.641 844.079)">
      <path id="Path_5266" data-name="Path 5266" d="M0,0H203.546V45.961H0Z" transform="translate(0.386 60.376)" fill="#4c7fbc"/>
      <g id="Group_6880" data-name="Group 6880" transform="translate(0.33 0.083)">
        <g id="Group_6879" data-name="Group 6879" style="mix-blend-mode: normal;isolation: isolate">
          <path id="Path_5143" data-name="Path 5143" d="M10.954,0H192.275L203.46,59.9H0Z" fill="#85b1e5"/>
          <path id="Union_27" data-name="Union 27" d="M3.579,37.977,9.643.82,177.548.5l8.907,50.657L1.363,51.546ZM13.9,6.826l-6.067,37.8,62.445-.13q.02-.107.04-.215t.043-.214q.022-.107.046-.214t.049-.213q.085-.362.186-.721t.22-.714q.119-.354.255-.7t.291-.691q.155-.342.329-.677t.368-.661q.194-.326.409-.643t.451-.623q.236-.306.494-.6T74,37.029q.281-.282.585-.551t.632-.524q.277-.215.566-.415t.588-.387q.3-.187.609-.36t.629-.334q.319-.161.647-.309t.664-.285q.336-.136.679-.261t.693-.239q.35-.114.706-.218t.718-.2q.361-.094.728-.178t.736-.159q.37-.075.744-.141t.749-.125q.376-.058.754-.109t.757-.094q0-.062-.007-.123t-.007-.123q0-.062-.008-.123t-.008-.123q0-.061-.008-.123t-.009-.123q0-.062-.009-.123t-.01-.123l-.01-.123-.011-.123q-.005-.061-.011-.123t-.012-.123l-.012-.122-.012-.122-.012-.122-.013-.122V30l-.069,0-.069,0L85.8,30l-.069,0-.069,0-.069,0-.069,0-.069,0-.069,0-.069,0H83.958l-.072,0-.072,0-.072,0-.072,0-.072,0-.072,0-.072,0-.072,0-.072,0-.072,0-.072,0-.072,0-.072,0-.072,0-.072,0-.072,0-.072,0-.072,0-.072,0-.072,0-.072-.005-.072-.005-.072-.005-.072-.006-.072-.006-.072-.006-.072-.006-.072-.006-.072-.006-.072-.007-.071-.007-.072-.007-.072-.007-.072-.007-.072-.007-.022,0-.022,0-.023,0-.023,0-.023,0-.023,0-.023,0-.023,0-.023,0-.023,0-.023,0-.023,0-.023,0-.023,0-.023,0-.023,0-.023,0-.023,0-.022,0-.022,0-.023,0-.022,0-.022,0-.022,0-.022,0-.022,0-.022,0-.022,0-.022,0-.022-.005-.022-.005-.022-.005-.021-.006-.021-.006-.021-.006-.021-.006-.021-.006-.021-.006-.021-.006-.02-.007-.02-.007-.02-.007-.02-.007-.02-.007-.02-.007-.02-.008-.019-.008-.019-.008-.019-.008-.019-.008-.019-.009-.018-.009-.018-.009-.018-.01-.018-.01-.018-.01-.017-.01-.017-.01L80.2,29.53l-.016-.011-.016-.011L80.15,29.5l-.016-.012-.015-.012-.015-.012-.015-.013-.015-.013-.014-.013-.013-.013-.013-.013-.013-.013-.013-.013L80,29.356l-.012-.014-.012-.014-.011-.014-.011-.014-.011-.014-.01-.014-.01-.015-.01-.015-.009-.015-.009-.015-.009-.015-.009-.015-.008-.015-.008-.015-.007-.015-.008-.016-.007-.016-.007-.016-.006-.016-.007-.016-.006-.016-.006-.016-.006-.016-.006-.016-.005-.016,0-.016,0-.016,0-.017,0-.017,0-.017,0-.017,0-.017,0-.017,0-.017,0-.017,0-.017,0-.017,0-.017,0-.017,0-.017,0-.017,0-.017,0-.017,0-.017,0-.017,0-.017,0-.017,0-.017,0-.017,0-.017v-.017l0-.017v-.05l-.006-.084q0-.042-.006-.084t-.005-.084q0-.042,0-.084t0-.084q0-.042,0-.084t0-.084q0-.042,0-.084t0-.084q0-.042,0-.084t0-.084q0-.042,0-.084t0-.084q0-.042,0-.084t0-.084q0-.042,0-.084t0-.084q0-.042,0-.084t0-.084q0-.042,0-.084l0-.084q0-.042,0-.084t0-.084q0-.042,0-.084l0-.084,0-.084,0-.084,0-.084,0-.084,0-.084,0-.084,0-.083,0-.084.005-.084.005-.084,0-.084,0-.084.005-.084.005-.083.005-.083,0-.083.005-.083.005-.083,0-.083,0-.083,0-.083,0-.083,0-.083,0-.083,0-.083,0-.083,0-.083,0-.083,0-.083,0-.083,0-.083q0-.042,0-.083t0-.083q0-.041,0-.083t0-.083v-.083q0-.041,0-.083t0-.083q0-.041,0-.083,0-.076,0-.151t0-.151q0-.076,0-.151t0-.151q0-.076-.006-.151t-.007-.151q0-.076-.008-.151t-.008-.151q0-.076-.009-.151t-.01-.151q-.005-.076-.011-.151t-.011-.151q-.006-.075-.012-.151l-.012-.151-.013-.151-.013-.151q-.006-.075-.013-.151l-.013-.151-.013-.151-.013-.151-.013-.15-.013-.15-.013-.15L79.6,19.5l-.012-.15q-.006-.075-.012-.15t-.011-.15q-.005-.075-.01-.149t-.01-.149q0-.075-.009-.149t-.008-.149q0-.074-.007-.149t-.006-.149q0-.074-.005-.149t0-.148q0-.074,0-.148t0-.148q0-.074,0-.148t0-.148q0-.074,0-.147t0-.147q0-.074,0-.147t.006-.147q0-.073.008-.147t.01-.146q.005-.073.012-.146t.014-.146q.007-.073.016-.146t.018-.145q.01-.073.02-.145t.022-.145q.012-.072.024-.144t.027-.144q.014-.072.029-.144t.031-.144q.016-.072.034-.143t.037-.143q.019-.071.039-.143t.042-.142q.022-.071.045-.142t.047-.142q.024-.071.051-.142T80.1,13.8q.028-.07.057-.141.038-.092.078-.183t.084-.181q.043-.09.089-.179t.095-.178q.049-.089.1-.176t.106-.174q.054-.087.111-.173t.116-.171q.059-.085.121-.169t.125-.167q.064-.083.13-.165t.135-.163q.068-.081.139-.161t.144-.159q.073-.079.149-.157t.153-.155q.077-.077.157-.153t.161-.151l.166-.148.17-.146.173-.143.177-.141.181-.139.185-.136.188-.134.192-.131.2-.129.2-.126.2-.123.2-.121.208-.118L85,8.8l.214-.112.217-.109.22-.107.222-.1.225-.1.227-.1.23-.095.232-.091.234-.088.237-.085.239-.082.241-.079.243-.075.245-.072.246-.068.248-.065.25-.062.251-.058.253-.054.254-.051.256-.047.257-.043.258-.04.259-.036.26-.032.261-.028.262-.024.263-.02.264-.016.264-.012.265-.008.265,0h.378l.126,0,.126,0,.126,0,.126,0,.126.005.125.006.125.006.125.007.125.008.125.008.125.009.125.01.125.011.125.011.125.012.125.012.124.013.125.014.124.014L95.74,7l.124.015.124.016.124.016.124.017.124.018.124.018.124.018.124.019.123.019.123.02.123.02.123.021.123.021.123.021.123.022.123.022.123.023.123.023.123.023.123.024.123.024.122.024.122.024L98.7,7.5l.122.025.122.025.122.026.122.026.122.026.122.026.122.026.122.026.122.026.121.027.121.027.121.027.121.027.121.027.121.027.121.027.121.027.069.016.069.016.069.016.069.016.069.016.069.016.069.016.069.016.069.016.069.016.069.016.069.017.069.017.069.017.069.017.069.017.069.017.069.018.069.018.068.018.069.018.068.018.068.018.068.019.068.019.068.019.068.019.067.02.067.02.067.02.067.02.067.021.022.007.022.007.022.007.022.007.022.007.022.007.022.007.022.007.022.007.022.007.022.007.022.007.022.007.022.007.022.007.022.008.043.015.043.015.043.015.043.015.043.016.043.016.043.016.042.016.043.016.042.016.042.016.042.016.042.017.042.017.042.017.041.017.062.026.062.027.061.027.061.028.06.028.06.028.06.029.06.029.059.03.059.03.058.031.058.031.057.031.057.032.056.033.056.033.131.08.127.082.123.084.119.086.115.088.111.089.108.091.1.093.1.094.1.1.094.1.09.1.087.1.084.1.08.1.077.1.074.106.071.107.068.108q.033.054.065.109t.062.111q.03.056.059.112t.057.113q.028.057.054.114t.051.115q.025.058.049.116t.046.117q.022.059.044.118t.041.119q.02.06.039.119t.037.12q.018.06.035.121t.032.122q.016.061.03.122t.028.123q.013.062.026.124t.024.124q.012.062.022.125t.02.125q.01.063.018.126t.017.126q.008.063.015.126t.013.127q.006.063.012.127t.01.127q0,.064.009.127t.007.128q0,.064.006.128t0,.1q0,.049,0,.1t0,.1q0,.049,0,.1t0,.1q0,.049,0,.1t0,.1q0,.049,0,.1t0,.1q0,.049,0,.1t0,.1q0,.049,0,.1t0,.1q0,.049,0,.1t0,.1q0,.049,0,.1l.008.022.008.022.008.022.008.022.008.021.008.022.008.022.008.022.008.022.008.022.008.022.008.022.007.022.007.022.007.022.007.022.036.1.035.1.034.1.033.1.033.1.032.1.031.1.031.1.029.1.029.1.028.1.027.1.027.1.026.1.026.1.025.105.024.105.024.105.023.105.022.105.021.105.021.105.02.106.02.106.019.106.018.106.018.106.017.106.016.106.015.106.015.106q.007.053.014.106l.013.106.012.106.012.106.011.107q.005.053.011.107t.01.107q0,.053.009.107t.009.107q0,.053.008.107t.007.107q0,.053.006.107t.006.107q0,.053.005.107t0,.107q0,.054,0,.107t0,.107q0,.054,0,.107t0,.107q0,.054,0,.107t0,.108q0,.054,0,.107t0,.107q0,.054,0,.107t0,.107q0,.054,0,.107t0,.107q0,.054,0,.107t0,.107q0,.054-.006.107t-.006.107q0,.054-.007.107t-.008.107l0,.04,0,.04,0,.04,0,.04,0,.04,0,.04,0,.04,0,.04,0,.041,0,.041,0,.041,0,.041-.005.041-.005.041-.006.041-.006.041-.007.04-.007.04-.007.04-.007.04-.007.04-.008.04-.008.04-.008.04-.009.041-.009.04-.009.04-.01.04-.01.04-.011.04-.011.04-.012.041-.011.039-.012.039-.012.039-.012.039-.013.039-.013.039-.014.039-.014.039-.015.039-.016.039-.016.039-.017.039-.017.039-.018.039-.019.039-.02.038-.018.038-.019.038-.02.038-.02.038-.021.038-.022.038-.022.038-.023.038-.024.038-.024.037-.025.037-.026.037-.026.037-.027.036-.028.036-.028.036-.07.086-.073.084-.076.083-.08.081-.083.079-.086.077-.089.076-.092.074-.094.072-.1.07-.1.069-.1.067-.106.065-.108.064-.111.062-.113.06-.114.058-.117.057-.119.055-.121.054-.123.052-.125.051-.127.049-.129.048-.131.046-.133.045-.134.043-.136.042-.138.04-.139.039-.141.037-.142.036-.144.034-.145.033-.146.031-.147.03-.148.028-.149.027-.15.025-.151.024-.152.023-.153.022-.153.02-.154.019-.155.018-.155.016-.155.015-.156.014-.155.012-.156.011-.156.01-.157.008-.157.007-.157.006-.157,0-.157,0-.156,0h-.467l-.155,0-.154,0-.153,0-.153-.006q-.023.054-.044.107t-.042.108q-.02.054-.039.108t-.036.108q-.017.054-.033.108t-.03.109q-.014.054-.028.109t-.025.109q-.012.055-.023.109t-.02.109q-.01.055-.018.11t-.016.11q-.008.055-.014.11t-.012.11q-.006.055-.01.11t-.008.11q0,.055-.006.111t0,.111q0,.056,0,.111t0,.112q0,.056,0,.112t0,.112q0,.056,0,.112t0,.112q0,.056.005.112t.006.113q0,.056.007.113t.008.113q0,.057.008.113l.009.113.009.113.01.113,0,.025,0,.025,0,.025,0,.025,0,.025,0,.025,0,.025,0,.025,0,.025,0,.025,0,.025,0,.025,0,.025,0,.025,0,.025,0,.025.254.027.254.028.254.029.254.03.254.031.254.032.254.033.253.034.254.035.253.036.253.037.253.038.253.039.253.04.252.041.252.042.418.072.418.076.417.08.416.085.415.09q.207.046.413.1t.411.1q.2.052.408.108t.4.115q.2.06.4.123t.4.131q.2.068.392.14t.387.149q.192.077.381.159t.375.169q.186.087.369.18.268.136.525.282t.506.3q.248.157.486.323t.467.342q.229.176.448.36t.429.376q.21.192.41.392t.391.406q.191.207.372.42t.354.432q.172.219.335.443t.317.453q.154.229.3.462t.281.469q.136.236.263.476t.245.481q.118.242.229.486t.214.49q.1.246.2.494t.187.5q.063.173.122.347t.117.349q.057.175.112.351t.107.352l16.693-.035-.158.1,46.412-.1L174.091,6.35l-49.1.457.049.041.049.041.048.041.048.041.048.041.048.041.048.041.047.041.048.042.047.042.047.042.047.042.047.042.047.042.046.042.046.042.108.1.107.1.106.1.105.1.1.1.1.1.1.1.1.1.1.1.1.1.1.1.1.1.1.1.1.105.1.106.095.106.13.148.128.149.127.149.125.15.123.151.122.151.12.152.119.153.117.153.116.154.114.155.113.155.111.156.109.156.108.157.106.157.1.158.1.159.1.159.1.16.1.16.1.161.1.161.095.162.093.162.092.163.09.163.089.164.088.164.087.165.085.165.084.166.083.166.081.167.08.167.079.168.078.168.076.168.075.169.074.169.073.169.071.17.07.17.069.17.068.171.067.171.066.171.065.172.063.172.062.172.061.173.06.173.059.173.058.173.057.174.056.174.055.174.054.174.053.174.052.175.051.175.05.175.049.175.048.175.021.076.02.076.02.076.02.077.02.077.019.077.019.077.019.077.018.077.018.077.018.077.017.077.017.078.016.077.016.078.015.078.015.078.014.078.014.078.013.078.012.078.012.078.011.078.01.078q.005.039.01.078t.009.078q0,.039.008.078t.008.078q0,.039.007.078t.006.078q0,.039,0,.078t0,.078q0,.039,0,.078t0,.077q0,.039,0,.077t0,.077q0,.039,0,.077t0,.077q0,.039,0,.077t0,.077q0,.038,0,.077t-.006.077q0,.038-.007.077t-.008.076q0,.038-.009.076t-.01.076q-.005.038-.011.076t-.013.076q-.007.038-.014.076t-.015.075l-.017.075q-.009.038-.018.075l-.019.075-.021.075-.022.075-.023.074-.025.074-.026.074-.028.074-.03.073-.031.073-.032.073-.034.072-.036.072q-.014-.13-.032-.26t-.037-.259q-.02-.129-.042-.258t-.047-.257q-.025-.128-.052-.256t-.057-.255q-.03-.127-.062-.254t-.066-.254q-.034-.126-.07-.252t-.075-.252q-.039-.126-.08-.251t-.084-.25q-.043-.125-.088-.249t-.092-.248q-.047-.124-.1-.247t-.1-.246q-.051-.123-.1-.246t-.108-.245q-.055-.122-.112-.244T131.3,19.5q-.059-.121-.119-.242t-.123-.241q-.062-.12-.126-.241t-.13-.24q-.066-.12-.133-.239t-.136-.238l-.139-.237-.142-.237-.145-.235-.148-.235-.151-.234-.154-.233-.156-.232-.159-.231-.162-.231-.164-.23-.166-.229-.169-.228-.171-.227-.173-.226-.175-.226-.177-.225-.179-.224-.181-.223-.183-.222-.184-.222-.186-.221-.187-.22-.188-.219-.19-.218-.191-.217-.193-.217-.194-.216-.195-.215-.2-.214-.2-.214-.2-.213-.2-.212-.2-.211-.2-.21-.2-.209-.2-.209-.2-.208-.2-.207-.093-.095-.093-.095-.093-.095-.093-.095-.094-.095-.094-.095-.094-.094-.094-.094L122.9,8.77l-.1-.094-.1-.094-.1-.094-.1-.093-.1-.093-.1-.093-.1-.093-.087-.082-.087-.081-.087-.081-.088-.081-.088-.081-.088-.08-.089-.08-.089-.08-.09-.079-.09-.079-.091-.079-.091-.078-.091-.078L120.975,7l-.092-.077-.093-.077-1.405.013-7.018-3.346L73.59,3.588,67.24,6.722h-.6l-.062.057-.062.058-.061.058-.061.058-.06.059-.06.059-.06.059-.06.059-.059.059-.059.06-.058.06-.058.06-.058.06-.058.06-.057.061-.057.061-.088.1-.088.1-.087.1-.086.1-.085.1-.085.1-.084.1-.083.1-.083.1-.082.1-.081.1-.081.1-.08.1-.08.1-.079.1-.079.1-.078.1-.078.1-.077.1-.077.1-.076.1-.076.1-.075.1-.075.1-.075.1-.075.1-.074.1-.074.1-.073.1-.073.1-.073.1-.073.1L63,11.113l-.157.226-.157.226-.156.227-.156.228-.155.229-.154.229-.153.23-.152.231-.151.232-.15.232-.148.233-.147.234-.146.234-.144.235-.143.236-.142.237-.14.237-.138.238-.136.238-.134.239-.132.24-.13.24-.128.241-.126.242-.123.242-.121.243-.119.243q-.059.122-.116.244t-.114.245q-.056.122-.111.245t-.108.246q-.053.123-.105.246t-.1.247q-.05.124-.1.247t-.1.248q-.048.124-.093.248t-.09.249q-.044.125-.086.249t-.083.25q-.041.125-.08.251t-.076.251q-.037.126-.073.252t-.069.252q-.034.126-.065.252t-.061.253q-.03.127-.057.253t-.053.254q-.026.127-.049.254t-.045.255q-.021.127-.041.255t-.036.256q-.017.128-.032.256t-.027.256q-.013.128-.023.257t-.018.257q-.008.129-.013.258T57.127,25q0,.129,0,.258t0,.259q0,.13.006.259t.012.26q.007.13.017.26t.022.26l-.051-.068-.049-.068-.048-.069-.046-.069-.044-.07-.043-.07-.042-.07L56.819,26l-.039-.071-.038-.071-.036-.072-.035-.072-.034-.072-.032-.073-.031-.073-.03-.073-.029-.074-.027-.074-.026-.074-.025-.075-.024-.075-.023-.075-.022-.075-.02-.076-.02-.076-.019-.076-.018-.076-.017-.076-.016-.076-.015-.077-.014-.077q-.007-.038-.013-.077t-.012-.077q-.006-.039-.011-.077l-.01-.077-.01-.077q0-.039-.009-.078t-.008-.078q0-.039-.007-.078l-.007-.078q0-.039-.006-.078t0-.078q0-.039,0-.078t0-.078q0-.039,0-.078t0-.078q0-.039,0-.078t0-.078q0-.039,0-.078t0-.078q0-.039,0-.078t0-.078q0-.039,0-.078t0-.078q0-.039,0-.078t0-.078q0-.039,0-.078t0-.078q0-.039,0-.078t0-.078l0-.078,0-.078,0-.077,0-.077q.006-.089.012-.179t.013-.178q.007-.089.014-.178T56.209,21q.008-.089.016-.178t.017-.178q.009-.089.018-.178t.019-.178q.01-.089.02-.178t.021-.178q.011-.089.022-.177t.023-.177q.012-.089.024-.177t.025-.177q.013-.089.027-.177t.028-.177q.014-.088.029-.177t.03-.176q.015-.088.031-.176t.032-.176q.017-.088.034-.176t.035-.176l.036-.175q.018-.088.037-.175l.039-.175.04-.174q.02-.087.041-.174t.043-.174l.044-.174.045-.173.047-.173.048-.173.049-.173.051-.172.052-.172.054-.172.055-.171.057-.171.058-.17.059-.17.061-.17.063-.169L57.7,14.2l.066-.169.067-.168.069-.168.07-.167.072-.167.073-.166.075-.166.077-.166.079-.165.08-.165.082-.164.083-.164.085-.163.087-.163.089-.162.09-.162.092-.161.094-.161.1-.16.1-.16.1-.159.072-.114.073-.114.074-.114.075-.113.076-.113.077-.113.078-.112.079-.112.08-.112.081-.111.082-.111.083-.11.084-.11.085-.11.086-.109.087-.109.088-.109.089-.108.09-.108.091-.107.092-.107.093-.106.094-.106.095-.106.1-.1.1-.1.1-.1.1-.1.1-.1.1-.1.1-.1.1-.1.035-.035L62.3,7.21l.036-.035.035-.035.036-.035.036-.035.036-.034L62.512,7l.036-.034.036-.034.036-.034.036-.034.037-.034.037-.034.037-.034.037-.034ZM25.175,35.967q-.109-.014-.217-.032t-.214-.039q-.106-.021-.212-.046t-.209-.053q-.1-.028-.206-.059t-.2-.066q-.1-.035-.2-.073t-.2-.079q-.1-.041-.194-.086t-.191-.092q-.095-.047-.188-.1t-.185-.1q-.092-.053-.182-.11t-.178-.116q-.088-.059-.175-.122t-.171-.127q-.085-.065-.168-.133t-.164-.138q-.081-.071-.16-.144T21.4,34.1q-.078-.076-.153-.154t-.149-.159q-.074-.081-.145-.164t-.142-.169q-.07-.086-.137-.174t-.133-.179q-.066-.09-.129-.183t-.125-.188q-.061-.095-.121-.192t-.116-.2q-.057-.1-.112-.2t-.108-.2q-.053-.1-.1-.209t-.1-.213q-.048-.107-.094-.217t-.089-.221q-.044-.111-.085-.224t-.08-.227q-.039-.115-.076-.231t-.071-.234q-.034-.118-.066-.238t-.061-.241q-.029-.121-.056-.244t-.051-.247q-.024-.124-.046-.25t-.041-.252q-.019-.127-.036-.255t-.03-.258q-.014-.129-.025-.26t-.02-.262q-.009-.132-.014-.265t-.009-.267q0-.134,0-.269t0-.271q0-.136.008-.273t.013-.275q.008-.138.019-.277t.024-.278q.014-.139.03-.28t.036-.281q.019-.141.041-.281t.047-.279q.025-.139.052-.277t.057-.275q.03-.137.062-.272t.067-.27q.035-.134.072-.267t.077-.265q.039-.132.081-.262t.086-.26q.044-.129.091-.257t.1-.254q.049-.126.1-.251t.1-.248q.053-.123.108-.245t.112-.242q.057-.12.116-.239t.12-.236q.061-.117.124-.232t.127-.229q.065-.114.131-.225t.135-.222q.068-.11.138-.218t.142-.214q.072-.106.145-.211t.148-.207q.075-.1.151-.2t.155-.2q.078-.1.158-.195t.161-.191q.081-.094.164-.186t.167-.182q.084-.09.169-.177t.172-.173q.087-.085.175-.169t.177-.164q.089-.081.179-.159t.182-.154q.091-.076.184-.149t.186-.145q.094-.071.188-.14t.19-.135q.1-.066.192-.129t.195-.124q.1-.061.2-.119t.2-.114q.1-.055.2-.108t.2-.1q.1-.05.2-.1t.2-.091q.1-.044.206-.086t.207-.08q.1-.038.209-.074t.21-.068q.105-.032.211-.062t.212-.056q.106-.026.213-.05t.214-.043q.107-.02.215-.037t.215-.03q.108-.014.216-.024t.217-.017q.109-.007.218-.011t.218,0l.193,0,.191.008.19.013.188.018.186.024.184.029.183.034.181.039.178.044.177.049.175.053.173.058.17.063.168.068.166.072.164.077.02.01.02.01.02.01.02.01.02.01.02.01.02.01.02.01.02.01.02.011L31.8,15l.02.011.02.011.02.011.02.011.02.011q.089.05.177.1t.174.107q.086.055.171.113t.167.118q.083.061.164.124t.161.129q.08.066.158.134t.155.139q.077.071.151.144t.148.149q.073.076.144.154t.141.159q.07.08.138.163t.134.168q.066.085.13.172t.126.177q.062.09.122.181t.118.186q.058.094.114.19t.111.194q.054.1.107.2t.1.2q.05.1.1.206t.094.21q.046.106.09.214t.085.218q.042.11.081.221t.076.225q.037.113.072.228t.067.232q.033.117.063.235t.058.239q.028.12.053.242t.048.245q.023.123.043.248t.038.251q.018.126.033.254t.028.257q.013.129.023.26t.018.262q.007.132.012.265t.007.267q0,.134,0,.27t0,.272q0,.137-.009.275t-.015.277q-.009.139-.021.279t-.027.281q-.015.141-.032.281t-.038.28q-.02.14-.043.278T35.864,26q-.025.138-.054.275t-.059.273q-.031.136-.064.271t-.069.269q-.036.134-.074.267t-.079.265q-.041.132-.083.263t-.088.26q-.045.13-.093.258t-.1.255q-.05.127-.1.253t-.106.25q-.054.124-.111.247t-.115.244q-.059.121-.119.241t-.124.238q-.063.118-.128.235t-.132.231q-.067.115-.136.228t-.139.224q-.071.111-.143.221t-.147.217q-.074.108-.15.213t-.154.209q-.078.1-.158.205t-.161.2q-.081.1-.164.2t-.168.193q-.084.1-.17.188t-.174.184q-.088.091-.177.179t-.18.175q-.091.086-.183.17t-.185.165q-.093.081-.188.16t-.191.155q-.1.076-.193.15t-.2.145q-.1.071-.2.139t-.2.134q-.1.065-.2.128t-.2.122q-.1.06-.206.117t-.208.111q-.1.054-.21.1t-.212.1q-.106.048-.214.093t-.215.086q-.108.042-.217.08t-.218.074q-.109.035-.219.067t-.221.061q-.11.029-.222.054t-.223.047q-.112.022-.224.04t-.225.033q-.113.015-.226.026t-.226.019q-.113.008-.227.012t-.227,0h-.01q-.112,0-.224,0t-.222-.011q-.11-.007-.219-.018T25.175,35.967ZM156.1,34.287a9.437,9.437,0,0,1-.822-.475q-.4-.26-.788-.564t-.748-.646q-.363-.343-.7-.723t-.653-.793q-.313-.413-.6-.857t-.538-.915q-.253-.471-.473-.967t-.4-1.012q-.183-.516-.329-1.051t-.25-1.085q-.1-.549-.167-1.112t-.078-1.108q-.016-.545.012-1.071t.1-1.03q.069-.5.178-.983t.254-.932q.146-.452.327-.876t.4-.815a8.686,8.686,0,0,1,.461-.75,8.05,8.05,0,0,1,.522-.679,7.49,7.49,0,0,1,.58-.6,7.02,7.02,0,0,1,.634-.525,6.671,6.671,0,0,1,.685-.44,6.441,6.441,0,0,1,.732-.351,6.37,6.37,0,0,1,.776-.257,6.458,6.458,0,0,1,.816-.158,6.733,6.733,0,0,1,.854-.054,7.062,7.062,0,0,1,.868.054,7.415,7.415,0,0,1,.856.158,7.926,7.926,0,0,1,.841.257,8.576,8.576,0,0,1,.821.351q.4.2.8.44t.767.525q.376.283.733.6t.695.679q.337.358.651.75t.6.815q.288.423.549.876t.491.932q.23.48.427.983t.358,1.03q.161.526.283,1.071t.2,1.108q.081.562.115,1.112t.025,1.085q-.01.535-.063,1.051t-.147,1.012q-.094.5-.228.967t-.306.915q-.172.444-.381.857a8.893,8.893,0,0,1-.452.793,8.245,8.245,0,0,1-.52.723,7.626,7.626,0,0,1-.585.646,7.109,7.109,0,0,1-.645.564,6.715,6.715,0,0,1-.7.475,6.459,6.459,0,0,1-.755.38,6.364,6.364,0,0,1-.8.279,6.451,6.451,0,0,1-.849.171,6.738,6.738,0,0,1-.89.058,7.075,7.075,0,0,1-.9-.058,7.452,7.452,0,0,1-.893-.171,7.991,7.991,0,0,1-.875-.279A8.661,8.661,0,0,1,156.1,34.287Z" transform="translate(8.156 3.967)" fill="none" stroke="#334051" stroke-width="2"/>
        </g>
      </g>
      <path id="Path_5267" data-name="Path 5267" d="M770.88,893.828H806.8" transform="translate(-770.494 -823.969)" fill="none" stroke="#334051" stroke-width="2"/>
      <path id="Path_5268" data-name="Path 5268" d="M770.88,893.828H806.8" transform="translate(-770.494 -815.086)" fill="none" stroke="#334051" stroke-width="2"/>
      <path id="Path_5274" data-name="Path 5274" d="M770.88,893.828H806.8" transform="translate(-674.709 -815.086)" fill="none" stroke="#334051" stroke-width="2"/>
      <path id="Path_5276" data-name="Path 5276" d="M770.88,893.828H806.8" transform="translate(-686.682 -804.589)" fill="none" stroke="#334051" stroke-width="2"/>
      <path id="Path_5275" data-name="Path 5275" d="M770.88,893.828h59.867" transform="translate(-704.642 -811.049)" fill="none" stroke="#334051" stroke-width="2"/>
      <path id="Path_5273" data-name="Path 5273" d="M770.88,893.828h17.961" transform="translate(-770.494 -796.513)" fill="none" stroke="#334051" stroke-width="2"/>
      <path id="Path_5270" data-name="Path 5270" d="M806.8,893.828H770.881" transform="translate(-602.869 -804.589)" fill="none" stroke="#334051" stroke-width="2"/>
      <path id="Path_5272" data-name="Path 5272" d="M806.8,893.828H770.881" transform="translate(-602.869 -825.723)" fill="none" stroke="#334051" stroke-width="2"/>
      <path id="Path_5269" data-name="Path 5269" d="M770.88,893.828h28.9" transform="translate(-770.494 -811.049)" fill="none" stroke="#334051" stroke-width="2"/>
      <path id="Path_5271" data-name="Path 5271" d="M799.78,893.828h-28.9" transform="translate(-595.848 -808.626)" fill="none" stroke="#334051" stroke-width="2"/>
    </g>
    <g id="Group_6900" data-name="Group 6900" transform="translate(1064.497 643.813)">
      <g id="Rectangle_249" data-name="Rectangle 249" transform="translate(0 47.879)" fill="#fff" stroke="#334051" stroke-width="2">
        <rect width="89.308" height="76.408" rx="17" stroke="none"/>
        <rect x="1" y="1" width="87.308" height="74.408" rx="16" fill="none"/>
      </g>
      <path id="Path_5278" data-name="Path 5278" d="M523.005,602.489a6.737,6.737,0,1,1,10.744,5.408l2.144,15.235h-12.3l2.144-15.235A6.721,6.721,0,0,1,523.005,602.489Z" transform="translate(-485.088 -523.358)" fill="#334051"/>
      <path id="Path_1" data-name="Path 1" d="M399.463,333.879h7.918V314.643a20.725,20.725,0,0,1,41.45,0v19.236h7.918V314.643a28.643,28.643,0,0,0-57.286,0Z" transform="translate(-383.452 -286)" fill="#b3c6c5"/>
    </g>
    <g id="Group_6899" data-name="Group 6899" transform="translate(924.589 552.262)">
      <g id="Rectangle_210" data-name="Rectangle 210" transform="translate(0)" fill="#fff" stroke="#b3c6c5" stroke-width="2">
        <rect width="92.5" height="92.5" rx="46.25" stroke="none"/>
        <rect x="1" y="1" width="90.5" height="90.5" rx="45.25" fill="none"/>
      </g>
      <path id="Path_5069" data-name="Path 5069" d="M21.7,7.339a.361.361,0,0,0-.46,0L6.888,18.82a.386.386,0,0,0-.138.285V40.265a.185.185,0,0,0,.184.184H16.87a.185.185,0,0,0,.184-.184V27.385a.185.185,0,0,1,.184-.184H25.7a.185.185,0,0,1,.184.184v12.88a.185.185,0,0,0,.184.184H36a.185.185,0,0,0,.184-.184V19.105a.371.371,0,0,0-.138-.285Z" transform="translate(24.878 25.292)" fill="#334051"/>
      <path id="Path_5070" data-name="Path 5070" d="M41.158,17.745,23.771,3.817a2.019,2.019,0,0,0-2.521,0L13.679,9.971V6.089a.185.185,0,0,0-.184-.184H7.975a.185.185,0,0,0-.184.184v8.482L3.863,17.8a1.287,1.287,0,0,0-.11,1.923,1.28,1.28,0,0,0,.911.377,1.3,1.3,0,0,0,.81-.285L22.391,6.2a.165.165,0,0,1,.12-.037.223.223,0,0,1,.12.037L39.548,19.76a1.3,1.3,0,0,0,.81.285,1.306,1.306,0,0,0,1.3-1.362A1.307,1.307,0,0,0,41.158,17.745Z" transform="translate(23.839 23.023)" fill="#334051"/>
    </g>
    <g id="Group_6901" data-name="Group 6901" transform="translate(1018.248 417.823)">
      <g id="Rectangle_211" data-name="Rectangle 211" transform="translate(0 0)" fill="#fff" stroke="#b3c6c5" stroke-width="2">
        <rect width="92.5" height="92.5" rx="46.25" stroke="none"/>
        <rect x="1" y="1" width="90.5" height="90.5" rx="45.25" fill="none"/>
      </g>
      <path id="Icon_awesome-graduation-cap" data-name="Icon awesome-graduation-cap" d="M46.654,11.889,25.743,4.79a5.446,5.446,0,0,0-3.508,0l-20.912,7.1a2.009,2.009,0,0,0,0,3.777L4.969,16.9a6.939,6.939,0,0,0-1.34,3.885,2.7,2.7,0,0,0-.191,4.392L1.524,34.7a1.3,1.3,0,0,0,1.17,1.613H6.9A1.3,1.3,0,0,0,8.072,34.7L6.158,25.181a2.695,2.695,0,0,0-.135-4.351,4.015,4.015,0,0,1,1.551-3.042l14.661,4.978a5.452,5.452,0,0,0,3.508,0l20.912-7.1A2.009,2.009,0,0,0,46.654,11.889ZM26.447,25.3a7.632,7.632,0,0,1-4.917,0L10.659,21.61,9.6,31.009c0,2.928,6.444,5.3,14.393,5.3s14.393-2.373,14.393-5.3l-1.063-9.4L26.447,25.3Z" transform="translate(21.972 26.084)" fill="#334051"/>
    </g>
    <g id="Group_6902" data-name="Group 6902" transform="translate(878.34 698.374)">
      <g id="Group_6647" data-name="Group 6647" transform="translate(0 0)">
        <g id="Rectangle_211-2" data-name="Rectangle 211" transform="translate(0)" fill="#fff" stroke="#b3c6c5" stroke-width="2">
          <rect width="92.5" height="92.5" rx="46.25" stroke="none"/>
          <rect x="1" y="1" width="90.5" height="90.5" rx="45.25" fill="none"/>
        </g>
      </g>
      <path id="Icon_awesome-car" data-name="Icon awesome-car" d="M41.841,13.873h-5.01l-1.393-3.481a9.325,9.325,0,0,0-8.7-5.891H16.109a9.328,9.328,0,0,0-8.7,5.891L6.014,13.873H1.005A1,1,0,0,0,.031,15.12l.5,2.008a1,1,0,0,0,.974.761h1.68a5.318,5.318,0,0,0-1.848,4.017v4.017a5.312,5.312,0,0,0,1.339,3.509v4.525a2.678,2.678,0,0,0,2.678,2.678H8.034a2.678,2.678,0,0,0,2.678-2.678V31.279H32.135v2.678a2.678,2.678,0,0,0,2.678,2.678h2.678a2.678,2.678,0,0,0,2.678-2.678V29.432a5.309,5.309,0,0,0,1.339-3.509V21.906a5.321,5.321,0,0,0-1.847-4.017h1.68a1,1,0,0,0,.974-.761l.5-2.008A1,1,0,0,0,41.841,13.873ZM12.379,12.381a4.017,4.017,0,0,1,3.73-2.525H26.737a4.017,4.017,0,0,1,3.73,2.525l1.668,4.17H10.712l1.668-4.17ZM8.034,25.907a2.526,2.526,0,0,1-2.678-2.67,2.526,2.526,0,0,1,2.678-2.67c1.607,0,4.017,2.4,4.017,4S9.64,25.907,8.034,25.907Zm26.779,0c-1.607,0-4.017.267-4.017-1.335s2.41-4,4.017-4a2.526,2.526,0,0,1,2.678,2.67,2.526,2.526,0,0,1-2.678,2.67Z" transform="translate(24.711 25.339)" fill="#334051"/>
    </g>
    <path id="Path_5467" data-name="Path 5467" d="M329.845,691.663H1335.6" transform="translate(603.093 258.75)" fill="none" stroke="#334051" stroke-linecap="round" stroke-width="2"/>
    <path id="Path_5472" data-name="Path 5472" d="M-741.458,533.246c33.995-.142,34.878,0,34.878,0s2.637,27.08,29.716,27.085,25.681-27.085,25.681-27.085h43.157s50.929-3.493,46.787,47.249c.068.121-.214,15.736,0,16.136-.409,37.234-22.354,202.289-22.354,202.289s-35.023,13.091-90.384,3.135-94.876-3.135-94.876-3.135l-18.263-209.18s-.055-5.433,0-13.371C-787.02,547.24-769.2,533.362-741.458,533.246Z" transform="translate(2388.281 126.909)" fill="#334051" stroke="#334051" stroke-width="2"/>
    <path id="Path_5476" data-name="Path 5476" d="M892.485,526.084s1.23,27.843,32.565,27.266,30.387-22.455,31.188-27.266-6.593-58.387-6.593-58.387H899.46Z" transform="translate(788.073 134.713)" fill="#fff" stroke="#334051" stroke-width="2"/>
    <path id="Path_5477" data-name="Path 5477" d="M4.664-.009c9.322,0,23.712,12.824,23.712,25.355S25.959,55.721,16.638,55.721,1.017,37.877,1.017,25.346-4.658-.009,4.664-.009Z" transform="translate(1670.379 565.39)" fill="#334051"/>
    <path id="Path_5478" data-name="Path 5478" d="M878.278,369.154c3.367.421,55.728,0,55.728,0V425.23s-2.482,32.208-30.354,32.644-35.8-18.628-36.174-32.644,0-56.076,0-56.076Z" transform="translate(807.451 192.964)" fill="#fff" stroke="#334051" stroke-width="2"/>
    <path id="Path_5485" data-name="Path 5485" d="M14.905,0c7.9,0,9.946,12.818,9.946,25.349s-5.686,17.739-5.686,17.739-4.9,2.4-7.586-5.614c-2.013-6-9.01-10.19-9.01-15.728C2.569,16.3-1.5,9.174.6,5.1,3.141.181,10.443,0,14.905,0Z" transform="translate(1727.729 565.38) rotate(7)" fill="#334051"/>
    <path id="Path_5479" data-name="Path 5479" d="M.211,0a69.035,69.035,0,0,0,0,10.323c.474,3.906,8.933,0,8.933,0" transform="translate(1703.027 606.653) rotate(21)" fill="none" stroke="#334051" stroke-linecap="round" stroke-width="2"/>
    <ellipse id="Ellipse_175" data-name="Ellipse 175" cx="3.531" cy="3.531" rx="3.531" ry="3.531" transform="translate(1685.435 596.907)" fill="#334051"/>
    <ellipse id="Ellipse_176" data-name="Ellipse 176" cx="3.531" cy="3.531" rx="3.531" ry="3.531" transform="translate(1711.321 596.907)" fill="#334051"/>
    <path id="Path_5480" data-name="Path 5480" d="M886.41,436.821a6.949,6.949,0,0,1,6.241-3.421,8.1,8.1,0,0,1,6.326,3.421" transform="translate(796.219 157.852)" fill="none" stroke="#334051" stroke-linecap="round" stroke-width="2"/>
    <path id="Path_5483" data-name="Path 5483" d="M886.41,436.821a6.949,6.949,0,0,1,6.241-3.421,8.1,8.1,0,0,1,6.326,3.421" transform="translate(821.96 157.852)" fill="none" stroke="#334051" stroke-linecap="round" stroke-width="2"/>
    <path id="Path_5484" data-name="Path 5484" d="M0,0A8.522,8.522,0,0,0,7.654,4.2,9.928,9.928,0,0,0,15.411,0" transform="translate(1710.365 634.25) rotate(-25)" fill="none" stroke="#334051" stroke-linecap="round" stroke-width="2"/>
    <path id="Path_5474" data-name="Path 5474" d="M38.844,0c.2.128,4.022,1.25,4.368,21.1s.268,53.856-.813,59.09C29.273,80.376-1.458,78.1.054,39.018S26.251.688,38.844,0Z" transform="translate(1750.157 535.81) rotate(91)" fill="#5e91cd"/>
    <path id="Path_5475" data-name="Path 5475" d="M3.9,0C9.13,1.024,17.569,7.5,17.8,12.141c.355,7.037-4.53,13.462-2.926,25.481,1.109,8.31,5.825,18.029,7.715,23.031,1.311,3.472,3.245,9.238,2.183,11.232-.66,1.253-3.075.263-5.488-.538C12.621,69.213,8.6,62.637,8.26,61.771,3.02,47.019,2.558,51.812.812,34.846S.294,9.739,2.993.177A3.718,3.718,0,0,0,3.9,0Z" transform="translate(1734.875 573.754) rotate(101)" fill="#4c7fbc"/>
    <path id="Path_5481" data-name="Path 5481" d="M1410.032,552.122s8.631,7.418,15.236,8.878c.028.009.3.083.576.156-.179.909-6.206,7.695-16.386,6.321-.225-.029-.7-.11-1.191-.211C1409.326,559.887,1410.032,552.122,1410.032,552.122Z" transform="translate(272.939 86.968)" fill="#334051"/>
    <path id="Union_67" data-name="Union 67" d="M19.553,69.634c-3.808-3.789-9.016-7.86-13.651-15.368C3.734,50.8-1.729,41.532.542,38.776c1.813-2.508,4.482,2.931,4.482,2.931s2.169,2.746,6.161,8.27a81.823,81.823,0,0,0,7.36,8.351c3.162,3.21.551-.471.551-.471l-8.017-9.4S.987,29.926,3.869,25.175s6.514,6.45,9.851,12.68c1.825,3.407,6.834,9.388,10.817,13.9,3.628,4.112,3.7,3.589.488-.891C20.8,44.971,15.887,37.65,13.98,32.889c-3.5-8.721-3.231-15.454-2.649-18.558s5.276-9.145,6.446.338c.072.4.154.816.188.968,2.168,9.971,9.7,22.4,14.547,29.636,2.83,4.226,3,3.057.984-1.262-2.935-6.273-6.386-13.732-7.278-16.025-1.547-3.967-5.44-19.616-1.733-24.978S32.062.2,31.637,4.868c1.273,25.17,13.215,35.966,13.215,35.966l3.406,4.612c.688-2.086,1.163-3.514,1.163-3.514s-2.978-15.118,1.592-19.765,5.938,9.648,5.938,9.648l3.633,30.321L76.491,83.673l-21.2,18.215S23.362,73.424,19.553,69.634Z" transform="translate(1733.074 974.719) rotate(-90)" fill="#fff" stroke="#334051" stroke-width="2"/>
    <path id="Path_5482" data-name="Path 5482" d="M159.268,0c-.047,13.521-2.032,27.372-2.784,48.465-.818,22.926.813,32.6.83,67.235.187.432,4.794,61.085-55.614,61.765-1.919-.513-95.7,8.719-97.727,7.969C2.085,182.449,1.712,152.64,0,152.224l90.4-30.36L86,78.546S159.194-.436,159.268,0Z" transform="translate(1705.065 787.751) rotate(-42)" fill="#c8d3e0" stroke="#334051" stroke-width="2"/>
    <path id="Path_5470" data-name="Path 5470" d="M7232.921,867.139l10.778,9.024" transform="translate(-5681.99 -117.908)" fill="none" stroke="#334051" stroke-width="2"/>
    <path id="Path_5488" data-name="Path 5488" d="M0,0,10.778,9.024" transform="matrix(0.208, 0.978, -0.978, 0.208, 1860.376, 805.511)" fill="none" stroke="#334051" stroke-width="2"/>
    <g id="Group_6903" data-name="Group 6903" transform="matrix(0.996, -0.087, 0.087, 0.996, 1193.617, 328.424)">
      <path id="Path_5422" data-name="Path 5422" d="M19.107,0H343.2a19.107,19.107,0,0,1,19.107,19.107V205.217A19.107,19.107,0,0,1,343.2,224.324H19.107A19.107,19.107,0,0,1,0,205.217V19.107A19.107,19.107,0,0,1,19.107,0Z" transform="translate(0 223.059) rotate(-38)" fill="#505d6f"/>
      <g id="Mask_Group_8" data-name="Mask Group 8" transform="translate(0 0)" clip-path="url(#clip-path)">
        <path id="Path_5401" data-name="Path 5401" d="M0,0S7.814,73.034,66.781,79.086s56.956,65.661,58.26,84.738,8.809,34.034,30.581,38.912c12,2.688,36.687,4.857,63.047-14.887,8.579-6.482,18.3-17.129,25.065-10.956,3.472,3.514,5.128,9.105,3.2,16.044-2.034,7.325-7.9,16.254-7.6,24.523.647,17.835,13.5,33.928,13.277,40.954" transform="translate(24.796 166.42) rotate(-38)" fill="none" stroke="#fff" stroke-width="2" opacity="0.199"/>
        <path id="Path_5402" data-name="Path 5402" d="M230.849,0c-3.876,3.343-22.841,12.679-50.261,15.493-58.967,6.052-57.326,69.575-58.63,88.652s-8.809,34.033-30.581,38.912c-12,2.688-36.687,4.857-63.047-14.887-8.579-6.482-18.3-17.129-25.065-10.956-3.472,3.514-4.125,8.7-2.2,15.643,7.557,18.25,4.091,30.225,3.46,33.063" transform="matrix(0.719, 0.695, -0.695, 0.719, 132.029, 120.115)" fill="none" stroke="#fff" stroke-width="2" opacity="0.199"/>
        <path id="Path_5403" data-name="Path 5403" d="M0,0S1.952,52.908,47.985,59.517s57.594,31.364,60.779,36.069c2.134,3.153,7.973,20.13,21.116,33.743a59.662,59.662,0,0,0,24.705,15.093c27.972,8.251,46.781-18.25,43.378-40.724-1.433-11.29-21.524-47.876-49.747-12-4.077,5.226-6.159,12.171-14.931,10.81-14.078-.863-11.911-32.676-17.867-57.585S98.5,16.2,98.284,0" transform="translate(39.311 155.4) rotate(-38)" fill="none" stroke="#fff" stroke-width="2" opacity="0.199"/>
        <g id="Path_5404" data-name="Path 5404" transform="translate(221.619 158.322) rotate(-82)" fill="none" opacity="0.199">
          <path d="M28.916,0C39.5,0,43.374,8.4,40.192,18.647S26.878,32.7,19.018,33.575,0,30.834,0,20.248,18.33,0,28.916,0Z" stroke="none"/>
          <path d="M 28.91611289978027 1.999996185302734 C 26.53233337402344 1.999996185302734 23.64482307434082 2.543636322021484 20.56573295593262 3.572135925292969 C 17.43673324584961 4.617315292358398 14.32197380065918 6.094606399536133 11.55819320678711 7.844295501708984 C 8.654632568359375 9.682485580444336 6.248992919921875 11.76103591918945 4.601364135742188 13.85525512695312 C 2.875225067138672 16.04924583435059 2.000003814697266 18.20016479492188 2.000003814697266 20.24826431274414 C 2.000003814697266 23.93357467651367 3.556613922119141 26.84633636474609 6.626583099365234 28.9056453704834 C 9.274944305419922 30.6821460723877 12.94521331787109 31.70101547241211 16.6962833404541 31.70101547241211 C 17.41180419921875 31.70101547241211 18.11809349060059 31.66263580322266 18.79553413391113 31.58693504333496 C 23.55629348754883 31.05497550964355 34.98526382446289 28.67144584655762 38.28192138671875 18.05423545837402 C 39.08623504638672 15.46386528015137 39.40342330932617 13.03692626953125 39.22468185424805 10.84083557128906 C 39.05524444580078 8.759006500244141 38.44613265991211 6.993135452270508 37.41426467895508 5.592275619506836 C 36.58869171142578 4.471485137939453 35.4926643371582 3.598485946655273 34.15661239624023 2.997526168823242 C 32.68505477905273 2.335617065429688 30.92189407348633 1.999996185302734 28.91611289978027 1.999996185302734 M 28.91611289978027 -3.814697265625e-06 C 39.50187301635742 -3.814697265625e-06 43.37362289428711 8.400415420532227 40.19196319580078 18.64730453491211 C 37.01030349731445 28.8941764831543 26.87821388244629 32.69623565673828 19.01762390136719 33.57456588745117 C 11.15702438354492 34.45291519165039 3.814697265625e-06 30.83404731750488 3.814697265625e-06 20.24826431274414 C 3.814697265625e-06 9.662496566772461 18.3303337097168 -3.814697265625e-06 28.91611289978027 -3.814697265625e-06 Z" stroke="none" fill="#fff"/>
        </g>
        <g id="Path_5405" data-name="Path 5405" transform="translate(88.891 361.325) rotate(-65)" fill="none" opacity="0.318">
          <path d="M28.916,0C39.5,0,43.374,8.4,40.192,18.647S29.7,34.827,21.841,35.705,0,30.834,0,20.248,18.33,0,28.916,0Z" stroke="none"/>
          <path d="M 28.91611289978027 1.999996185302734 C 26.53233337402344 1.999996185302734 23.64482307434082 2.543636322021484 20.56573295593262 3.572135925292969 C 17.43673324584961 4.617317199707031 14.32197380065918 6.094608306884766 11.55819320678711 7.844297409057617 C 8.654632568359375 9.682487487792969 6.248992919921875 11.76103782653809 4.601364135742188 13.85525703430176 C 2.875225067138672 16.04924774169922 2.000003814697266 18.20016860961914 2.000003814697266 20.24826812744141 C 2.000003814697266 22.18724822998047 2.570941925048828 24.03609848022461 3.696952819824219 25.74344635009766 C 4.750843048095703 27.3414478302002 6.260845184326172 28.79117774963379 8.185012817382812 30.0523681640625 C 9.961513519287109 31.21675872802734 12.05229377746582 32.18034744262695 14.23133277893066 32.83894729614258 C 16.29676246643066 33.46319580078125 18.3566837310791 33.79316711425781 20.18840408325195 33.79316711425781 C 20.68966293334961 33.79316711425781 21.17104339599609 33.76777648925781 21.61917304992676 33.71770858764648 C 25.1883430480957 33.31889724731445 28.58314323425293 31.75668716430664 31.43657302856445 29.19998741149902 C 34.50425338745117 26.45131683349609 36.87134170532227 22.59717750549316 38.28192138671875 18.05422782897949 C 39.08623504638672 15.46385765075684 39.40342330932617 13.03692817687988 39.22468185424805 10.8408374786377 C 39.05524444580078 8.759008407592773 38.44613265991211 6.993137359619141 37.41427230834961 5.592287063598633 C 36.58869171142578 4.471488952636719 35.4926643371582 3.598487854003906 34.15661239624023 2.997528076171875 C 32.68505477905273 2.335617065429688 30.92189407348633 1.999996185302734 28.91611289978027 1.999996185302734 M 28.91611289978027 -3.814697265625e-06 C 39.50187301635742 -3.814697265625e-06 43.37362289428711 8.400417327880859 40.19196319580078 18.64729690551758 C 37.01031494140625 28.89418792724609 29.70186233520508 34.82700729370117 21.84126281738281 35.70533752441406 C 13.98065185546875 36.58367919921875 3.814697265625e-06 30.83403587341309 3.814697265625e-06 20.24826812744141 C 3.814697265625e-06 9.662498474121094 18.3303337097168 -3.814697265625e-06 28.91611289978027 -3.814697265625e-06 Z" stroke="none" fill="#fff"/>
        </g>
        <g id="Path_5406" data-name="Path 5406" transform="matrix(0.927, 0.375, -0.375, 0.927, 147.569, 180.999)" fill="none" opacity="0.199">
          <path d="M23.111.534c8.846-1.7,18.25.525,15.8,8.406-1.2,3.854-.519,11.622-16.649,16.305C5.108,30.575,0,21.459,0,17.3,0,9.158,14.265,2.231,23.111.534Z" stroke="none"/>
          <path d="M 28.56567573547363 2.000005722045898 C 26.92160606384277 2.000005722045898 25.2132453918457 2.167736053466797 23.48804664611816 2.49853515625 C 21.3427848815918 2.909875869750977 18.92645645141602 3.631654739379883 16.50027656555176 4.585836410522461 C 13.90365600585938 5.607046127319336 11.41700553894043 6.85307502746582 9.309177398681641 8.189214706420898 C 4.595775604248047 11.1769962310791 1.999996185302734 14.41237545013428 1.999996185302734 17.29936599731445 C 1.999996185302734 18.41183471679688 2.572795867919922 20.28264617919922 4.187126159667969 21.89392471313477 C 6.139415740966797 23.84252548217773 9.108467102050781 24.87249565124512 12.77328491210938 24.87249565124512 C 15.39409637451172 24.87249565124512 18.3880558013916 24.35520553588867 21.67200660705566 23.33499526977539 L 21.70771598815918 23.32427597045898 C 24.8186149597168 22.42105484008789 27.45844650268555 21.34183502197266 29.55389595031738 20.11658477783203 C 31.28901672363281 19.10202407836914 32.69938659667969 17.95680618286133 33.74582672119141 16.71273422241211 C 35.62513732910156 14.47849559783936 36.10698699951172 12.24297523498535 36.5321044921875 10.27061462402344 C 36.67843627929688 9.591714859008789 36.81664657592773 8.950454711914062 37.00407409667969 8.346845626831055 C 37.49525451660156 6.764915466308594 37.39503479003906 5.53570556640625 36.69766616821289 4.588954925537109 C 35.50355529785156 2.967836380004883 32.46355438232422 2.000005722045898 28.56567573547363 2.000005722045898 M 28.56567001342773 0 C 35.34309768676758 0 40.85472869873047 2.689947128295898 38.91411590576172 8.939914703369141 C 37.71758651733398 12.79347610473633 38.39547729492188 20.56176567077637 22.26536560058594 25.24495506286621 C 5.107879638671875 30.57516479492188 0 21.45948600769043 -3.814697265625e-06 17.29936599731445 C -3.814697265625e-06 9.158235549926758 14.26525497436523 2.230535507202148 23.11141586303711 0.5343151092529297 C 24.94176864624023 0.1833534240722656 26.79751014709473 0 28.56567001342773 0 Z" stroke="none" fill="#fff"/>
        </g>
        <g id="Path_5407" data-name="Path 5407" transform="matrix(-0.819, -0.574, 0.574, -0.819, 128.976, 389.989)" fill="none" opacity="0.199">
          <path d="M145.253,45.162c6.3,0,13.792.446,11.9,6.541s2.489,20.41-4.8,22.559c-10.13,1.6-12.38-8.558-25.822-14.474s-28.583-9.28-40.111-8.95c-19.23.777-43.127,15.745-67.2,4.192C13.009,52.043,4.984,45.7,1.878,38.31c-5.55-13.2,2.983-30.65,2.839-33.146C3.317-18.174,140.2,45.162,145.253,45.162Z" stroke="none"/>
          <path d="M 150.2940826416016 72.43072509765625 C 150.8060607910156 72.43072509765625 151.3474426269531 72.38922119140625 151.9052429199219 72.30727386474609 C 152.8135375976562 72.00939178466797 153.8844146728516 71.27818298339844 154.4220123291016 68.59113311767578 C 154.8933868408203 66.23509216308594 154.7952728271484 63.19132995605469 154.7003784179688 60.24781036376953 C 154.58935546875 56.80348205566406 154.4844970703125 53.55015563964844 155.2421417236328 51.11006927490234 C 155.6811218261719 49.69630813598633 155.30810546875 49.18991851806641 155.1855316162109 49.02350616455078 C 154.9124298095703 48.65274429321289 154.0986175537109 47.96891784667969 151.7166900634766 47.5548095703125 C 149.7277374267578 47.20900344848633 147.3329925537109 47.16237258911133 145.2527465820312 47.16237258911133 C 143.8263397216797 47.16237258911133 139.7621917724609 45.54622268676758 122.9977722167969 38.6331787109375 C 106.9221038818359 32.00417709350586 84.90570831298828 22.92541694641113 63.92255783081055 15.37715625762939 C 39.24725341796875 6.50072193145752 22.14353561401367 2.000004529953003 13.0865364074707 2.000004529953003 C 9.107949256896973 2.000004529953003 7.687601566314697 2.877352237701416 7.19505786895752 3.400330543518066 C 6.960710048675537 3.649134874343872 6.655797004699707 4.090221881866455 6.713253974914551 5.047917366027832 C 6.766666889190674 5.969308853149414 6.422862529754639 7.099699974060059 5.57038402557373 9.794721603393555 C 4.582688331604004 12.91730880737305 3.090036392211914 17.63619995117188 2.393688440322876 22.67726516723633 C 1.5865797996521 28.52000427246094 2.033384084701538 33.5186767578125 3.721797227859497 37.53474426269531 C 5.027666568756104 40.6422233581543 7.451210498809814 43.86037445068359 10.73044967651367 46.84126663208008 C 13.57221031188965 49.42450332641602 16.89677619934082 51.69261169433594 20.09092712402344 53.2274169921875 C 25.92831802368164 56.02917861938477 32.13123321533203 57.39113616943359 39.05410003662109 57.39113616943359 C 48.14142608642578 57.39113616943359 57.03757858276367 55.06339645385742 65.64083862304688 52.81228637695312 C 72.93049621582031 50.9048957824707 79.81586456298828 49.10328674316406 86.34071350097656 48.8397216796875 L 86.36418914794922 48.83891677856445 C 86.89851379394531 48.82361221313477 87.44869232177734 48.81585311889648 87.99945068359375 48.81585311889648 C 99.62655639648438 48.81585311889648 114.3325805664062 52.23324203491211 127.3380584716797 57.95737457275391 C 133.4329071044922 60.63989639282227 137.3807373046875 64.19145965576172 140.5528869628906 67.04518127441406 C 144.0283203125 70.17176818847656 146.5393829345703 72.43076324462891 150.2940521240234 72.43072509765625 L 150.2940826416016 72.43072509765625 M 150.2940826416016 74.43072509765625 C 141.8445587158203 74.43080139160156 139.0128479003906 65.28096771240234 126.5323867797852 59.78791809082031 C 113.0903472900391 53.87163543701172 97.94971466064453 50.50788879394531 86.42142486572266 50.83809280395508 C 67.19101715087891 51.61491775512695 43.29444122314453 66.58275604248047 19.22551536560059 55.03048324584961 C 13.00901508331299 52.04343795776367 4.983558177947998 45.69974517822266 1.877992868423462 38.3095703125 C -3.672094106674194 25.10820007324219 4.861275672912598 7.659243583679199 4.716601371765137 5.163656711578369 C 4.498863220214844 1.534241557121277 7.63141393661499 -3.924825705325929e-06 13.08652782440186 -3.924825705325929e-06 C 42.70856857299805 -3.924825705325929e-06 140.9825897216797 45.16237258911133 145.2527465820312 45.16237258911133 C 151.5492706298828 45.16237258911133 159.0446929931641 45.60815811157227 157.1521911621094 51.7031364440918 C 155.2597045898438 57.79809188842773 159.6412353515625 72.11326599121094 152.3541717529297 74.26191711425781 C 151.6295013427734 74.37640380859375 150.945068359375 74.43072509765625 150.2940826416016 74.43072509765625 Z" stroke="none" fill="#fff"/>
        </g>
        <path id="Path_5408" data-name="Path 5408" d="M2.937.071S7.7,11,2.937,19.781-2.4,39.158,13.616,44.514,43.377,47.5,57.337,57.978s14.875,1.48,13.987-7.021S66.491,32.214,46.08,38.084,7.418,21.333,20.178,0" transform="translate(55.485 131.248) rotate(-38)" fill="none" stroke="#fff" stroke-width="2" opacity="0.199"/>
        <path id="Path_5409" data-name="Path 5409" d="M43.669,97.61C26.635,101.108.9,97.2.03,82.663c-.917-12.7,19.442-17.86,29.342-34.822,6.4-10.957,9.56-29.98,5.621-47.842" transform="translate(242.756 -3.676) rotate(-38)" fill="none" stroke="#fff" stroke-width="2" opacity="0.199"/>
        <path id="Path_5410" data-name="Path 5410" d="M3.753,51.8a17.41,17.41,0,0,0-1.969-6.413C-2.979,36.611,1.629,23.3,17.641,17.945s23.541-3.41,37.5-13.885S71.058,5.713,70.17,14.213,65.338,32.956,44.927,27.086c-15.961-4.59-30.6,8.242-30.119,24.434" transform="translate(274.474 233.178) rotate(-38)" fill="none" stroke="#fff" stroke-width="2" opacity="0.199"/>
        <path id="Path_5411" data-name="Path 5411" d="M0,0S30.265,22.546,9.946,55.128c-.3.477-.708,1.109-1.138,1.745-4.551,5.529.532,20.8,17.834,10.744S45.317,52.685,47.285,44.078s3.18-26.042,29.881-15.085S112.415,18.194,111.718,0" transform="translate(139.006 77.147) rotate(-38)" fill="none" stroke="#fff" stroke-width="2" opacity="0.199"/>
        <path id="Path_5412" data-name="Path 5412" d="M0,82.608S24.645,48.42,4.326,15.838c-.3-.477-.708-1.109-1.138-1.744-4.551-5.529.532-20.8,17.834-10.744s21.472,27.2,23.445,34.09c1.008,4.407,5.314,13.826,13.081,17.337,7.05,3.188,20.166,1.765,29.932-2.181,20.013-8.087,24.935,11.818,24.238,30.012" transform="translate(137.378 301.347) rotate(-38)" fill="none" stroke="#fff" stroke-width="2" opacity="0.199"/>
        <path id="Path_5413" data-name="Path 5413" d="M134.018,0s.5,25.457-10.814,36.723-22.639,15.861-38.95,8.83c-.272-.1-13.223-6.575-15.84,3.921s5.693,18.456,14.843,30.213,15.5,34.2,2.514,56.781c-12.665,22.019-35.406,37.621-73.025,15.569-.845-.5-6.863-5.3-10.965,0S-.2,182.324,17.3,188.208s36.06,4.366,54.473-12.635,27.341-18.26,36.13-13.315,23.268,20.528,10.672,43.479,14.323,46.817,35.465,52.643" transform="translate(134.137 80.819) rotate(-38)" fill="none" stroke="#fff" stroke-width="2" opacity="0.199"/>
        <path id="Path_5414" data-name="Path 5414" d="M14.624,2.079C8.493,6.067-3.976,23.973,1.249,51.163S20.431,81,36.543,79.261s45.648-1.08,61.137,6.219,25.753-10.92,2.157-17.753c-11.121-3.567-21.344-4-26.829-7.729-5.848-3.977-8.266-13.107-9.051-19.376C62.484,28.859,60.238,23.03,51.88,19.384c-8.233-3.591-20.991,4.849-5.517,24.868.187.282,8.506,11.512-6.914,18.379s-27.377-4-23.455-24.134S29.008,19.56,28.171,9.511,20.754-1.909,14.624,2.079Z" transform="translate(64 226.042) rotate(-38)" fill="none" stroke="#fff" stroke-width="2" opacity="0.199"/>
        <path id="Path_5415" data-name="Path 5415" d="M98.927,87.105c6.13-3.988,18.6-21.894,13.374-49.084S93.119,8.18,77.007,9.924,31.938,8.855,16.449,1.556s-26.332,13.069-2.736,19.9c11.121,3.567,21.344,4,26.829,7.729,5.848,3.977,8.266,13.107,9.051,19.376C51.066,60.326,53.312,66.154,61.67,69.8,69.9,73.391,84.919,67.024,69.445,47c-.187-.283-8.332-12.148,7.088-19.014s24.945,2.566,21.023,22.7S84.543,69.625,85.379,79.674,92.8,91.093,98.927,87.105Z" transform="translate(303.862 104.433) rotate(-12)" fill="none" stroke="#fff" stroke-width="2" opacity="0.204"/>
        <path id="Path_5416" data-name="Path 5416" d="M0,45.267S24.843,46.521,36.059,28.33,32.651,1.677,30.974,0" transform="translate(-15.24 197.559) rotate(-38)" fill="none" stroke="#fff" stroke-width="2" opacity="0.199"/>
        <path id="Path_5417" data-name="Path 5417" d="M1.119,8.412C4.916,16.167,17.455,7.957,14.7,25c-1.164,7.209.473,16.007,6.443,18.562,7.714,3.3,21.293-1.284,27.2-2.735C58.576,38.311,55.071,27.434,54.967,27,40.693-4.891,4.41.315,4.41.315S-2.679.657,1.119,8.412Z" transform="translate(170.439 273.835) rotate(-38)" fill="none" stroke="#fff" stroke-width="2" opacity="0.199"/>
        <g id="Path_5418" data-name="Path 5418" transform="translate(263.466 248.1) rotate(-38)" fill="none" opacity="0.199">
          <path d="M5.94,0c4.372,0,12.1.515,12.778,6.261S10.311,15.984,5.94,15.984,0,12.624,0,8.669,1.568,0,5.94,0Z" stroke="none"/>
          <path d="M 5.939670562744141 2.000001907348633 C 5.150470733642578 2.000001907348633 3.994851112365723 2.189682006835938 3.074741363525391 3.829812049865723 C 2.391731262207031 5.04730224609375 2 6.811132431030273 2 8.669021606445312 C 2 10.38055229187012 2.33418083190918 11.76041221618652 2.966421127319336 12.65940284729004 C 3.366430282592773 13.22819232940674 4.109850883483887 13.98436260223389 5.939670562744141 13.98436260223389 C 7.20936107635498 13.98436260223389 9.071380615234375 13.53141212463379 10.79909038543701 12.80226230621338 C 12.77524089813232 11.96827220916748 14.44559097290039 10.85405158996582 15.50247097015381 9.66484260559082 C 16.44161033630371 8.608092308044434 16.85507965087891 7.541872024536133 16.73138046264648 6.49580192565918 C 16.60372161865234 5.416272163391113 16.08691024780273 3.866382598876953 13.08563995361328 2.874631881713867 C 11.30458068847656 2.286091804504395 8.967121124267578 2.000001907348633 5.939670562744141 2.000001907348633 M 5.939670562744141 1.9073486328125e-06 C 10.3112907409668 1.9073486328125e-06 18.03804016113281 0.5146923065185547 18.7175407409668 6.260931968688965 C 19.39704132080078 12.00718212127686 10.3112907409668 15.98436260223389 5.939670562744141 15.98436260223389 C 1.568050384521484 15.98436260223389 0 12.62429237365723 0 8.669021606445312 C 0 4.713732719421387 1.56804084777832 1.9073486328125e-06 5.939670562744141 1.9073486328125e-06 Z" stroke="none" fill="#fff"/>
        </g>
        <g id="Path_5419" data-name="Path 5419" transform="translate(197.421 338.831) rotate(-38)" fill="none" opacity="0.318">
          <path d="M15.691,0C27.241,0,47.653,1.36,49.448,16.54S27.241,42.228,15.692,42.228,0,33.351,0,22.9,4.142,0,15.691,0Z" stroke="none"/>
          <path d="M 15.69150161743164 2.000003814697266 C 11.19285202026367 2.000003814697266 7.682899475097656 4.190643310546875 5.259140014648438 8.511081695556641 C 4.176792144775391 10.44039344787598 3.343620300292969 12.73696327209473 2.782749176025391 15.33701324462891 C 2.270671844482422 17.71086311340332 2 20.32676315307617 2 22.90192413330078 C 2 28.10323333740234 3.089530944824219 32.4017333984375 5.150810241699219 35.33271408081055 C 6.240169525146484 36.8817024230957 7.620750427246094 38.0767936706543 9.25421142578125 38.88478469848633 C 11.05567169189453 39.77588272094727 13.22148895263672 40.22770309448242 15.69150161743164 40.22770309448242 C 19.51271057128906 40.22770309448242 24.78914070129395 38.96368408203125 29.80595016479492 36.84645462036133 C 35.46783065795898 34.45697402954102 40.29885101318359 31.21366310119629 43.40907287597656 27.7139835357666 C 46.54016876220703 24.1908130645752 47.90380096435547 20.51043319702148 47.46208953857422 16.77510261535645 C 47.09288024902344 13.65290260314941 45.84672927856445 11.10683250427246 43.65242004394531 8.99139404296875 C 41.71070098876953 7.119464874267578 39.00150299072266 5.600414276123047 35.60007095336914 4.476432800292969 C 30.55722045898438 2.810054779052734 24.04507064819336 2.000003814697266 15.69150161743164 2.000003814697266 M 15.69150161743164 3.814697265625e-06 C 27.24052047729492 3.814697265625e-06 47.65312194824219 1.359714508056641 49.44824981689453 16.54023361206055 C 51.24338150024414 31.72074317932129 27.24052047729492 42.22770309448242 15.69150161743164 42.22770309448242 C 4.142478942871094 42.22770309448242 0 33.35103225708008 0 22.90192413330078 C 0 12.45281410217285 4.142478942871094 3.814697265625e-06 15.69150161743164 3.814697265625e-06 Z" stroke="none" fill="#fff"/>
        </g>
        <path id="Path_5420" data-name="Path 5420" d="M41.708,0s5.754,37.048-24.8,57.925-15.34,46.969,11.3,55.087,18.947,17.788,40.51,27.943" transform="translate(221.039 12.604) rotate(-38)" fill="none" stroke="#fff" stroke-width="2" opacity="0.199"/>
      </g>
      <g id="Mask_Group_5" data-name="Mask Group 5" transform="translate(0 225.48) rotate(-38)" clip-path="url(#clip-path-2)">
        <path id="Path_5263" data-name="Path 5263" d="M361.743,188.267c-40.562-.1-157.167-12.09-185.652-103.332S43.83.1,43.83.1H0V204.079H361.743Z" transform="translate(0 20.245)" fill="#334051"/>
        <g id="Mask_Group_7" data-name="Mask Group 7" transform="translate(137.465 -154.981) rotate(38)" clip-path="url(#clip-path-3)">
          <path id="Path_5379" data-name="Path 5379" d="M0,0S7.814,73.034,66.781,79.086s56.956,65.661,58.26,84.738,8.809,34.034,30.581,38.912c12,2.688,36.687,4.857,63.047-14.887,8.579-6.482,18.3-17.129,25.065-10.956,3.472,3.514,5.128,9.105,3.2,16.044-2.034,7.325-7.9,16.254-7.6,24.523.647,17.835,13.5,33.928,13.277,40.954" transform="matrix(0.788, -0.616, 0.616, 0.788, 2.024, 196.982)" fill="none" stroke="#fff" stroke-width="2" opacity="0.17"/>
          <path id="Path_5380" data-name="Path 5380" d="M230.849,0c-3.876,3.343-22.841,12.679-50.261,15.493-58.967,6.052-57.326,69.575-58.63,88.652s-8.809,34.033-30.581,38.912c-12,2.688-36.687,4.857-63.047-14.887-8.579-6.482-18.3-17.129-25.065-10.956-3.472,3.514-4.125,8.7-2.2,15.643,7.557,18.25,4.091,30.225,3.46,33.063" transform="matrix(0.719, 0.695, -0.695, 0.719, 109.257, 150.676)" fill="none" stroke="#fff" stroke-width="2" opacity="0.17"/>
          <path id="Path_5381" data-name="Path 5381" d="M0,0S1.952,52.908,47.985,59.517s57.594,31.364,60.779,36.069c2.134,3.153,7.973,20.13,21.116,33.743a59.662,59.662,0,0,0,24.705,15.093c27.972,8.251,46.781-18.25,43.378-40.724-1.433-11.29-21.524-47.876-49.747-12-4.077,5.226-6.159,12.171-14.931,10.81-14.078-.863-11.911-32.676-17.867-57.585S98.5,16.2,98.284,0" transform="matrix(0.788, -0.616, 0.616, 0.788, 16.539, 185.962)" fill="none" stroke="#fff" stroke-width="2" opacity="0.17"/>
          <g id="Path_5382" data-name="Path 5382" transform="translate(198.847 188.883) rotate(-82)" fill="none" opacity="0.17">
            <path d="M28.916,0C39.5,0,43.374,8.4,40.192,18.647S26.878,32.7,19.018,33.575,0,30.834,0,20.248,18.33,0,28.916,0Z" stroke="none"/>
            <path d="M 28.91611289978027 1.999996185302734 C 26.53233337402344 1.999996185302734 23.64482307434082 2.543636322021484 20.56573295593262 3.572135925292969 C 17.43673324584961 4.617315292358398 14.32197380065918 6.094606399536133 11.55819320678711 7.844295501708984 C 8.654632568359375 9.682485580444336 6.248992919921875 11.76103591918945 4.601364135742188 13.85525512695312 C 2.875225067138672 16.04924583435059 2.000003814697266 18.20016479492188 2.000003814697266 20.24826431274414 C 2.000003814697266 23.93357467651367 3.556613922119141 26.84633636474609 6.626583099365234 28.9056453704834 C 9.274944305419922 30.6821460723877 12.94521331787109 31.70101547241211 16.6962833404541 31.70101547241211 C 17.41180419921875 31.70101547241211 18.11809349060059 31.66263580322266 18.79553413391113 31.58693504333496 C 23.55629348754883 31.05497550964355 34.98526382446289 28.67144584655762 38.28192138671875 18.05423545837402 C 39.08623504638672 15.46386528015137 39.40342330932617 13.03692626953125 39.22468185424805 10.84083557128906 C 39.05524444580078 8.759006500244141 38.44613265991211 6.993135452270508 37.41426467895508 5.592275619506836 C 36.58869171142578 4.471485137939453 35.4926643371582 3.598485946655273 34.15661239624023 2.997526168823242 C 32.68505477905273 2.335617065429688 30.92189407348633 1.999996185302734 28.91611289978027 1.999996185302734 M 28.91611289978027 -3.814697265625e-06 C 39.50187301635742 -3.814697265625e-06 43.37362289428711 8.400415420532227 40.19196319580078 18.64730453491211 C 37.01030349731445 28.8941764831543 26.87821388244629 32.69623565673828 19.01762390136719 33.57456588745117 C 11.15702438354492 34.45291519165039 3.814697265625e-06 30.83404731750488 3.814697265625e-06 20.24826431274414 C 3.814697265625e-06 9.662496566772461 18.3303337097168 -3.814697265625e-06 28.91611289978027 -3.814697265625e-06 Z" stroke="none" fill="#fff"/>
          </g>
          <g id="Path_5383" data-name="Path 5383" transform="translate(66.119 391.886) rotate(-65)" fill="none" opacity="0.17">
            <path d="M28.916,0C39.5,0,43.374,8.4,40.192,18.647S29.7,34.827,21.841,35.705,0,30.834,0,20.248,18.33,0,28.916,0Z" stroke="none"/>
            <path d="M 28.91611289978027 1.999996185302734 C 26.53233337402344 1.999996185302734 23.64482307434082 2.543636322021484 20.56573295593262 3.572135925292969 C 17.43673324584961 4.617317199707031 14.32197380065918 6.094608306884766 11.55819320678711 7.844297409057617 C 8.654632568359375 9.682487487792969 6.248992919921875 11.76103782653809 4.601364135742188 13.85525703430176 C 2.875225067138672 16.04924774169922 2.000003814697266 18.20016860961914 2.000003814697266 20.24826812744141 C 2.000003814697266 22.18724822998047 2.570941925048828 24.03609848022461 3.696952819824219 25.74344635009766 C 4.750843048095703 27.3414478302002 6.260845184326172 28.79117774963379 8.185012817382812 30.0523681640625 C 9.961513519287109 31.21675872802734 12.05229377746582 32.18034744262695 14.23133277893066 32.83894729614258 C 16.29676246643066 33.46319580078125 18.3566837310791 33.79316711425781 20.18840408325195 33.79316711425781 C 20.68966293334961 33.79316711425781 21.17104339599609 33.76777648925781 21.61917304992676 33.71770858764648 C 25.1883430480957 33.31889724731445 28.58314323425293 31.75668716430664 31.43657302856445 29.19998741149902 C 34.50425338745117 26.45131683349609 36.87134170532227 22.59717750549316 38.28192138671875 18.05422782897949 C 39.08623504638672 15.46385765075684 39.40342330932617 13.03692817687988 39.22468185424805 10.8408374786377 C 39.05524444580078 8.759008407592773 38.44613265991211 6.993137359619141 37.41427230834961 5.592287063598633 C 36.58869171142578 4.471488952636719 35.4926643371582 3.598487854003906 34.15661239624023 2.997528076171875 C 32.68505477905273 2.335617065429688 30.92189407348633 1.999996185302734 28.91611289978027 1.999996185302734 M 28.91611289978027 -3.814697265625e-06 C 39.50187301635742 -3.814697265625e-06 43.37362289428711 8.400417327880859 40.19196319580078 18.64729690551758 C 37.01031494140625 28.89418792724609 29.70186233520508 34.82700729370117 21.84126281738281 35.70533752441406 C 13.98065185546875 36.58367919921875 3.814697265625e-06 30.83403587341309 3.814697265625e-06 20.24826812744141 C 3.814697265625e-06 9.662498474121094 18.3303337097168 -3.814697265625e-06 28.91611289978027 -3.814697265625e-06 Z" stroke="none" fill="#fff"/>
          </g>
          <g id="Path_5384" data-name="Path 5384" transform="matrix(0.927, 0.375, -0.375, 0.927, 124.797, 211.561)" fill="none" opacity="0.17">
            <path d="M23.111.534c8.846-1.7,18.25.525,15.8,8.406-1.2,3.854-.519,11.622-16.649,16.305C5.108,30.575,0,21.459,0,17.3,0,9.158,14.265,2.231,23.111.534Z" stroke="none"/>
            <path d="M 28.56567573547363 2.000005722045898 C 26.92160606384277 2.000005722045898 25.2132453918457 2.167736053466797 23.48804664611816 2.49853515625 C 21.3427848815918 2.909875869750977 18.92645645141602 3.631654739379883 16.50027656555176 4.585836410522461 C 13.90365600585938 5.607046127319336 11.41700553894043 6.85307502746582 9.309177398681641 8.189214706420898 C 4.595775604248047 11.1769962310791 1.999996185302734 14.41237545013428 1.999996185302734 17.29936599731445 C 1.999996185302734 18.41183471679688 2.572795867919922 20.28264617919922 4.187126159667969 21.89392471313477 C 6.139415740966797 23.84252548217773 9.108467102050781 24.87249565124512 12.77328491210938 24.87249565124512 C 15.39409637451172 24.87249565124512 18.3880558013916 24.35520553588867 21.67200660705566 23.33499526977539 L 21.70771598815918 23.32427597045898 C 24.8186149597168 22.42105484008789 27.45844650268555 21.34183502197266 29.55389595031738 20.11658477783203 C 31.28901672363281 19.10202407836914 32.69938659667969 17.95680618286133 33.74582672119141 16.71273422241211 C 35.62513732910156 14.47849559783936 36.10698699951172 12.24297523498535 36.5321044921875 10.27061462402344 C 36.67843627929688 9.591714859008789 36.81664657592773 8.950454711914062 37.00407409667969 8.346845626831055 C 37.49525451660156 6.764915466308594 37.39503479003906 5.53570556640625 36.69766616821289 4.588954925537109 C 35.50355529785156 2.967836380004883 32.46355438232422 2.000005722045898 28.56567573547363 2.000005722045898 M 28.56567001342773 0 C 35.34309768676758 0 40.85472869873047 2.689947128295898 38.91411590576172 8.939914703369141 C 37.71758651733398 12.79347610473633 38.39547729492188 20.56176567077637 22.26536560058594 25.24495506286621 C 5.107879638671875 30.57516479492188 0 21.45948600769043 -3.814697265625e-06 17.29936599731445 C -3.814697265625e-06 9.158235549926758 14.26525497436523 2.230535507202148 23.11141586303711 0.5343151092529297 C 24.94176864624023 0.1833534240722656 26.79751014709473 0 28.56567001342773 0 Z" stroke="none" fill="#fff"/>
          </g>
          <g id="Path_5385" data-name="Path 5385" transform="matrix(-0.819, -0.574, 0.574, -0.819, 106.204, 420.551)" fill="none" opacity="0.17">
            <path d="M145.253,45.162c6.3,0,13.792.446,11.9,6.541s2.489,20.41-4.8,22.559c-10.13,1.6-12.38-8.558-25.822-14.474s-28.583-9.28-40.111-8.95c-19.23.777-43.127,15.745-67.2,4.192C13.009,52.043,4.984,45.7,1.878,38.31c-5.55-13.2,2.983-30.65,2.839-33.146C3.317-18.174,140.2,45.162,145.253,45.162Z" stroke="none"/>
            <path d="M 150.2940826416016 72.43072509765625 C 150.8060607910156 72.43072509765625 151.3474426269531 72.38922119140625 151.9052429199219 72.30727386474609 C 152.8135375976562 72.00939178466797 153.8844146728516 71.27818298339844 154.4220123291016 68.59113311767578 C 154.8933868408203 66.23509216308594 154.7952728271484 63.19132995605469 154.7003784179688 60.24781036376953 C 154.58935546875 56.80348205566406 154.4844970703125 53.55015563964844 155.2421417236328 51.11006927490234 C 155.6811218261719 49.69630813598633 155.30810546875 49.18991851806641 155.1855316162109 49.02350616455078 C 154.9124298095703 48.65274429321289 154.0986175537109 47.96891784667969 151.7166900634766 47.5548095703125 C 149.7277374267578 47.20900344848633 147.3329925537109 47.16237258911133 145.2527465820312 47.16237258911133 C 143.8263397216797 47.16237258911133 139.7621917724609 45.54622268676758 122.9977722167969 38.6331787109375 C 106.9221038818359 32.00417709350586 84.90570831298828 22.92541694641113 63.92255783081055 15.37715625762939 C 39.24725341796875 6.50072193145752 22.14353561401367 2.000004529953003 13.0865364074707 2.000004529953003 C 9.107949256896973 2.000004529953003 7.687601566314697 2.877352237701416 7.19505786895752 3.400330543518066 C 6.960710048675537 3.649134874343872 6.655797004699707 4.090221881866455 6.713253974914551 5.047917366027832 C 6.766666889190674 5.969308853149414 6.422862529754639 7.099699974060059 5.57038402557373 9.794721603393555 C 4.582688331604004 12.91730880737305 3.090036392211914 17.63619995117188 2.393688440322876 22.67726516723633 C 1.5865797996521 28.52000427246094 2.033384084701538 33.5186767578125 3.721797227859497 37.53474426269531 C 5.027666568756104 40.6422233581543 7.451210498809814 43.86037445068359 10.73044967651367 46.84126663208008 C 13.57221031188965 49.42450332641602 16.89677619934082 51.69261169433594 20.09092712402344 53.2274169921875 C 25.92831802368164 56.02917861938477 32.13123321533203 57.39113616943359 39.05410003662109 57.39113616943359 C 48.14142608642578 57.39113616943359 57.03757858276367 55.06339645385742 65.64083862304688 52.81228637695312 C 72.93049621582031 50.9048957824707 79.81586456298828 49.10328674316406 86.34071350097656 48.8397216796875 L 86.36418914794922 48.83891677856445 C 86.89851379394531 48.82361221313477 87.44869232177734 48.81585311889648 87.99945068359375 48.81585311889648 C 99.62655639648438 48.81585311889648 114.3325805664062 52.23324203491211 127.3380584716797 57.95737457275391 C 133.4329071044922 60.63989639282227 137.3807373046875 64.19145965576172 140.5528869628906 67.04518127441406 C 144.0283203125 70.17176818847656 146.5393829345703 72.43076324462891 150.2940521240234 72.43072509765625 L 150.2940826416016 72.43072509765625 M 150.2940826416016 74.43072509765625 C 141.8445587158203 74.43080139160156 139.0128479003906 65.28096771240234 126.5323867797852 59.78791809082031 C 113.0903472900391 53.87163543701172 97.94971466064453 50.50788879394531 86.42142486572266 50.83809280395508 C 67.19101715087891 51.61491775512695 43.29444122314453 66.58275604248047 19.22551536560059 55.03048324584961 C 13.00901508331299 52.04343795776367 4.983558177947998 45.69974517822266 1.877992868423462 38.3095703125 C -3.672094106674194 25.10820007324219 4.861275672912598 7.659243583679199 4.716601371765137 5.163656711578369 C 4.498863220214844 1.534241557121277 7.63141393661499 -3.924825705325929e-06 13.08652782440186 -3.924825705325929e-06 C 42.70856857299805 -3.924825705325929e-06 140.9825897216797 45.16237258911133 145.2527465820312 45.16237258911133 C 151.5492706298828 45.16237258911133 159.0446929931641 45.60815811157227 157.1521911621094 51.7031364440918 C 155.2597045898438 57.79809188842773 159.6412353515625 72.11326599121094 152.3541717529297 74.26191711425781 C 151.6295013427734 74.37640380859375 150.945068359375 74.43072509765625 150.2940826416016 74.43072509765625 Z" stroke="none" fill="#fff"/>
          </g>
          <path id="Path_5386" data-name="Path 5386" d="M2.937.071S7.7,11,2.937,19.781-2.4,39.158,13.616,44.514,43.377,47.5,57.337,57.978s14.875,1.48,13.987-7.021S66.491,32.214,46.08,38.084,7.418,21.333,20.178,0" transform="matrix(0.788, -0.616, 0.616, 0.788, 32.713, 161.809)" fill="none" stroke="#fff" stroke-width="2" opacity="0.17"/>
          <path id="Path_5387" data-name="Path 5387" d="M43.669,97.61C26.635,101.108.9,97.2.03,82.663c-.917-12.7,19.442-17.86,29.342-34.822,6.4-10.957,9.56-29.98,5.621-47.842" transform="matrix(0.788, -0.616, 0.616, 0.788, 219.984, 26.885)" fill="none" stroke="#fff" stroke-width="2" opacity="0.17"/>
          <path id="Path_5388" data-name="Path 5388" d="M3.753,51.8a17.41,17.41,0,0,0-1.969-6.413C-2.979,36.611,1.629,23.3,17.641,17.945s23.541-3.41,37.5-13.885S71.058,5.713,70.17,14.213,65.338,32.956,44.927,27.086c-15.961-4.59-30.6,8.242-30.119,24.434" transform="matrix(0.788, -0.616, 0.616, 0.788, 251.702, 263.739)" fill="none" stroke="#fff" stroke-width="2" opacity="0.17"/>
          <path id="Path_5389" data-name="Path 5389" d="M0,0S30.265,22.546,9.946,55.128c-.3.477-.708,1.109-1.138,1.745-4.551,5.529.532,20.8,17.834,10.744S45.317,52.685,47.285,44.078s3.18-26.042,29.881-15.085S112.415,18.194,111.718,0" transform="matrix(0.788, -0.616, 0.616, 0.788, 116.234, 107.709)" fill="none" stroke="#fff" stroke-width="2" opacity="0.17"/>
          <path id="Path_5390" data-name="Path 5390" d="M0,82.608S24.645,48.42,4.326,15.838c-.3-.477-.708-1.109-1.138-1.744-4.551-5.529.532-20.8,17.834-10.744s21.472,27.2,23.445,34.09c1.008,4.407,5.314,13.826,13.081,17.337,7.05,3.188,20.166,1.765,29.932-2.181,20.013-8.087,24.935,11.818,24.238,30.012" transform="matrix(0.788, -0.616, 0.616, 0.788, 114.606, 331.909)" fill="none" stroke="#fff" stroke-width="2" opacity="0.17"/>
          <path id="Path_5391" data-name="Path 5391" d="M134.018,0s.5,25.457-10.814,36.723-22.639,15.861-38.95,8.83c-.272-.1-13.223-6.575-15.84,3.921s5.693,18.456,14.843,30.213,15.5,34.2,2.514,56.781c-12.665,22.019-35.406,37.621-73.025,15.569-.845-.5-6.863-5.3-10.965,0S-.2,182.324,17.3,188.208s36.06,4.366,54.473-12.635,27.341-18.26,36.13-13.315,23.268,20.528,10.672,43.479,14.323,46.817,35.465,52.643" transform="matrix(0.788, -0.616, 0.616, 0.788, 111.365, 111.38)" fill="none" stroke="#fff" stroke-width="2" opacity="0.17"/>
          <path id="Path_5392" data-name="Path 5392" d="M14.624,2.079C8.493,6.067-3.976,23.973,1.249,51.163S20.431,81,36.543,79.261s45.648-1.08,61.137,6.219,25.753-10.92,2.157-17.753c-11.121-3.567-21.344-4-26.829-7.729-5.848-3.977-8.266-13.107-9.051-19.376C62.484,28.859,60.238,23.03,51.88,19.384c-8.233-3.591-20.991,4.849-5.517,24.868.187.282,8.506,11.512-6.914,18.379s-27.377-4-23.455-24.134S29.008,19.56,28.171,9.511,20.754-1.909,14.624,2.079Z" transform="matrix(0.788, -0.616, 0.616, 0.788, 41.228, 256.603)" fill="none" stroke="#fff" stroke-width="2" opacity="0.17"/>
          <path id="Path_5393" data-name="Path 5393" d="M98.927,87.105c6.13-3.988,18.6-21.894,13.374-49.084S93.119,8.18,77.007,9.924,31.938,8.855,16.449,1.556s-26.332,13.069-2.736,19.9c11.121,3.567,21.344,4,26.829,7.729,5.848,3.977,8.266,13.107,9.051,19.376C51.066,60.326,53.312,66.154,61.67,69.8,69.9,73.391,84.919,67.024,69.445,47c-.187-.283-8.332-12.148,7.088-19.014s24.945,2.566,21.023,22.7S84.543,69.625,85.379,79.674,92.8,91.093,98.927,87.105Z" transform="translate(281.09 134.995) rotate(-12)" fill="none" stroke="#fff" stroke-width="2" opacity="0.17"/>
          <path id="Path_5394" data-name="Path 5394" d="M0,45.267S24.843,46.521,36.059,28.33,32.651,1.677,30.974,0" transform="matrix(0.788, -0.616, 0.616, 0.788, -38.012, 228.12)" fill="none" stroke="#fff" stroke-width="2" opacity="0.17"/>
          <path id="Path_5395" data-name="Path 5395" d="M1.119,8.412C4.916,16.167,17.455,7.957,14.7,25c-1.164,7.209.473,16.007,6.443,18.562,7.714,3.3,21.293-1.284,27.2-2.735C58.576,38.311,55.071,27.434,54.967,27,40.693-4.891,4.41.315,4.41.315S-2.679.657,1.119,8.412Z" transform="matrix(0.788, -0.616, 0.616, 0.788, 147.667, 304.396)" fill="none" stroke="#fff" stroke-width="2" opacity="0.17"/>
          <g id="Path_5396" data-name="Path 5396" transform="matrix(0.788, -0.616, 0.616, 0.788, 240.694, 278.662)" fill="none" opacity="0.17">
            <path d="M5.94,0c4.372,0,12.1.515,12.778,6.261S10.311,15.984,5.94,15.984,0,12.624,0,8.669,1.568,0,5.94,0Z" stroke="none"/>
            <path d="M 5.939670562744141 2.000001907348633 C 5.150470733642578 2.000001907348633 3.994851112365723 2.189682006835938 3.074741363525391 3.829812049865723 C 2.391731262207031 5.04730224609375 2 6.811132431030273 2 8.669021606445312 C 2 10.38055229187012 2.33418083190918 11.76041221618652 2.966421127319336 12.65940284729004 C 3.366430282592773 13.22819232940674 4.109850883483887 13.98436260223389 5.939670562744141 13.98436260223389 C 7.20936107635498 13.98436260223389 9.071380615234375 13.53141212463379 10.79909038543701 12.80226230621338 C 12.77524089813232 11.96827220916748 14.44559097290039 10.85405158996582 15.50247097015381 9.66484260559082 C 16.44161033630371 8.608092308044434 16.85507965087891 7.541872024536133 16.73138046264648 6.49580192565918 C 16.60372161865234 5.416272163391113 16.08691024780273 3.866382598876953 13.08563995361328 2.874631881713867 C 11.30458068847656 2.286091804504395 8.967121124267578 2.000001907348633 5.939670562744141 2.000001907348633 M 5.939670562744141 1.9073486328125e-06 C 10.3112907409668 1.9073486328125e-06 18.03804016113281 0.5146923065185547 18.7175407409668 6.260931968688965 C 19.39704132080078 12.00718212127686 10.3112907409668 15.98436260223389 5.939670562744141 15.98436260223389 C 1.568050384521484 15.98436260223389 0 12.62429237365723 0 8.669021606445312 C 0 4.713732719421387 1.56804084777832 1.9073486328125e-06 5.939670562744141 1.9073486328125e-06 Z" stroke="none" fill="#fff"/>
          </g>
          <g id="Path_5397" data-name="Path 5397" transform="matrix(0.788, -0.616, 0.616, 0.788, 174.649, 369.393)" fill="none" opacity="0.17">
            <path d="M15.691,0C27.241,0,47.653,1.36,49.448,16.54S27.241,42.228,15.692,42.228,0,33.351,0,22.9,4.142,0,15.691,0Z" stroke="none"/>
            <path d="M 15.69150161743164 2.000003814697266 C 11.19285202026367 2.000003814697266 7.682899475097656 4.190643310546875 5.259140014648438 8.511081695556641 C 4.176792144775391 10.44039344787598 3.343620300292969 12.73696327209473 2.782749176025391 15.33701324462891 C 2.270671844482422 17.71086311340332 2 20.32676315307617 2 22.90192413330078 C 2 28.10323333740234 3.089530944824219 32.4017333984375 5.150810241699219 35.33271408081055 C 6.240169525146484 36.8817024230957 7.620750427246094 38.0767936706543 9.25421142578125 38.88478469848633 C 11.05567169189453 39.77588272094727 13.22148895263672 40.22770309448242 15.69150161743164 40.22770309448242 C 19.51271057128906 40.22770309448242 24.78914070129395 38.96368408203125 29.80595016479492 36.84645462036133 C 35.46783065795898 34.45697402954102 40.29885101318359 31.21366310119629 43.40907287597656 27.7139835357666 C 46.54016876220703 24.1908130645752 47.90380096435547 20.51043319702148 47.46208953857422 16.77510261535645 C 47.09288024902344 13.65290260314941 45.84672927856445 11.10683250427246 43.65242004394531 8.99139404296875 C 41.71070098876953 7.119464874267578 39.00150299072266 5.600414276123047 35.60007095336914 4.476432800292969 C 30.55722045898438 2.810054779052734 24.04507064819336 2.000003814697266 15.69150161743164 2.000003814697266 M 15.69150161743164 3.814697265625e-06 C 27.24052047729492 3.814697265625e-06 47.65312194824219 1.359714508056641 49.44824981689453 16.54023361206055 C 51.24338150024414 31.72074317932129 27.24052047729492 42.22770309448242 15.69150161743164 42.22770309448242 C 4.142478942871094 42.22770309448242 0 33.35103225708008 0 22.90192413330078 C 0 12.45281410217285 4.142478942871094 3.814697265625e-06 15.69150161743164 3.814697265625e-06 Z" stroke="none" fill="#fff"/>
          </g>
          <path id="Path_5398" data-name="Path 5398" d="M41.708,0s5.754,37.048-24.8,57.925-15.34,46.969,11.3,55.087,18.947,17.788,40.51,27.943" transform="matrix(0.788, -0.616, 0.616, 0.788, 198.267, 43.165)" fill="none" stroke="#fff" stroke-width="2" opacity="0.17"/>
        </g>
      </g>
      <g id="Rectangle_244" data-name="Rectangle 244" transform="translate(188.756 294.07) rotate(-38)" fill="#c6d6eb" stroke="#334051" stroke-width="2">
        <rect width="63.747" height="24.208" rx="12.104" stroke="none"/>
        <rect x="1" y="1" width="61.747" height="22.208" rx="11.104" fill="none"/>
      </g>
      <g id="Rectangle_246" data-name="Rectangle 246" transform="translate(310.98 164.787) rotate(-38)" fill="#c6d6eb" stroke="#334051" stroke-width="2">
        <rect width="54.064" height="12.911" rx="6.455" stroke="none"/>
        <rect x="1" y="1" width="52.064" height="10.911" rx="5.455" fill="none"/>
      </g>
      <g id="Rectangle_247" data-name="Rectangle 247" transform="translate(284.274 185.652) rotate(-38)" fill="#c6d6eb" stroke="#334051" stroke-width="2">
        <rect width="23.401" height="12.911" rx="6.455" stroke="none"/>
        <rect x="1" y="1" width="21.401" height="10.911" rx="5.455" fill="none"/>
      </g>
      <g id="Rectangle_245" data-name="Rectangle 245" transform="translate(255.522 241.907) rotate(-38)" fill="#c6d6eb" stroke="#334051" stroke-width="2">
        <rect width="145.246" height="24.208" rx="12.104" stroke="none"/>
        <rect x="1" y="1" width="143.246" height="22.208" rx="11.104" fill="none"/>
      </g>
      <g id="Group_6877" data-name="Group 6877" transform="translate(32.173 241.279) rotate(-38)">
        <g id="g5100" transform="matrix(-0.993, 0.122, -0.122, -0.993, 46.996, 42.377)">
          <path id="path5116" d="M11.458.047l23.63,2.642a7.986,7.986,0,0,1,6.962,8.9L39.2,35.647a7.919,7.919,0,0,1-8.843,6.98L6.785,39.538A7.964,7.964,0,0,1,.057,30.667L2.849,7.058A7.91,7.91,0,0,1,11.458.047" transform="translate(0 0)" fill="#334051"/>
        </g>
        <path id="path5096" d="M11.456.047l23.63,2.64a7.988,7.988,0,0,1,6.963,8.9L39.2,35.644a7.924,7.924,0,0,1-8.844,6.982L6.785,39.537A7.963,7.963,0,0,1,.057,30.664L2.847,7.058A7.909,7.909,0,0,1,11.456.047Z" transform="matrix(-0.993, 0.122, -0.122, -0.993, 46.996, 42.375)" fill="#c6d6eb"/>
        <g id="g5140" transform="matrix(-0.993, 0.122, -0.122, -0.993, 40.608, 16.64)">
          <g id="g5142" transform="translate(0 0)" clip-path="url(#clip-path-4)">
            <g id="g5148" transform="translate(0.001 0)">
              <path id="path5156" d="M.12,0,33.752,4.2l-.123,1.026L0,1.013.12,0" transform="translate(0 0)" fill="#334051"/>
            </g>
          </g>
        </g>
        <g id="g5162" transform="matrix(-0.993, 0.122, -0.122, -0.993, 40.642, 24.328)">
          <g id="g5164" transform="translate(0 0)" clip-path="url(#clip-path-5)">
            <g id="g5170" transform="translate(-0.003 0.002)">
              <path id="path5178" d="M.121,0,33.768,4.072,33.65,5.1,0,1.009.121,0" transform="translate(0 0)" fill="#334051"/>
            </g>
          </g>
        </g>
        <g id="g5184" transform="matrix(-0.993, 0.122, -0.122, -0.993, 40.676, 32.017)">
          <g id="g5186" transform="translate(0 0)" clip-path="url(#clip-path-6)">
            <g id="g5192" transform="translate(0.001 0.002)">
              <path id="path5200" d="M.12,0,33.784,3.952l-.123,1.025L0,1.008.12,0" transform="translate(0 0)" fill="#334051"/>
            </g>
          </g>
        </g>
        <g id="g5202" transform="matrix(-0.993, 0.122, -0.122, -0.993, 32.92, 33.875)">
          <path id="path5204" d="M5.587.023l7.542.864A3.556,3.556,0,0,1,16.21,4.853l-1.7,14.393a3.525,3.525,0,0,1-3.919,3.115L3.06,21.4A3.573,3.573,0,0,1,.025,17.426L1.715,3.157A3.535,3.535,0,0,1,5.587.023" transform="translate(0 0)" fill="#334051"/>
        </g>
      </g>
    </g>
  </g>
</svg>
