<svg xmlns="http://www.w3.org/2000/svg" width="1061.164" height="464.691" viewBox="0 0 1061.164 464.691">
  <g id="Group_7110" data-name="Group 7110" transform="translate(-934.837 -547.309)">
    <path id="Union_65" data-name="Union 65" d="M19.618,71.091c-4.01-3.99-9.8-8.583-14.677-16.489C2.658,50.956-1.695,40.773.7,37.871c1.91-2.642,3.895,2.41,3.895,2.41A52.01,52.01,0,0,0,10.5,50.424c4.2,5.818,13.854,13.682,13.854,13.682L13.433,51.035S2.8,31.515,5.838,26.512s6.86,6.793,10.374,13.353,16.027,19.5,16.027,19.5S20.167,43.82,16.487,34.635s-3.4-16.275-2.79-19.544,5.556-9.631,6.788.356c.076.426.162.859.2,1.02,3.508,16.129,20.351,38.37,20.351,38.37S31.029,33.723,29.375,29.471c-1.629-4.178-5.729-20.658-1.825-26.3s7.978-2.96,7.531,1.959C36.422,31.633,49,43,49,43l3.587,4.857c.724-2.2,1.225-3.7,1.225-3.7s-3.137-15.921,1.677-20.814S61.741,33.5,61.741,33.5l3.826,31.931L82.317,88.117,59.991,107.3S23.629,75.082,19.618,71.091Z" transform="matrix(0.998, -0.07, 0.07, 0.998, 1235.99, 631.246)" fill="#fff" stroke="#334051" stroke-width="2"/>
    <path id="Path_5473" data-name="Path 5473" d="M-570.748,849.915l3.171,28.544H-770.126l2.016-28.438S-765.769,849.192-570.748,849.915Z" transform="translate(2250.367 106.945)" fill="#5e91cd"/>
    <path id="Union_66" data-name="Union 66" d="M109.549,148.746c-10.9-1.681-27.528-17.257-27.528-17.257L0,26.435S20.5-.2,20.763,0c10.173,12.607,60.079,41.572,95.47,71.3l.785.661C131.686,52.838,168.425,5.17,171,4.049c.358-.156.636.619.884,2.458-.018,18.113.271,65.535,1.655,101.842-10.738,10.285-23.2,24.122-35.028,32.011a2.757,2.757,0,0,1-.641.7c-4.714,3.434-14.448,8-24.092,8A27.75,27.75,0,0,1,109.549,148.746Z" transform="translate(1296.258 702.943)" fill="#c8d3e0" stroke="#334051" stroke-width="2"/>
    <path id="Path_5467" data-name="Path 5467" d="M329.845,691.663H1389.008" transform="translate(605.992 293.74)" fill="none" stroke="#334051" stroke-linecap="round" stroke-width="2"/>
    <path id="Path_5472" data-name="Path 5472" d="M-739.032,533.249c35.8-.149,36.73,0,36.73,0s2.777,28.518,31.294,28.523,27.045-28.523,27.045-28.523h45.449s53.634-3.679,49.271,49.758c.072.127-.225,16.571,0,16.993-.431,39.211-23.541,213.031-23.541,213.031s-36.883,13.786-95.184,3.3-99.914-3.3-99.914-3.3l-19.233-220.288s-.058-5.721,0-14.081C-787.014,547.986-768.245,533.371-739.032,533.249Z" transform="translate(2251.664 146.482)" fill="#334051" stroke="#334051" stroke-width="2"/>
    <path id="Path_5476" data-name="Path 5476" d="M892.485,529.184s1.3,29.322,34.294,28.714,32-23.648,32.845-28.714-6.943-61.488-6.943-61.488H899.83Z" transform="translate(655.674 151.223)" fill="#fff" stroke="#334051" stroke-width="2"/>
    <path id="Path_5477" data-name="Path 5477" d="M4.948-.009c9.817,0,24.971,13.5,24.971,26.7S27.375,58.681,17.558,58.681,1.107,39.889,1.107,26.693-4.868-.009,4.948-.009Z" transform="translate(1537.402 579.934)" fill="#334051"/>
    <path id="Path_5478" data-name="Path 5478" d="M878.861,369.154c3.545.443,58.688,0,58.688,0v59.053s-2.614,33.918-31.966,34.378-37.7-19.617-38.1-34.378,0-59.053,0-59.053Z" transform="translate(674.744 207.334)" fill="#fff" stroke="#334051" stroke-width="2"/>
    <path id="Path_5485" data-name="Path 5485" d="M15.7,0c8.317,0,10.474,13.5,10.474,26.7s-5.988,18.681-5.988,18.681-5.158,2.528-7.989-5.912c-2.12-6.32-9.488-10.731-9.488-16.564,0-5.74-4.286-13.24-2.068-17.535C3.307.19,11,0,15.7,0Z" transform="translate(1597.834 579.924) rotate(7)" fill="#334051"/>
    <path id="Path_5479" data-name="Path 5479" d="M.222,0a72.7,72.7,0,0,0,0,10.872c.5,4.113,9.408,0,9.408,0" transform="translate(1571.82 623.389) rotate(21)" fill="none" stroke="#334051" stroke-linecap="round" stroke-width="2"/>
    <ellipse id="Ellipse_175" data-name="Ellipse 175" cx="3.719" cy="3.719" rx="3.719" ry="3.719" transform="translate(1553.295 613.125)" fill="#334051"/>
    <ellipse id="Ellipse_176" data-name="Ellipse 176" cx="3.719" cy="3.719" rx="3.719" ry="3.719" transform="translate(1580.555 613.125)" fill="#334051"/>
    <path id="Path_5480" data-name="Path 5480" d="M886.41,437a7.318,7.318,0,0,1,6.573-3.6,8.525,8.525,0,0,1,6.662,3.6" transform="translate(663.93 173.77)" fill="none" stroke="#334051" stroke-linecap="round" stroke-width="2"/>
    <path id="Path_5483" data-name="Path 5483" d="M886.41,437a7.318,7.318,0,0,1,6.573-3.6,8.525,8.525,0,0,1,6.662,3.6" transform="translate(691.037 173.77)" fill="none" stroke="#334051" stroke-linecap="round" stroke-width="2"/>
    <path id="Path_5484" data-name="Path 5484" d="M0,0A8.975,8.975,0,0,0,8.06,4.418,10.455,10.455,0,0,0,16.23,0" transform="translate(1579.549 652.451) rotate(-25)" fill="none" stroke="#334051" stroke-linecap="round" stroke-width="2"/>
    <path id="Path_5474" data-name="Path 5474" d="M40.907,0c.211.135,4.235,1.317,4.6,22.222s.282,56.716-.856,62.228C30.827,84.644-1.535,82.247.057,41.09S27.645.725,40.907,0Z" transform="translate(1621.453 548.783) rotate(91)" fill="#5e91cd"/>
    <path id="Path_5475" data-name="Path 5475" d="M4.111,0C9.615,1.079,18.5,7.893,18.747,12.785c.374,7.411-4.77,14.177-3.082,26.834,1.167,8.752,6.134,18.987,8.124,24.254,1.381,3.656,3.418,9.729,2.3,11.828-.695,1.319-3.238.277-5.779-.566C13.291,72.889,9.055,65.963,8.7,65.051,3.18,49.516,2.694,54.563.855,36.7S.309,10.257,3.152.186A3.916,3.916,0,0,0,4.111,0Z" transform="translate(1605.359 588.742) rotate(101)" fill="#4c7fbc"/>
    <path id="Path_5481" data-name="Path 5481" d="M1410.125,552.122s9.089,7.812,16.045,9.349c.029.009.316.088.606.164-.189.958-6.535,8.1-17.256,6.656-.237-.03-.74-.116-1.254-.223C1409.382,560.3,1410.125,552.122,1410.125,552.122Z" transform="translate(140.574 105.426)" fill="#334051"/>
    <path id="Union_67" data-name="Union 67" d="M20.591,73.332c-4.01-3.99-9.495-8.278-14.375-16.185C3.933,53.5-1.821,43.737.571,40.835c1.909-2.641,4.72,3.087,4.72,3.087s2.285,2.892,6.489,8.709a86.168,86.168,0,0,0,7.751,8.794c3.33,3.38.58-.5.58-.5l-8.443-9.894S1.04,31.515,4.074,26.512s6.86,6.793,10.374,13.353c1.921,3.588,7.2,9.886,11.392,14.642,3.82,4.33,3.9,3.779.514-.938C21.9,47.359,16.731,39.65,14.723,34.635c-3.681-9.184-3.4-16.275-2.79-19.544s5.556-9.631,6.788.356c.076.426.162.859.2,1.02,2.284,10.5,10.218,23.591,15.32,31.21,2.98,4.45,3.164,3.219,1.036-1.329-3.091-6.606-6.725-14.461-7.664-16.876-1.629-4.178-5.729-20.658-1.825-26.3s7.978-2.96,7.531,1.959C34.658,31.633,47.235,43,47.235,43l3.587,4.857c.724-2.2,1.225-3.7,1.225-3.7S48.91,28.237,53.723,23.344,59.977,33.5,59.977,33.5L63.8,65.435,80.553,88.117,58.226,107.3S24.6,77.323,20.591,73.332Z" transform="translate(1603.463 1011) rotate(-90)" fill="#fff" stroke="#334051" stroke-width="2"/>
    <path id="Path_5482" data-name="Path 5482" d="M167.726,0c-.05,14.239-2.14,28.825-2.932,51.038-.862,24.143.856,34.328.874,70.8.2.455,5.048,64.328-58.567,65.045-2.021-.54-100.783,9.182-102.917,8.392C2.2,192.138,1.8,160.745,0,160.308l95.2-31.972-4.63-45.619S167.648-.459,167.726,0Z" transform="translate(1573.967 814.104) rotate(-42)" fill="#c8d3e0" stroke="#334051" stroke-width="2"/>
    <path id="Path_5470" data-name="Path 5470" d="M7232.921,867.138l11.35,9.5" transform="translate(-5821.273 -93.602)" fill="none" stroke="#334051" stroke-width="2"/>
    <path id="Path_5488" data-name="Path 5488" d="M0,0,11.35,9.5" transform="matrix(0.208, 0.978, -0.978, 0.208, 1737.525, 832.807)" fill="none" stroke="#334051" stroke-width="2"/>
  </g>
</svg>
